<svg width="275" height="41" viewBox="0 0 275 41" fill="none" xmlns="http://www.w3.org/2000/svg">
<path d="M9.83774 14.3874L12.2891 7H22.1855C24.0014 7 25.5353 9.52253 25.0001 10.964C23.9408 13.8168 21.7679 19.7928 21.55 20.8739C21.3321 21.955 20.0065 22.3454 19.3709 22.4054H14.5589C12.3799 22.4054 11.472 27.8108 11.018 29.7928C10.6549 31.3784 9.05087 31.8349 8.29427 31.8649H4.02702C4.7231 29.4625 6.31499 24.2072 7.11397 22.4054C8.11268 20.1532 11.8352 21.0541 14.105 20.8739C16.3748 20.6937 16.3748 17.2703 16.738 15.4685C17.0285 14.027 12.2589 14.1472 9.83774 14.3874Z" fill="#fff"/>
<path d="M25.3746 17.676C24.724 18.5448 23.6275 19.5764 23.1154 19.6669C23.6576 21.6578 24.9589 25.7482 26.188 28.7164C27.417 31.6847 32.1222 32.1251 34.3212 31.9743L32.1523 25.0061C31.6462 22.0379 28.9894 20.783 27.7242 20.0289C29.9835 19.6669 32.7849 18.3095 33.6886 17.2235L41.1892 7.54053H32.7849C30.5859 10.557 26.0253 16.8073 25.3746 17.676Z" fill="#FFF"/>
<path d="M13.8978 26.1826L12 31.9743H16.8799C18.3258 31.9743 19.2295 30.466 19.5006 29.7119L21.5791 22.7437C21.0369 23.6487 19.2295 23.8297 16.8799 24.1012C15.0003 24.3184 14.1086 25.5793 13.8978 26.1826Z" fill="#FFF"/>
<path d="M45.5273 15.2096C47.3564 15.2096 48.691 15.6154 49.5312 16.4271C50.3714 17.2322 50.7915 18.3433 50.7915 19.7605C50.7915 20.3992 50.6978 21.0113 50.5103 21.5968C50.3229 22.1756 50.0159 22.6913 49.5894 23.1437C49.1693 23.5961 48.607 23.9554 47.9025 24.2216C47.198 24.481 46.3288 24.6108 45.2947 24.6108H44.0053V29.8004H41V15.2096H45.5273ZM45.3722 17.7445H44.0053V22.0758H44.9941C45.5564 22.0758 46.0444 21.9993 46.458 21.8463C46.8717 21.6933 47.1916 21.4538 47.4178 21.1277C47.644 20.8017 47.7571 20.3826 47.7571 19.8703C47.7571 19.1517 47.5632 18.6194 47.1754 18.2735C46.7876 17.9208 46.1866 17.7445 45.3722 17.7445Z" fill="#FFF"/>
<path d="M62.1438 29.8004L61.1162 26.3273H55.949L54.9214 29.8004H51.6834L56.6858 15.1497H60.36L65.3818 29.8004H62.1438ZM60.3988 23.7325L59.3712 20.3393C59.3065 20.1131 59.2193 19.8237 59.1094 19.4711C59.006 19.1118 58.8993 18.7492 58.7895 18.3832C58.6861 18.0106 58.6021 17.688 58.5374 17.4152C58.4728 17.688 58.3823 18.0273 58.266 18.4331C58.1561 18.8323 58.0495 19.2116 57.9461 19.5709C57.8426 19.9301 57.7683 20.1863 57.7231 20.3393L56.7052 23.7325H60.3988Z" fill="#FFF"/>
<path d="M79.7491 29.8004H75.9294L69.7637 18.7625H69.6764C69.7023 19.2216 69.7249 19.684 69.7443 20.1497C69.7637 20.6154 69.7831 21.0812 69.8025 21.5469C69.8219 22.006 69.8413 22.4684 69.8606 22.9341V29.8004H67.1753V15.2096H70.9658L77.1219 26.1377H77.1897C77.1768 25.6853 77.1606 25.2362 77.1412 24.7904C77.1219 24.3446 77.1025 23.8989 77.0831 23.4531C77.0701 23.0073 77.0572 22.5615 77.0443 22.1158V15.2096H79.7491V29.8004Z" fill="#FFF"/>
<path d="M95.0858 22.3653C95.0858 24.0086 94.7788 25.3826 94.1648 26.487C93.5573 27.5848 92.6751 28.4132 91.5182 28.9721C90.3614 29.5243 88.9686 29.8004 87.3399 29.8004H83.3264V15.2096H87.7761C89.2626 15.2096 90.552 15.4824 91.6443 16.0279C92.7365 16.5669 93.5832 17.3686 94.1842 18.4331C94.7853 19.491 95.0858 20.8017 95.0858 22.3653ZM91.9642 22.4451C91.9642 21.3673 91.8091 20.4824 91.4989 19.7904C91.1951 19.0918 90.7427 18.5762 90.1416 18.2435C89.547 17.9108 88.8102 17.7445 87.9313 17.7445H86.3317V27.2455H87.621C89.0881 27.2455 90.1772 26.843 90.8881 26.0379C91.6055 25.2329 91.9642 24.0353 91.9642 22.4451Z" fill="#FFF"/>
<path d="M109.56 15.2096V24.6507C109.56 25.6554 109.343 26.5635 108.91 27.3752C108.484 28.1803 107.834 28.819 106.962 29.2914C106.096 29.7638 105.003 30 103.685 30C101.811 30 100.382 29.5077 99.3999 28.523C98.4175 27.5383 97.9263 26.2342 97.9263 24.6108V15.2096H100.922V24.1417C100.922 25.346 101.161 26.191 101.639 26.6766C102.118 27.1623 102.825 27.4052 103.762 27.4052C104.422 27.4052 104.955 27.2888 105.362 27.0559C105.776 26.823 106.079 26.4637 106.273 25.978C106.467 25.4923 106.564 24.8736 106.564 24.1218V15.2096H109.56Z" fill="#FFF"/>
<path d="M117.16 15.2096C118.446 15.2096 119.506 15.3693 120.34 15.6886C121.18 16.008 121.804 16.4904 122.211 17.1357C122.618 17.7811 122.822 18.5961 122.822 19.5808C122.822 20.2462 122.699 20.8283 122.454 21.3273C122.208 21.8263 121.885 22.2488 121.484 22.5948C121.083 22.9408 120.65 23.2236 120.185 23.4431L124.354 29.8004H121.019L117.635 24.2016H116.036V29.8004H113.03V15.2096H117.16ZM116.947 17.7445H116.036V21.6866H117.005C118 21.6866 118.711 21.517 119.138 21.1776C119.571 20.8317 119.788 20.326 119.788 19.6607C119.788 18.9687 119.555 18.4764 119.09 18.1836C118.631 17.8909 117.916 17.7445 116.947 17.7445Z" fill="#FFF"/>
<path d="M134.814 29.8004L133.786 26.3273H128.619L127.592 29.8004H124.354L129.356 15.1497H133.03L138.052 29.8004H134.814ZM133.069 23.7325L132.041 20.3393C131.977 20.1131 131.89 19.8237 131.78 19.4711C131.676 19.1118 131.57 18.7492 131.46 18.3832C131.356 18.0106 131.272 17.688 131.208 17.4152C131.143 17.688 131.053 18.0273 130.936 18.4331C130.826 18.8323 130.72 19.2116 130.616 19.5709C130.513 19.9301 130.439 20.1863 130.393 20.3393L129.375 23.7325H133.069Z" fill="#FFF"/>
<path d="M148.212 25.7485C148.212 26.6134 148.008 27.3653 147.601 28.004C147.194 28.6427 146.599 29.1351 145.817 29.481C145.042 29.827 144.098 30 142.987 30C142.495 30 142.014 29.9667 141.542 29.9002C141.077 29.8337 140.628 29.7372 140.195 29.6108C139.768 29.4777 139.361 29.3147 138.973 29.1218V26.2475C139.645 26.5536 140.343 26.8297 141.067 27.0758C141.791 27.322 142.508 27.4451 143.219 27.4451C143.71 27.4451 144.105 27.3786 144.402 27.2455C144.706 27.1124 144.925 26.9295 145.061 26.6966C145.197 26.4637 145.265 26.1976 145.265 25.8982C145.265 25.5323 145.145 25.2196 144.906 24.9601C144.667 24.7006 144.337 24.4578 143.917 24.2315C143.504 24.0053 143.035 23.7625 142.512 23.503C142.182 23.3433 141.823 23.1504 141.435 22.9242C141.048 22.6913 140.679 22.4085 140.33 22.0758C139.981 21.7432 139.694 21.3407 139.467 20.8683C139.248 20.3892 139.138 19.817 139.138 19.1517C139.138 18.2801 139.332 17.5349 139.719 16.9162C140.107 16.2974 140.66 15.825 141.377 15.499C142.101 15.1663 142.954 15 143.937 15C144.673 15 145.375 15.0898 146.04 15.2695C146.712 15.4424 147.414 15.6953 148.144 16.0279L147.175 18.4331C146.522 18.1603 145.937 17.9508 145.42 17.8044C144.903 17.6514 144.376 17.5749 143.84 17.5749C143.465 17.5749 143.145 17.6381 142.88 17.7645C142.615 17.8842 142.415 18.0572 142.279 18.2834C142.143 18.503 142.075 18.7591 142.075 19.0519C142.075 19.3979 142.172 19.6906 142.366 19.9301C142.566 20.163 142.864 20.3892 143.258 20.6088C143.659 20.8283 144.156 21.0845 144.751 21.3772C145.475 21.7299 146.092 22.0991 146.603 22.485C147.12 22.8643 147.517 23.3134 147.795 23.8323C148.073 24.3446 148.212 24.9834 148.212 25.7485Z" fill="#FFF"/>
<path d="M159.458 29.8004L158.43 26.3273H153.263L152.235 29.8004H148.997L154 15.1497H157.674L162.696 29.8004H159.458ZM157.713 23.7325L156.685 20.3393C156.62 20.1131 156.533 19.8237 156.423 19.4711C156.32 19.1118 156.213 18.7492 156.103 18.3832C156 18.0106 155.916 17.688 155.851 17.4152C155.787 17.688 155.696 18.0273 155.58 18.4331C155.47 18.8323 155.363 19.2116 155.26 19.5709C155.156 19.9301 155.082 20.1863 155.037 20.3393L154.019 23.7325H157.713Z" fill="#FFF"/>
<path d="M181.047 29.8004H177.635L173.922 23.6527L172.652 24.5908V29.8004H169.647V15.2096H172.652V21.8862C172.852 21.6001 173.049 21.314 173.243 21.0279C173.437 20.7418 173.634 20.4558 173.835 20.1697L177.674 15.2096H181.009L176.064 21.6667L181.047 29.8004Z" fill="#FFF"/>
<path d="M194.445 29.8004H191.45V23.503H185.836V29.8004H182.831V15.2096H185.836V20.9281H191.45V15.2096H194.445V29.8004Z" fill="#FFF"/>
<path d="M206.709 29.8004L205.681 26.3273H200.514L199.486 29.8004H196.248L201.251 15.1497H204.925L209.947 29.8004H206.709ZM204.964 23.7325L203.936 20.3393C203.871 20.1131 203.784 19.8237 203.674 19.4711C203.571 19.1118 203.464 18.7492 203.354 18.3832C203.251 18.0106 203.167 17.688 203.102 17.4152C203.038 17.688 202.947 18.0273 202.831 18.4331C202.721 18.8323 202.614 19.2116 202.511 19.5709C202.408 19.9301 202.333 20.1863 202.288 20.3393L201.27 23.7325H204.964Z" fill="#FFF"/>
<path d="M215.87 15.2096C217.156 15.2096 218.216 15.3693 219.05 15.6886C219.89 16.008 220.514 16.4904 220.921 17.1357C221.328 17.7811 221.532 18.5961 221.532 19.5808C221.532 20.2462 221.409 20.8283 221.163 21.3273C220.918 21.8263 220.595 22.2488 220.194 22.5948C219.793 22.9408 219.36 23.2236 218.895 23.4431L223.063 29.8004H219.729L216.345 24.2016H214.746V29.8004H211.74V15.2096H215.87ZM215.657 17.7445H214.746V21.6866H215.715C216.71 21.6866 217.421 21.517 217.848 21.1776C218.281 20.8317 218.497 20.326 218.497 19.6607C218.497 18.9687 218.265 18.4764 217.799 18.1836C217.34 17.8909 216.626 17.7445 215.657 17.7445Z" fill="#FFF"/>
<path d="M224.847 29.8004V15.2096H227.853V29.8004H224.847Z" fill="#FFF"/>
<path d="M239.787 25.7485C239.787 26.6134 239.583 27.3653 239.176 28.004C238.769 28.6427 238.174 29.1351 237.392 29.481C236.616 29.827 235.673 30 234.561 30C234.07 30 233.588 29.9667 233.117 29.9002C232.651 29.8337 232.202 29.7372 231.769 29.6108C231.343 29.4777 230.935 29.3147 230.548 29.1218V26.2475C231.22 26.5536 231.918 26.8297 232.642 27.0758C233.365 27.322 234.083 27.4451 234.794 27.4451C235.285 27.4451 235.679 27.3786 235.977 27.2455C236.28 27.1124 236.5 26.9295 236.636 26.6966C236.772 26.4637 236.839 26.1976 236.839 25.8982C236.839 25.5323 236.72 25.2196 236.481 24.9601C236.242 24.7006 235.912 24.4578 235.492 24.2315C235.078 24.0053 234.61 23.7625 234.086 23.503C233.757 23.3433 233.398 23.1504 233.01 22.9242C232.622 22.6913 232.254 22.4085 231.905 22.0758C231.556 21.7432 231.268 21.3407 231.042 20.8683C230.822 20.3892 230.712 19.817 230.712 19.1517C230.712 18.2801 230.906 17.5349 231.294 16.9162C231.682 16.2974 232.234 15.825 232.952 15.499C233.676 15.1663 234.529 15 235.511 15C236.248 15 236.949 15.0898 237.615 15.2695C238.287 15.4424 238.988 15.6953 239.719 16.0279L238.749 18.4331C238.096 18.1603 237.512 17.9508 236.994 17.8044C236.477 17.6514 235.951 17.5749 235.414 17.5749C235.039 17.5749 234.719 17.6381 234.455 17.7645C234.19 17.8842 233.989 18.0572 233.853 18.2834C233.718 18.503 233.65 18.7591 233.65 19.0519C233.65 19.3979 233.747 19.6906 233.941 19.9301C234.141 20.163 234.438 20.3892 234.833 20.6088C235.233 20.8283 235.731 21.0845 236.326 21.3772C237.049 21.7299 237.667 22.0991 238.177 22.485C238.694 22.8643 239.092 23.3134 239.37 23.8323C239.648 24.3446 239.787 24.9834 239.787 25.7485Z" fill="#FFF"/>
<path d="M248.356 29.8004L244.944 18.3533H244.857C244.87 18.6261 244.889 19.0386 244.915 19.5908C244.947 20.1364 244.976 20.7186 245.002 21.3373C245.028 21.9561 245.041 22.515 245.041 23.014V29.8004H242.356V15.2096H246.447L249.801 26.3673H249.859L253.417 15.2096H257.508V29.8004H254.706V22.8942C254.706 22.4351 254.713 21.9062 254.726 21.3074C254.745 20.7086 254.768 20.1397 254.794 19.6008C254.82 19.0552 254.839 18.646 254.852 18.3733H254.765L251.11 29.8004H248.356Z" fill="#FFF"/>
<path d="M269.762 29.8004L268.734 26.3273H263.567L262.54 29.8004H259.302L264.304 15.1497H267.978L273 29.8004H269.762ZM268.017 23.7325L266.989 20.3393C266.925 20.1131 266.838 19.8237 266.728 19.4711C266.624 19.1118 266.518 18.7492 266.408 18.3832C266.304 18.0106 266.22 17.688 266.156 17.4152C266.091 17.688 266.001 18.0273 265.884 18.4331C265.774 18.8323 265.668 19.2116 265.564 19.5709C265.461 19.9301 265.387 20.1863 265.341 20.3393L264.323 23.7325H268.017Z" fill="#FFF"/>
</svg>
