<svg xmlns="http://www.w3.org/2000/svg" fill="none" viewBox="0 0 41 38">
  <g clip-path="url(#a)">
    <mask id="b" width="41" height="37" x="0" y="0" maskUnits="userSpaceOnUse" style="mask-type:luminance">
      <path fill="#fff" d="M40.5 0H.5v37h40V0Z"/>
    </mask>
    <g fill="#c53f3f" mask="url(#b)">
      <path d="M1.4 2.1c.6-.6 1.4-.9 2.2-.9h5L4 3h-.5c-.7 0-1.3.6-1.3 1.3v28.4c0 .7.6 1.3 1.3 1.3H4l4.5 1.8h-5a3 3 0 0 1-3.1-3V4.2a3 3 0 0 1 1-2.2Z"/>
      <path d="M3.7 5.8a1.8 1.8 0 0 1 1.1-1.7l13-4a1 1 0 0 1 1.4.8v35.2a1 1 0 0 1-1.4.8L7.7 34l-2.9-1a1.9 1.9 0 0 1-1.1-1.7V5.8ZM23 13.9a1.6 1.6 0 0 0-1 1.4v6.4a1.5 1.5 0 0 0 1 1.4l.6.1H25v8.4c0 .3-.1.6-.3.8a1 1 0 0 1-.8.3h-3.4V4.3H24c.3 0 .6.1.8.3.2.2.3.5.3.8v8.4h-1.4l-.6.1Z"/>
      <path d="M25 3h-4.5V1.2H25a3 3 0 0 1 3.1 3v9.6h-1.8V4.3c0-.7-.6-1.3-1.3-1.3Zm3.1 29.7a3 3 0 0 1-.9 2.2c-.6.6-1.4.9-2.2.9h-4.5V34H25c.7 0 1.3-.6 1.3-1.3v-9.5h1.8v9.5Z"/>
      <path d="M23.6 15.1h7.8a.2.2 0 0 0 .2-.1v-3.3c0-.2.2-.3.3-.1l8.5 6.7a.2.2 0 0 1 0 .2.2.2 0 0 1 0 .2L32 25.4c-.1.2-.3 0-.3-.1V22a.2.2 0 0 0 0-.2.2.2 0 0 0-.2 0h-8v-6.7h.2Z"/>
    </g>
  </g>
  <defs>
    <clipPath id="a">
      <path fill="#fff" d="M.5 0h40v38H.5z"/>
    </clipPath>
  </defs>
</svg>