<svg xmlns="http://www.w3.org/2000/svg" width="1120" height="1050" viewBox="0 0 1120 1050" fill="none">
<g clip-path="url(#clip0_1294_46829)">
<g clip-path="url(#clip1_1294_46829)">
<path opacity="0.1" fill-rule="evenodd" clip-rule="evenodd" d="M303.341 99.9838L297.859 102.637L296.516 103.342C189.558 160.003 132.48 276.214 193.339 394.573C245.001 495.433 357.09 506.377 407.237 529.453C482.55 564.343 541.898 617.532 597.272 722.073L614.893 755.659L630.724 786.306C650.202 824.258 668.227 860.227 681.513 886.953L698.257 920.788L722.456 908.449L667.616 798.698L655.746 774.688C645.677 754.245 635.228 732.829 624.881 711.276C573.721 604.613 563.312 523.166 579.289 441.732C589.802 387.729 646.863 290.54 595.736 189.41C536.375 72.1785 411.204 49.2111 303.341 99.9838Z" fill="url(#paint0_linear_1294_46829)"/>
<path fill-rule="evenodd" clip-rule="evenodd" d="M455.881 85.7391L449.967 87.1929L448.507 87.603C332.097 120.758 252.079 222.542 286.966 350.976C316.5 460.381 423.857 494.419 468.101 527.428C534.501 577.231 581.477 641.608 613.876 755.386L624.12 791.905L633.225 825.176C644.376 866.351 654.519 905.285 661.949 934.191L671.283 970.77L697.521 963.739L666.729 844.976L660.117 819.021C654.524 796.93 648.762 773.809 643.128 750.574C615.292 635.598 622.066 553.768 654.644 477.443C676.169 426.812 752.211 343.63 723.256 234.073C689.599 107.053 571.951 58.5321 455.881 85.7391Z" fill="url(#paint1_linear_1294_46829)"/>
<path opacity="0.7" fill-rule="evenodd" clip-rule="evenodd" d="M246.095 496.285L242.98 497.646C171.259 527.756 118.738 575.877 111.828 666.969C105.652 751.779 165.907 842.103 275.585 831.93L293.296 830.35L311.243 828.868C407.807 821.252 469.52 822.533 519.552 835.25C587.864 852.688 653.373 907.373 680.938 986.868L704.985 978.882L649.664 810.185L637.514 774.431C635.566 768.889 634.085 764.856 633.196 762.732C564.53 549.423 349.99 452.788 246.095 496.285Z" fill="url(#paint2_linear_1294_46829)"/>
<path opacity="0.1" fill-rule="evenodd" clip-rule="evenodd" d="M238.223 529.922L235.286 531.027C167.7 555.301 117.077 597.855 106.74 684.011C97.3545 764.241 149.12 853.733 250.918 850.705L267.354 850.276L284.003 849.954C373.572 848.562 430.547 853.516 476.231 868.632C538.604 889.341 596.771 945.28 618.797 1022.5L641.366 1016.37L597.559 852.688L587.881 817.971C586.321 812.586 585.127 808.663 584.398 806.591C530.194 599.704 336.121 494.872 238.223 529.922Z" fill="url(#paint3_linear_1294_46829)"/>
<path fill-rule="evenodd" clip-rule="evenodd" d="M637.488 782.831L637.969 785.175L640.228 794.74C645.55 816.35 657.245 860.234 668.741 903.002L692.985 993.001L712.775 987.785C693.144 909.923 718.581 831.582 762.296 782.446C797.961 742.307 852.403 706.055 948.374 654.287C1038.16 605.979 1038.1 502.634 989.838 437.851C938.952 369.802 875.369 357.353 806.366 368.878L802.046 369.629C699.081 384.921 580.391 574.483 637.488 782.831Z" fill="url(#paint4_linear_1294_46829)"/>
</g>
</g>
<defs>
<linearGradient id="paint0_linear_1294_46829" x1="552.151" y1="798.283" x2="-4.12255" y2="714.53" gradientUnits="userSpaceOnUse">
<stop stop-color="#C53F3F" stop-opacity="0"/>
<stop offset="1" stop-color="#A02C2C"/>
</linearGradient>
<linearGradient id="paint1_linear_1294_46829" x1="218.093" y1="1487.6" x2="-410.857" y2="1054.9" gradientUnits="userSpaceOnUse">
<stop stop-color="#C53F3F" stop-opacity="0"/>
<stop offset="1" stop-color="#A02C2C"/>
</linearGradient>
<linearGradient id="paint2_linear_1294_46829" x1="390.579" y1="1282.28" x2="-29.3295" y2="1090.66" gradientUnits="userSpaceOnUse">
<stop offset="0.249947" stop-color="#C53F3F"/>
<stop offset="0.964228" stop-color="#A02C2C"/>
</linearGradient>
<linearGradient id="paint3_linear_1294_46829" x1="342.5" y1="875.252" x2="149.815" y2="884.671" gradientUnits="userSpaceOnUse">
<stop stop-color="#C53F3F" stop-opacity="0"/>
<stop offset="1" stop-color="#A02C2C"/>
</linearGradient>
<linearGradient id="paint4_linear_1294_46829" x1="318.5" y1="616.5" x2="536.143" y2="39.4723" gradientUnits="userSpaceOnUse">
<stop stop-color="#C53F3F" stop-opacity="0"/>
<stop offset="0.68861" stop-color="#A02C2C"/>
</linearGradient>
<clipPath id="clip0_1294_46829">
<rect width="1120" height="1050" fill="white"/>
</clipPath>
<clipPath id="clip1_1294_46829">
<rect width="1084" height="1068" fill="white" transform="translate(36)"/>
</clipPath>
</defs>
</svg>