<svg xmlns="http://www.w3.org/2000/svg" viewBox="0 0 500 500">
  <path fill="#f5f5f5" d="M57 467.7c-1.3-1.1-4.3-4.8-2-9 .8-1.5 2.6-2.2 4.2-3a17.3 17.3 0 0 0 4.6-2.3c2.6-2.2 3.3-5.7 5-8.6 1.8-3.2 5.4-5.7 9.2-5.5 4.3.2 7.9 3.7 9.5 7.7s1.7 8.5 1.8 12.9c0 2.4-.1 5-1.9 6.7s-4 1.5-6.3 1.4l-23.6-.7"/>
  <path fill="#e0e0e0" d="M102.1 402.8H40l11.2 66.6a7.5 7.5 0 0 0 5.3 6h.2a5 5 0 0 0 .5.2 7.5 7.5 0 0 0 1.3.1v.1h28a7.7 7.7 0 0 0 1.6-.2 7.5 7.5 0 0 0 6.2-6.5l5.4-46 .3-1.8 2.1-18.2Zm-11.7 42.5H84l.7-19.3H92Zm2.3-19.3h6l-2.2 19.4H91Zm-18.2 40.8L74 450h9.2l-.6 16.8Zm-10-16.8h9l.4 16.8h-8Zm.8 16.8h-7.5L55 450h9Zm-1-21.4L62.6 426h10.2l.5 19.4Zm9.7 0-.5-19.4h10.6l-.7 19.4Zm-.5-24-.5-18h11.8l-.6 18Zm-.6 0H62.3l-1.4-18h11.5Zm-11.1 0H50.6l-1-7-1.9-11h12.6Zm.3 4.6 1.5 19.4h-9.2l-1-6-2-13.4Zm-8.3 19.4h-6L44.5 426h6.2l3 19.3Zm.8 4.6 2.6 16.8h-5.8L48.6 450Zm28.8 16.8.5-16.8H90l-1.4 16.8Zm1.5-45.4.6-18H94l-1.5 18Zm-37.8-18 2.9 18h-6.2l-3-18ZM94 466.8h-4.8l1.4-16.8H96Zm5.3-45.5h-6.2l1.5-17.9h6.8ZM51 44.9h100.1V190H51z"/>
  <path fill="#f5f5f5" d="M46 44.9h100.1V190H46z"/>
  <path fill="#fff" d="M58.5 60.6h75.2v113.7H58.5z"/>
  <path fill="#e0e0e0" d="M133.7 174.3v-31.9l-.2-81.8.2.2H58.5l.3-.2v113.6l-.3-.2 54.8.1h20.5-5.3l-15 .1-55 .2h-.2V60.2H134v82.3l-.2 23.3v7.8l-.1.7Z"/>
  <path fill="#e0e0e0" d="M146.4 44.9a19.9 19.9 0 0 1-1.8 2.6 220 220 0 0 1-9.6 11.7 17.8 17.8 0 0 1-2.2 2.3 18.3 18.3 0 0 1 1.9-2.5l4.8-5.9 4.8-5.8a18.4 18.4 0 0 1 2.1-2.4Z"/>
  <path fill="#fff" d="M134 173.9a93.1 93.1 0 0 0 13.2 16.4"/>
  <path fill="#e0e0e0" d="M147.2 190.3a14.5 14.5 0 0 1-2.3-2 69.2 69.2 0 0 1-5-5.7 71.3 71.3 0 0 1-4.4-6 14.7 14.7 0 0 1-1.5-2.7 21.5 21.5 0 0 1 1.9 2.5A135 135 0 0 0 145 188a22 22 0 0 1 2 2.3Zm-88.1-16.6a96.1 96.1 0 0 1-6.3 8.2 99.3 99.3 0 0 1-6.8 8c-.1-.1 2.7-3.8 6.3-8.3a103.1 103.1 0 0 1 6.8-8ZM46 44.9a92.2 92.2 0 0 1 6.4 7.6 90.8 90.8 0 0 1 5.9 8 90 90 0 0 1-6.3-7.7 90.8 90.8 0 0 1-6-8Zm39 38.8h25.2v71.5H85zm275.4-48.5h94.5v98.5h-94.5z"/>
  <path fill="#fafafa" d="M354 35.2h94.5v98.5H354z"/>
  <path fill="#e0e0e0" d="M448.5 133.7H354V35.1h94.5Zm-94.5 0h94.4V35.1H354Z"/>
  <path fill="#fff" d="M366.7 48.4h69.1v72h-69.1z"/>
  <path fill="#e0e0e0" d="M366.7 121a11.4 11.4 0 0 1-1.7 2 234 234 0 0 1-9 8.7 11 11 0 0 1-2 1.6 11.8 11.8 0 0 1 1.8-2 207.8 207.8 0 0 1 8.9-8.8 10.7 10.7 0 0 1 2-1.6Zm69.1-.3a11 11 0 0 1 2 1.7 189.2 189.2 0 0 1 8.7 9 11 11 0 0 1 1.7 2 11.4 11.4 0 0 1-2-1.8 207.8 207.8 0 0 1-8.8-8.9 11.2 11.2 0 0 1-1.6-2Zm-.2-72.1a11.4 11.4 0 0 1 1.7-2 168.9 168.9 0 0 1 8.9-8.8 10.9 10.9 0 0 1 2-1.6 11 11 0 0 1-1.7 2 207.8 207.8 0 0 1-9 8.7 10.8 10.8 0 0 1-2 1.7Zm-69.1.2a11.4 11.4 0 0 1-2-1.7 186 186 0 0 1-8.8-9 10.9 10.9 0 0 1-1.6-2 11 11 0 0 1 2 1.8 186.5 186.5 0 0 1 8.7 8.9 10.3 10.3 0 0 1 1.7 2Z"/>
  <path fill="#e0e0e0" d="M435.6 120.4v-19.9l-.2-52 .2.2h-68.9l.4-.3v72l-.4-.3 50 .2h18.6a2.2 2.2 0 0 1 .4 0h-18.9l-50 .2h-.3V48.1H436v.3l-.2 52.2v19.5a2 2 0 0 1-.2.3Z"/>
  <path fill="#ebebeb" d="M389.7 72.9h23.1V96h-23.1z"/>
  <path fill="#f5f5f5" d="M304.4 444.2v30.1H397v-30.1h-92.6z"/>
  <path fill="#e0e0e0" d="M300.5 435.8v8.4h99.7v-8.4h-99.7z"/>
  <path fill="#e0e0e0" d="M350.3 474.3H397v-30.1h3.2v-8.4h-51.8v7.6l1.9 30.9zm-33-25.3h18.8v4.5h-18.8z"/>
  <path fill="#fff" d="M314.9 459.2H339v9.6h-24.1z"/>
  <path fill="#f5f5f5" d="M318.6 405.7v30.1h92.6v-30.1h-92.6z"/>
  <path fill="#ebebeb" d="M315.2 397.3v8.4h99.7v-8.4h-99.7z"/>
  <path fill="#ebebeb" d="M364.6 435.8h47.1v-30.1h2.7v-8.4h-51.8v7.6l2 30.9z"/>
  <path fill="#e0e0e0" d="M331.6 410.5h18.8v4.5h-18.8z"/>
  <path fill="#fff" d="M329.1 420.7h24.1v9.6h-24.1z"/>
  <path fill="#263238" d="M482.2 475.3c0 .1-104.9.2-234.2.2s-234.2 0-234.2-.2 104.8-.3 234.2-.3 234.2.1 234.2.3ZM245.7 224.4v1h-4v-.8l2.3-2.7h-2.2v-1h3.9v.8l-2.3 2.7Zm-7.3-4.4v2.4H229v-1.9l5.4-6.3H229v-2.4h9.1v1.8L233 220Zm-13.4-5.4v4.7h-19v-3.7l10.8-12.8h-10.6V198h18.4v3.7l-10.9 12.9Z"/>
  <path fill="#c53f3f" d="M220 157.1h-14.5v18.7h-27v-18.7H127v-18l43.8-60.9h28.5l-39.7 57h19.8v-16.5h26v16.6H220Zm5.6-30.1c0-32.2 18-50.7 43-50.7s43 18.5 43 50.7-18.2 50.7-43 50.7-43-18.5-43-50.7Zm58.2 0c0-20.5-6.4-28.1-15.2-28.1s-15.3 7.6-15.3 28.1 6.4 28.2 15.3 28.2 15.2-7.7 15.2-28.2ZM413 157.1h-14.5v18.7h-26.9v-18.7H320v-18l43.8-60.9h28.5l-39.7 57h19.8v-16.5h26v16.6H413Z"/>
  <path d="M220 157.1h-14.5v18.7h-27v-18.7H127v-18l43.8-60.9h28.5l-39.7 57h19.8v-16.5h26v16.6H220Zm5.6-30.1c0-32.2 18-50.7 43-50.7s43 18.5 43 50.7-18.2 50.7-43 50.7-43-18.5-43-50.7Zm58.2 0c0-20.5-6.4-28.1-15.2-28.1s-15.3 7.6-15.3 28.1 6.4 28.2 15.3 28.2 15.2-7.7 15.2-28.2ZM413 157.1h-14.5v18.7h-26.9v-18.7H320v-18l43.8-60.9h28.5l-39.7 57h19.8v-16.5h26v16.6H413Z" opacity=".3"/>
  <path fill="#c53f3f" d="M212 157.1h-14.6v18.7h-26.9v-18.7H119v-18l43.8-60.9h28.6l-39.7 57h19.8v-16.5h26v16.6H212Zm5.5-30.1c0-32.2 18-50.7 43-50.7s43 18.5 43 50.7-18.1 50.7-43 50.7-43-18.5-43-50.7Zm58.2 0c0-20.5-6.4-28.1-15.2-28.1s-15.3 7.6-15.3 28.1 6.4 28.2 15.3 28.2 15.2-7.7 15.2-28.2ZM405 157.1h-14.6v18.7h-26.9v-18.7H312v-18l43.8-60.9h28.5l-39.7 57h19.8v-16.5h26v16.6H405Z"/>
  <path fill="#263238" d="M228.8 54.2c0-5.8 4.5-10 10.7-10s10.6 4.2 10.6 10-4.5 10-10.6 10-10.7-4.3-10.7-10Zm15.8 0a5.2 5.2 0 1 0-10.3 0 5.2 5.2 0 1 0 10.3 0Zm7.2 2.1c0-4.5 3.5-7.6 8.4-7.6s8.4 3.1 8.4 7.6-3.5 7.7-8.4 7.7-8.4-3.2-8.4-7.7Zm11.5 0c0-2.2-1.3-3.5-3-3.5s-3.2 1.3-3.2 3.5 1.3 3.6 3.1 3.6 3.1-1.3 3.1-3.6Zm24.4 0c0 4.8-3.3 7.7-7.3 7.7a5.5 5.5 0 0 1-4.2-1.5V69H271V48.9h5v1.5a5.4 5.4 0 0 1 4.4-1.7c4 0 7.3 3 7.3 7.6Zm-5.3 0c0-2.2-1.4-3.5-3.1-3.5s-3.1 1.3-3.1 3.5 1.3 3.6 3 3.6 3.2-1.3 3.2-3.6Zm6.6 6.2 1.5-3.6a10.4 10.4 0 0 0 5.2 1.4c1.7 0 2.3-.4 2.3-1 0-2-8.8.3-8.8-5.7 0-2.8 2.6-5 7.3-5a13 13 0 0 1 5.8 1.3l-1.5 3.6a8.7 8.7 0 0 0-4.3-1.1c-1.8 0-2.4.5-2.4 1 0 2 8.7-.2 8.7 5.7 0 2.7-2.5 4.9-7.3 4.9a13.7 13.7 0 0 1-6.6-1.5Zm15.4-1.4a3.1 3.1 0 0 1 6.3 0 3.1 3.1 0 0 1-6.3 0Zm0-16.5h6.2l-1 12.2h-4.2Z"/>
  <path fill="#e0e0e0" d="M124.2 383.4h12.3v59.3h-12.3z"/>
  <path fill="#e0e0e0" d="m86.2 375.7 38 11.9h12.3l43.3-11.9Z"/>
  <path fill="#455a64" d="M51.7 177c-5.5 1.2-10.4 6.2-9.5 16.3 0 0-4.4.8-4.1 8.7s-.6 57 9.2 83.7c8.1 22 22 69 26.8 85a7.7 7.7 0 0 0 7.3 5.4h106.8a14 14 0 0 0 13.9-14.5 14 14 0 0 0-14.1-13.4l-77.8.8s-4.8-25.7-9.7-26c0 0 2.2-16-6-20.7 0 0 1.6-19.8-7-21.6 0 0 1.3-16.6-6-19.6 0 0 4-15-3.6-22.6 0 0 2.1-17.4 0-30.5s-3-36.2-26.2-31Z"/>
  <path fill="#263238" d="M193.6 363.2h-8.2l-22.9.1-78.2.1h-.1l-.1-.1-11-32a4506 4506 0 0 1-21.6-64.6 53.4 53.4 0 0 1-1.5-5.8 26.9 26.9 0 0 1-.5-3c-.1-1-.3-1.8-.3-2.8a274 274 0 0 1-1-21.2c-.2-12.9 0-23.4.1-30.6l.3-8.3v-2.2l.1-.7v2.9l-.1 8.3c-.1 7.2-.3 17.7 0 30.6.1 6.5.3 13.6 1 21.2 0 1 .2 1.9.3 2.8a26 26 0 0 0 .5 2.9 52.3 52.3 0 0 0 1.6 5.8l3.8 11.9 17.8 52.7 11 32-.2-.2h78.2l22.8.1h7.7l.5.1Z"/>
  <path fill="#263238" d="M98.6 349.2a6.6 6.6 0 0 1-1 .8l-2.8 2.4a76.9 76.9 0 0 0-8.3 8.5 81 81 0 0 0-6.9 9.7l-1.8 3a6.6 6.6 0 0 1-.7 1.2 6.4 6.4 0 0 1 .5-1.2l1.7-3.2a68.2 68.2 0 0 1 6.8-9.9 65 65 0 0 1 8.5-8.4 36 36 0 0 1 2.8-2.2 6.2 6.2 0 0 1 1.2-.7Z"/>
  <path fill="#263238" d="M110.2 349h-3l-8.6.2h-.1v-.1l-.2-1a8.2 8.2 0 0 0-.4-1 3 3 0 0 0-1.7-1.6 7.1 7.1 0 0 0-5.1.8l-.4.2.2-.4a19.6 19.6 0 0 0 .5-10.9 19.8 19.8 0 0 0-6.8-10.9h-.2l.1-.2a16.4 16.4 0 0 0-4.5-17.6l-.1-.1v-.2a20.8 20.8 0 0 0-8-23.2v-.2a68.4 68.4 0 0 0-.4-8.3 42.3 42.3 0 0 0-1.5-8.3c-.8-2.6-2-5.2-4.3-6.7l-.1-.1v-.2a36.3 36.3 0 0 0 1.4-12.4 22.1 22.1 0 0 0-1.3-5.8 16 16 0 0 0-3-4.9v-.3a22.6 22.6 0 0 0 3.5-11.6 16.9 16.9 0 0 0-3.5-10.3v-.1a32.8 32.8 0 0 0-2.9-14.3 14.1 14.1 0 0 0-3.6-4.8 11.2 11.2 0 0 0-4.6-2.2 14.3 14.3 0 0 0-4-.2l-1.7.1-1.3.3-1.8.5-.6.1a24 24 0 0 1 2.4-.7l1.3-.3 1.7-.2a14.1 14.1 0 0 1 4 .2 11.2 11.2 0 0 1 4.7 2.2 14.3 14.3 0 0 1 3.8 4.8 33 33 0 0 1 3 14.5v-.1a17.3 17.3 0 0 1 3.6 10.5 23.1 23.1 0 0 1-3.5 11.9v-.3a16.6 16.6 0 0 1 3 5 22.5 22.5 0 0 1 1.4 6 36.5 36.5 0 0 1-1.4 12.6l-.2-.4a13 13 0 0 1 4.5 7 41.4 41.4 0 0 1 1.5 8.4 67.5 67.5 0 0 1 .3 8.3l-.1-.2a21.3 21.3 0 0 1 8.2 23.8v-.3a16.8 16.8 0 0 1 4.5 18.2l-.1-.3a20 20 0 0 1 6.9 11.2 19.8 19.8 0 0 1-.6 11.1l-.2-.2a10.5 10.5 0 0 1 2.7-.9 5.2 5.2 0 0 1 2.6.1 3.3 3.3 0 0 1 2 1.8 8.1 8.1 0 0 1 .3 1.1l.2 1.1-.1-.1h10.8Z"/>
  <path d="m95.9 302-35.7 4.6a7 7 0 0 0 5.2 3.5 22.4 22.4 0 0 0 6.5-.1 193 193 0 0 1 27.8-1 40 40 0 0 0-3.8-7Z" opacity=".3"/>
  <path fill="#263238" d="M78.3 236.6a51.5 51.5 0 0 1-7.5.4 55.6 55.6 0 0 1-7.4 0 51.5 51.5 0 0 1 7.4-.5 55.5 55.5 0 0 1 7.5 0Z"/>
  <path fill="#e0e0e0" d="M78 466s5.6-17.4 13.5-21.6c12.7-6.8 41.8-10 41.8-10l3.2 8.2s-38.9 1.5-45 9.4a163.2 163.2 0 0 0-9.8 14Z"/>
  <circle cx="82.9" cy="467" r="8.3" fill="#263238"/>
  <path fill="#e0e0e0" d="M183.3 465.7s-5.7-17.4-13.6-21.6c-12.6-6.8-41.8-10-41.8-10l-3.2 8.2s38.9 1.5 45 9.4a162.2 162.2 0 0 1 9.8 14Z"/>
  <circle cx="180.4" cy="467" r="8.3" fill="#263238"/>
  <path fill="#e0e0e0" d="m126.1 438.8 1.8 22.4 5.1 1v-23.4"/>
  <circle cx="130.3" cy="467" r="8.3" fill="#263238"/>
  <path fill="#263238" d="M69 263.2a38.4 38.4 0 0 1 6-1.5 37.9 37.9 0 0 1 6.3-1 38 38 0 0 1-6.1 1.5 38.2 38.2 0 0 1-6.2 1Zm17.7 17.5a8.3 8.3 0 0 1-2 .7l-5.1 1-5.2.5a8.1 8.1 0 0 1-2.1 0l7.2-1c4-.7 7.1-1.3 7.2-1.2Zm14.7 43.3a10 10 0 0 1-2.4.3c-1.4.1-3.5.3-5.8.3h-5.8a10 10 0 0 1-2.4-.2 12 12 0 0 1 2.4-.1l5.8-.2 5.8-.2a12 12 0 0 1 2.4 0Zm4.2 15.6c0 .1-3.4.8-7.2 2.5s-6.8 3.5-6.8 3.4a7.5 7.5 0 0 1 1.8-1.4 33.1 33.1 0 0 1 4.8-2.5 32.2 32.2 0 0 1 5.1-1.7 8.6 8.6 0 0 1 2.3-.3Zm66.7 36.7c0 .2-19.7.2-44 .2s-43.9-.2-43.9-.4 19.7-.2 44-.1l43.9.3ZM135.9 388a32.6 32.6 0 0 1-5.9.3 32.7 32.7 0 0 1-5.9-.3 33.9 33.9 0 0 1 6-.3 33.8 33.8 0 0 1 5.8.3Zm.5 47.8a12.7 12.7 0 0 1-11.8.3 26 26 0 0 0 6 .8 26 26 0 0 0 5.8-1.1Z"/>
  <path fill="#e0e0e0" d="M258 250.5s-4.8-7.2-7.5-9.6a91.7 91.7 0 0 0-16.9-7.3 14 14 0 0 0-4.5-.8c-6 0-21.9 0-30 1.4-10 1.9 56.8 54.4 56.8 54.4l55.6.1 3.6-13.7-37.1-7.7-20.5-16.2"/>
  <path d="M214.5 236.1s3.7.2 8.8 1 10.8 1.1 13.6 3.6c1.9 1.7 13.4 2 13.4 2l-16-.6Z" opacity=".3"/>
  <path fill="#263238" d="M209.2 234.8a3.8 3.8 0 0 1 1 .1l2.8.6 9 2.5 3.7 1.2a41 41 0 0 1 7.7 1.1 5.3 5.3 0 0 1 .5 1.2 6.1 6.1 0 0 1-.7-1.1 62.7 62.7 0 0 0-7.6-.7l-4-1.2-8.8-2.6-2.7-.8a3.8 3.8 0 0 1-.9-.3Z"/>
  <path fill="#ffbf9d" d="m354.6 288.2-1.2-5.7c-.1-.5-3.8-6-3.8-6l-2-.6s-9.3-2.2-11.2-2h-1.3l-3.4.4c-1 .1-6.9 2.3-6.9 2.3a16.6 16.6 0 0 1-4.4.3 59.1 59.1 0 0 1-6.1-1.3l-2.4 13.1 4.5-.1a22.7 22.7 0 0 0 4.3 1l6.2.6s7.1 3 8.9-1.1-5-4.6-5-4.6l2-1.5 5.5-.6 1.4.4 1.6 2.4s-.5 5.3 3 5l.9-.1.4-5.5-1.6-5.5 3.6 5.5s.3 4.7 1.9 5.3a.8.8 0 0 0 .3 0c2 0 2.3-.5 2.3-.5l.4-1s1.8 1.3 2.1-.2Z"/>
  <path fill="#ff9a6c" d="M334.3 274a4.6 4.6 0 0 1 1.7 0 16.3 16.3 0 0 1 4 1.1 8.3 8.3 0 0 1 3.3 2.4 2.9 2.9 0 0 1 .8 1.6l-1-1.3a9.3 9.3 0 0 0-3.3-2.2c-3-1.2-5.6-1.4-5.5-1.6Zm3.5 5.7.3 1.3v1.3s-.5-.5-.5-1.3 0-1.3.2-1.3Z"/>
  <path fill="#ff9a6c" d="M334.3 279.9c0-.1 1 1 2.6 1.8s3 1 3 1a5 5 0 0 1-3.2-.6 4.8 4.8 0 0 1-2.4-2.2Zm-11.3.5a3 3 0 0 1 1.3.5 7.8 7.8 0 0 1 2.7 2.4 9.1 9.1 0 0 1 .6 1l-.3-.1a7 7 0 0 1 3.9.3 32 32 0 0 0-3.8.2h-.2v-.2a9 9 0 0 0-.6-1 12.8 12.8 0 0 0-3.7-3.1Zm24.8-4.5a6 6 0 0 1 1.4 1.5 18.3 18.3 0 0 1 2.3 4.3 17.8 17.8 0 0 1 1 4.8 5.8 5.8 0 0 1 0 2 38 38 0 0 0-1.5-6.6 38.2 38.2 0 0 0-3.2-6Z"/>
  <path fill="#455a64" d="m259.2 432.8-1 27s27.2 10.2 27.4 15.2l-52.5-.1-.1-42.3Z"/>
  <path fill="#e0e0e0" d="M242 457.5a2.1 2.1 0 0 0-1.5 2.5 2 2 0 0 0 2.4 1.5 2.3 2.3 0 0 0 1.6-2.6 2.1 2.1 0 0 0-2.7-1.3"/>
  <path fill="#263238" d="m233.1 474.9.2-4.3 50.3 1.7s2.3 1 2 2.7Z"/>
  <path fill="#fff" d="M259 459.6c0 .2-1.2.3-2.5 1.2s-2 1.9-2.2 1.8.2-1.6 1.7-2.6 3.1-.7 3-.4Zm5.6 2.3c0 .2-1.1.6-2 1.7s-1.1 2.3-1.4 2.2-.4-1.4.7-2.7 2.7-1.5 2.7-1.2Zm3.1 6.6c-.3 0-.6-1.3 0-2.7s1.9-2 2-1.7-.6 1-1.1 2.1-.7 2.2-1 2.3Zm-9.1-15.1c-.1.2-1.3-.1-2.7 0s-2.6.5-2.7.3.9-1.1 2.6-1.2 3 .7 2.8.9Z"/>
  <path fill="#455a64" d="m217.1 430-17 21s15.6 24.4 12.9 28.6L171 448l25.2-33.9Z"/>
  <path fill="#e0e0e0" d="M188.5 439.4a2.2 2.2 0 0 0-2.7 1 2 2 0 0 0 1 2.7 2.3 2.3 0 0 0 2.8-1.1 2.1 2.1 0 0 0-1.4-2.6"/>
  <path fill="#263238" d="m171 448 2.7-3.3 39.2 31.5s1.3 2.2 0 3.4Z"/>
  <path fill="#fff" d="M201 451.3c-.3.2-1.4-.5-2.9-.6s-2.6.4-2.8.2 1.1-1.2 3-1 2.8 1.3 2.6 1.4Zm3 5.1c-.2.3-1.3 0-2.7.3s-2.2 1.1-2.4 1 .6-1.5 2.2-1.9 3 .4 2.8.6Zm-1.5 7.2c-.2-.1.2-1.3 1.6-2s2.7-.5 2.6-.3-1 .4-2.2 1-1.8 1.4-2 1.3Zm1.8-17.6c-.3.2-1-.8-2.2-1.6s-2.4-1-2.4-1.3 1.5-.4 2.9.6 1.9 2.3 1.7 2.4Z"/>
  <path fill="#263238" d="M256.5 243.3a91.3 91.3 0 0 1 15.5-2.8 32 32 0 0 1 15.5 2.6c.7.3 5.5 3 5.4 3.9-.1.5-4.7-1.3-5.2-1a27.3 27.3 0 0 1-16 1.7 71.6 71.6 0 0 1-15.2-4.4"/>
  <path fill="#ffbf9d" d="m229.3 241.3 47.3 3c13.2.7 23.8 9 22.8 22l-.2 1.3a23.6 23.6 0 0 1-24.7 20.4c-11.4-.6-24-1.5-30-2.4-12.6-1.8-12.9-14.6-12.9-14.6l-4.8-.5-12-8.6Z"/>
  <path fill="#ff9a6c" d="M231.6 271a30.5 30.5 0 0 1 7-15.7s-10 2.7-10.5 15.3Z"/>
  <path fill="#263238" d="M265.6 276.6c.3.2-.5 1.7-.3 3.7s1.4 3.2 1.2 3.4-.5 0-1-.6a5 5 0 0 1-1.3-2.7 4.8 4.8 0 0 1 .6-3c.3-.6.7-.8.8-.8Zm1.4-17.2c.3.2-.7 1.6-.8 3.5s1 3.4.7 3.6c-.1.1-.5-.1-1-.8a5 5 0 0 1-.8-2.8 4.8 4.8 0 0 1 1-2.8c.4-.6.9-.8 1-.7Zm-11.3 11.2a13.3 13.3 0 0 1 .2 3.2c0 .5 0 1 .3 1a2.5 2.5 0 0 0 1.5 0l4-1c5.6-1.3 10.2-2.2 10.2-2s-4.5 1.5-10 2.8l-4 .9a2.9 2.9 0 0 1-2 0 1.2 1.2 0 0 1-.7-1 3.4 3.4 0 0 1 0-.8 12.6 12.6 0 0 1 .5-3.1Zm21.7-3.6c-.4-.3.4-2 .7-4.3s.3-4.3.8-4.4c.3 0 .7.4 1 1.2a7.7 7.7 0 0 1-1.2 6.7c-.5.7-1 1-1.3.9Zm-2.4 18.5c-.4-.5.3-2 .5-3.9s.1-3.5.6-3.8c.3-.2.7.1 1 .9a6.1 6.1 0 0 1 .4 3.2 6 6 0 0 1-1.3 3c-.5.6-1 .8-1.2.6Z"/>
  <path fill="#ffbf9d" d="M267.1 244.2c.2-.2 3.8-8.3-4.9-9.2s-7.7 8-7.5 8l12.4 1.2Z"/>
  <path fill="#ff9a6c" d="m258.3 240.7-.2-.5a1.5 1.5 0 0 1 .1-1c.4-1 2-1.6 3.5-1.5a5 5 0 0 1 2.1.7 1.8 1.8 0 0 1 1 1.2.8.8 0 0 1-.5.9h-.4s.1.2.5.2a1 1 0 0 0 .5-.3 1.1 1.1 0 0 0 .3-.8 2.1 2.1 0 0 0-1.1-1.7 5 5 0 0 0-2.4-.8c-1.7 0-3.5.6-4 1.8a1.6 1.6 0 0 0 .1 1.4l.5.4Z"/>
  <path fill="#263238" d="M289.4 283.8c.6 1.5 5.5-2.3 7.4-5.6 2.9-5 5-12.7 4.1-17.6-1-6-3.4-11-8.4-14.4a34.1 34.1 0 0 0-17-5.5 10.4 10.4 0 0 0-5.4.8c-2 1-3.5 3.2-6 2.8a3.6 3.6 0 0 0-2.8.7c-1.8 1.4-.4 3.5 1 4.5 3.3 2.2 7.3 2.8 11.1 3.4a25.5 25.5 0 0 0 8.3.2c1.5-.3 3-.8 4.4-1a5.2 5.2 0 0 1 4.3 1 5.9 5.9 0 0 1 .6.8 9 9 0 0 1 .9 9c-2.2 4.8-5.6 12.8-4.1 15.2 2 3.3 3.5 4.2 3.5 4.2Z"/>
  <path fill="#fff" d="M267.3 240a5.5 5.5 0 0 0-3.8-4.5h1a4.1 4.1 0 0 1 2 1.3 4.2 4.2 0 0 1 1 2.2c0 .6-.1 1-.2 1Z"/>
  <path fill="#ff9a6c" d="M251.5 266a2 2 0 0 0-2.4-1l.2-.2a2 2 0 0 0-2 1.3 2.3 2.3 0 0 0 .6 2.4 2.4 2.4 0 0 0 2.8.2 2.2 2.2 0 0 0 .8-2.6Z"/>
  <path fill="#263238" d="M251 268.3a1.9 1.9 0 0 0 .5-1.2 2.5 2.5 0 0 0-.3-1.4 2.2 2.2 0 0 0-1.5-.6 2.4 2.4 0 0 0-1.6.3 1.7 1.7 0 0 0-.8 1.1 2.2 2.2 0 0 0 .3 1.3s-.2 0-.3-.3a1.7 1.7 0 0 1-.4-1 2 2 0 0 1 .9-1.5 2.7 2.7 0 0 1 2-.5 2.5 2.5 0 0 1 1.8 1 2.5 2.5 0 0 1 .2 1.6 1.7 1.7 0 0 1-.4 1l-.4.2Z"/>
  <path fill="#fff" d="M300 258.3a23 23 0 0 0-20.4-16.3l-3.5-.1a4 4 0 0 0-1.8.2 1.4 1.4 0 0 0-.9 1.4c.1.7.9 1 1.6 1.2 4 1 8.2.8 12 2.2a15.6 15.6 0 0 1 10 18.7 4.7 4.7 0 0 0-.3 1.8 1.3 1.3 0 0 0 1 1.2 1.7 1.7 0 0 0 1.4-.8c2-2.7 1.8-6.4.8-9.6Z" opacity=".1"/>
  <path fill="#ff9a6c" d="m265 266.7-1.1-.2a3.8 3.8 0 0 1-2-4.6c.2-.7.5-1 .5-1l-.2 1a4 4 0 0 0 1.8 4.2l1 .6Zm-2.6 16.4a4.2 4.2 0 0 1 1-5s-.6 1-.9 2.4.1 2.6 0 2.6Z"/>
  <path fill="#263238" d="M171 316.3c.6-.2 43 1.9 56.8 3s37.6 7.8 38.7 24c1 13 .8 103.6.8 103.6h-37l-.9-95.8-57.4-14.5Z"/>
  <path d="M201.4 322.4s20.6 3.7 37 8.4 23.7 14.7 26.1 20.6 3.6 14.9-1.5 23.2c-3.1 5.3-19.1 23.9-19.1 23.9s-3.3-53.4-3.5-54.2-39-21.9-39-21.9Z" opacity=".3"/>
  <path fill="#263238" d="M262.7 357.5c-1.7-10.3-13.3-17.5-27.6-22.9-14-5.2-50.9-18.3-50.9-18.3l-8.8-2.2h-4l-1.2-3.9s-25-7.2-61.1 6.1l-1.2 1s-1.1 26.3 4 32c0 0 57.5-.8 60.5-.6s45.2 19.4 45.2 19.4l-36.1 55.4 29.8 20.9s18-25.7 29-41c15.8-22 24.5-33.8 22.4-46Z"/>
  <path fill="#455a64" d="m262.7 357.5.3 1.8a22 22 0 0 1-.2 5.4 32.8 32.8 0 0 1-2.6 8.3 83.2 83.2 0 0 1-5.8 10.3c-4.8 7.6-11.3 16.3-18.4 26.6l-24.5 34.6-.1.2-.2-.1-29.8-20.9-.2-.1v-.2l36.2-55.4v.4q-12-5.5-24.5-11a884 884 0 0 0-12.8-5.5c-2.1-.9-4.3-1.8-6.5-2.5a6.7 6.7 0 0 0-.8-.3 2.3 2.3 0 0 0-.8-.1h-5.3c-18.8.1-37.2.4-54.8.6h-.2a11 11 0 0 1-2-3.9 31.2 31.2 0 0 1-1-4 77 77 0 0 1-1-8.3c-.3-5.4-.3-10.8-.2-16v-.1l.1-.1 1.2-1a132.5 132.5 0 0 1 31.7-7.5 103.1 103.1 0 0 1 15.2-.5 71.6 71.6 0 0 1 14.6 1.8v.1l1.4 4-.2-.2h4l8.8 2.2 35.7 13 14.7 5.2a96.5 96.5 0 0 1 12 5.4c7 3.7 11.7 8.1 13.8 11.8a21.3 21.3 0 0 1 1.2 2.4 19 19 0 0 1 .6 2l.4 1.5-.4-1.6-.7-1.8-.5-1.2a9.7 9.7 0 0 0-.7-1.3 35 35 0 0 0-13.8-11.6 96.4 96.4 0 0 0-12-5.3l-14.6-5.2-35.8-13-8.8-2h-4v-.2l-1.4-4 .1.2a71.2 71.2 0 0 0-14.2-1.8 102.2 102.2 0 0 0-15.2.5 132 132 0 0 0-31.5 7.4l-1.2 1 .1-.1c-.2 5.2-.1 10.6.2 16a77.7 77.7 0 0 0 1 8.1 34.2 34.2 0 0 0 1 4 10.6 10.6 0 0 0 1.8 3.6h-.2c17.6-.3 36-.6 54.9-.7h5.3a2.8 2.8 0 0 1 .9.2 6 6 0 0 1 .9.2l6.5 2.6a748 748 0 0 1 12.7 5.5q12.6 5.5 24.6 11h.3l-.1.3-36.2 55.4v-.3l29.8 20.9h-.3l24.5-34.6c7.2-10.3 13.8-19 18.6-26.5A83.7 83.7 0 0 0 260 373a33 33 0 0 0 2.7-8.3 23 23 0 0 0 .2-5.3l-.2-1.8Z"/>
  <path fill="#455a64" d="M235.5 361.4a27 27 0 0 1-2.9.5 35.3 35.3 0 0 0-12.8 5.1l-2.5 1.6a10.7 10.7 0 0 1 2.3-1.9 28.8 28.8 0 0 1 6.2-3.4 29.4 29.4 0 0 1 6.8-1.7 12.2 12.2 0 0 1 3-.2Z"/>
  <path fill="#c53f3f" d="M229 270.4v3.1l-7.7.8-.5-1.7 2.1-4.8 6.1 2.6z"/>
  <path fill="#c53f3f" d="m223 272.9-10 20 2.2 35.8-5 7.8-5.3-9 .9-34.1 15.6-22 1.6 1.5z"/>
  <path fill="#e0e0e0" d="M226 239.5s-14-5.3-27.7-6.2-30.4 8.2-38.5 11.8-38.8 34-45.4 44.1c-3.8 5.9-8.9 19-8.9 19-.8 4.6 2.4 9.1 2.4 9.1l61.8.5h11.7l4.9-10.5s9.3-.7 12-5.8 12.5-12.7 12.5-12.7l11.2-18.5 7.4 1.5 4-31.4Z"/>
  <path fill="#263238" d="M180.1 253.6a4.9 4.9 0 0 1-.3 1l-.8 3a95.4 95.4 0 0 0-2.3 9.7 92 92 0 0 0-1.2 9.9l-.1 3a5.2 5.2 0 0 1-.1 1 4.3 4.3 0 0 1-.1-1v-3a69.8 69.8 0 0 1 1-10 72 72 0 0 1 2.4-9.8l1-2.8a4.9 4.9 0 0 1 .5-1Z"/>
  <path fill="#ffbf9d" d="m207.3 377 5.5 6.6a37 37 0 0 1 2.8 13.2 2 2 0 0 1-2.7 2.2 1.7 1.7 0 0 1-1-1.4c-1-4.1-1.2-5.9-1.2-5.9-.1-2-.4-1.7-.4-.3s1 8.8 1 8.8 2.8 10.2 2 11.3a1.9 1.9 0 0 1-2.8.1c-.4-.5-3.6-9-3.6-9l-.9-4.6s1.7 14.7.7 15.8a1.6 1.6 0 0 1-2.5.1c-.7-.5-1.3-7-1.3-7l-1.6-8.7.3 16.5s-.2 1.6-1.4 1.6-2-1.7-2-1.7l-1.8-17s.6 9.4 0 10c-.9.6-1.7.4-2-.4-.5-1.4-1.3-10-1.3-10l-.8-16.1-.6-5.4 14.2-5Z"/>
  <path d="M176.6 275.9a226.9 226.9 0 0 0-9.3 41.8 95.5 95.5 0 0 0 1.8 15.3c1.6 8 14.9 43.2 14.9 43.2l9 .8-7.6-62.4 7.7-29Z" opacity=".3"/>
  <path fill="#e0e0e0" d="M217.3 249.3c6.2 2 7.4 14.5 6 18.1a56.6 56.6 0 0 1-17.7 21.8l-9 35.4 12.7 48-20.4 7.4s-18.7-49.3-19-57 5.2-27.9 6-40c.5-7.6 4.4-23.3 14-32.6"/>
  <path fill="#263238" d="m189.9 250.4-.5.5-1.4 1.5a44 44 0 0 0-4.4 6.4 59 59 0 0 0-5 11.5 61.4 61.4 0 0 0-1.8 7.5l-.6 4.2-.4 4.5c-.8 6.1-2.1 12.8-3.5 20-.6 3.5-1.3 7.2-1.8 11a29.2 29.2 0 0 0-.3 5.8l.2 1.5.4 1.5.7 3c1.1 4 2.4 8 3.8 12l4.3 12.4L189 380l-.3-.2 9.5-3.4 11-3.9-.3.3-12.6-48v-.1l9-35.4h.4a.2.2 0 0 0-.2-.2h.2l.3-.2.5-.5 1.1-.8 2-1.8 3.7-3.7a60 60 0 0 0 6-7.5 32.7 32.7 0 0 0 3.9-7.4 18.6 18.6 0 0 0 .1-7c-.5-4.1-1.9-7.2-3.4-9a7.4 7.4 0 0 0-2.8-1.8s.3 0 .9.3a3.8 3.8 0 0 1 .9.5 5.7 5.7 0 0 1 1 1c1.6 1.7 3 4.8 3.7 9a25.3 25.3 0 0 1 .2 3.4 13.7 13.7 0 0 1-.4 3.7 32.4 32.4 0 0 1-3.8 7.5 60.4 60.4 0 0 1-6 7.5 72.8 72.8 0 0 1-3.8 3.7l-2 1.8-1 1-.6.4-.3.2h-.4a.2.2 0 0 1-.2-.2h.4l-8.9 35.5 12.7 48v.1l-.2.1-11 4-9.4 3.3-.3.1v-.2a1463.2 1463.2 0 0 1-13.9-38.6 261.5 261.5 0 0 1-4.5-15c0-.6-.2-1-.3-1.6l-.2-1.5a29 29 0 0 1 .3-6c.5-3.8 1.2-7.5 1.8-11 1.4-7.2 2.8-13.8 3.5-19.9l.5-4.5.6-4.2a61.1 61.1 0 0 1 2-7.6 57.4 57.4 0 0 1 5-11.4 40.8 40.8 0 0 1 4.5-6.4l1.9-2Z"/>
  <path fill="#263238" d="M223 257.5a11.6 11.6 0 0 1 0-2.7 62.4 62.4 0 0 1 .6-6.3 59.8 59.8 0 0 1 1.3-6.3 11 11 0 0 1 .8-2.6 16.3 16.3 0 0 1-.4 2.7 120.3 120.3 0 0 0-2 12.6 14.7 14.7 0 0 1-.3 2.6Z"/>
  <path d="M225.3 240.4c-.3-.1-.5.1-.6.3a18 18 0 0 0-3.1 5c-1.1 3.4 0 7 1 10.5a27.7 27.7 0 0 1 1 10l-.2 1.2a10.1 10.1 0 0 0 .9-6.9 68.2 68.2 0 0 1-1.2-6.9c-.3-4.3 1.5-8.4 2.3-12.6l-.1-.6Z" opacity=".3"/>
  <path fill="#e0e0e0" d="M149.1 334.3h6.4v45.6h-6.4z"/>
  <path fill="#455a64" d="M58 304.6a6 6 0 0 0 7.2 3.4 89.4 89.4 0 0 1 45.7-.5c21 5.3 28.7 16.6 31.6 23.7a9.3 9.3 0 0 0 8.6 5.8h.9a6 6 0 0 0 5.8-7.2c-2.1-10-15.3-27.1-38.9-33.5a98.4 98.4 0 0 0-57.1.3 6 6 0 0 0-3.8 8Z"/>
  <path fill="#263238" d="m58 304.6-.2-.6a6 6 0 0 1 .5-4.7 6 6 0 0 1 3-2.7 90.4 90.4 0 0 1 25.2-4.5 100.9 100.9 0 0 1 17.7 1l4.9.7 4.9 1 5 1.3 5 1.6c1.7.6 3.5 1.2 5.1 2l2.5 1.2 2.5 1.4a63.1 63.1 0 0 1 9.4 6.5 55.7 55.7 0 0 1 8.3 8.7l.9 1.2.8 1.2.9 1.3.7 1.4a28.4 28.4 0 0 1 2.5 5.7l.4 1.5a6.6 6.6 0 0 1 .1 1.6 6.2 6.2 0 0 1-6.3 5.8 10 10 0 0 1-5.9-1.5 9.5 9.5 0 0 1-3.7-4.6 30 30 0 0 0-2.7-5c-.5-1-1-1.7-1.6-2.4l-1.8-2.2a39.8 39.8 0 0 0-8.5-6.9 54.9 54.9 0 0 0-9.3-4.6 73.8 73.8 0 0 0-9.5-2.7 90.7 90.7 0 0 0-17.5-2.3 87.3 87.3 0 0 0-25.3 2.9 8.7 8.7 0 0 1-2.1.4 6 6 0 0 1-4.5-1.7 5.5 5.5 0 0 1-1.3-2 6.8 6.8 0 0 0 1.4 2 6 6 0 0 0 2.5 1.3 6.4 6.4 0 0 0 1.8.2 9.3 9.3 0 0 0 2.1-.4 85.5 85.5 0 0 1 25.5-3 89 89 0 0 1 17.6 2.2 75 75 0 0 1 9.5 2.7 54.8 54.8 0 0 1 9.4 4.6 40 40 0 0 1 8.6 7l1.8 2.2c.6.7 1.2 1.5 1.7 2.4a29.5 29.5 0 0 1 2.7 5.1 9 9 0 0 0 3.6 4.4 9.5 9.5 0 0 0 5.5 1.4 5.7 5.7 0 0 0 5.9-5.3 6 6 0 0 0-.1-1.5l-.4-1.5a28.1 28.1 0 0 0-2.5-5.6l-.7-1.3-.8-1.3-.9-1.2-1-1.2a55.6 55.6 0 0 0-8-8.6 62.6 62.6 0 0 0-9.4-6.5l-2.5-1.3c-.8-.5-1.6-.8-2.5-1.2-1.6-.8-3.3-1.4-5-2l-5-1.6-5-1.3-4.9-1-4.8-.8a102.2 102.2 0 0 0-17.6-1 91.8 91.8 0 0 0-25.2 4.4 5.7 5.7 0 0 0-3 2.5 5.8 5.8 0 0 0-.7 2.8 6.8 6.8 0 0 0 .3 2.4Z"/>
  <path fill="#fff" d="M68.5 302.1a4.8 4.8 0 1 1-4.8-4.8 4.8 4.8 0 0 1 4.8 4.8Z"/>
  <path fill="#455a64" d="M355 269.9h22.8l-1.8 12.5s-1.5 6.1-5 6.1h-9.9a10.6 10.6 0 0 1-4.8-6.7Z"/>
  <path fill="#263238" d="M355 269.9a2.8 2.8 0 0 1 0 .4l.2 1 .6 4.2.8 6.4a10.2 10.2 0 0 0 4.7 6.5h9.9a3 3 0 0 0 1.9-.8 9 9 0 0 0 2.3-3.6 15.9 15.9 0 0 0 .5-1.6l1.7-12.5.2.2-16.4-.1H355a1.7 1.7 0 0 1 .4 0h1.2l4.7-.1 16.5-.1h.2v.2l-1.7 12.5a14 14 0 0 1-.5 1.7 9.4 9.4 0 0 1-2.4 3.8 3.3 3.3 0 0 1-2.1.8h-10.1a10.5 10.5 0 0 1-4.8-6.7l-.7-6.5-.5-4.2-.1-1a2 2 0 0 1-.1-.5Z"/>
  <path fill="#455a64" d="M376 276.3h.3s.2 0 0 0h.1a6 6 0 0 1 .8 0c-.3 0 0 0 0 0h.5l.3.1c.1 0 0 0 0 0l.1.1a6.7 6.7 0 0 1 .7.4c0 .1 0 0 0 0v.1a3.7 3.7 0 0 1 .3.3s.2.3.1 0l.2.4.2.3c0 .1 0 0 0 0a1.4 1.4 0 0 1 0 .2 2.9 2.9 0 0 1 .2.4v.4a2.8 2.8 0 0 1 0 .4v.3s0 .2 0 0a2 2 0 0 1 0 .2 1.9 1.9 0 0 1-.1.3c0 .1-.2.4 0 .2a5.4 5.4 0 0 1-.4.7v.1s0-.2 0 0-.3.2-.4.3l-.2.1-.2.1-.3.2h-.1c.1 0 0 0 0 0l-.8.3c-.3.1 0 0 0 0h-1.1l-.5-.1s-.2-.1 0 0l-.1-.1a1.4 1.4 0 0 0-1.4 2.4 5.9 5.9 0 0 0 7.7-2.1 6.1 6.1 0 0 0 .6-4.4 5.6 5.6 0 0 0-2.5-3.5 6 6 0 0 0-4.7-.7 1.4 1.4 0 0 0 .8 2.7Z"/>
  <path fill="#263238" d="M376 276.3a.9.9 0 0 1-.5 0 1.4 1.4 0 0 1-1.1-.6 1.4 1.4 0 0 1 .5-2 3.9 3.9 0 0 1 1.3-.3 6 6 0 0 1 1.6 0 6 6 0 0 1 3 1.4 5.6 5.6 0 0 1 2 3.5 6.2 6.2 0 0 1-1 4.3 5.8 5.8 0 0 1-4 2.4 6.4 6.4 0 0 1-2.2 0 8.4 8.4 0 0 1-1-.4l-.5-.2a1.3 1.3 0 0 1-.5-.3 1.6 1.6 0 0 1 0-2 1.6 1.6 0 0 1 2-.4l-.2.2a.2.2 0 0 1 .1-.2h.2c0-.1.2.3 0 .3h-.2c-.2-.5.2-.3.1-.4l.2.1a4.3 4.3 0 0 0 .6.1s.2 0 .1.3-.1.1-.1.1h-.2l-.1-.2c0-.2.1-.1.2-.1h.4a5.4 5.4 0 0 0 .6 0v.3h-.2a.2.2 0 0 1-.1 0 .2.2 0 0 1 0-.2v-.1h.2l.3-.1h.5c-.1-.2 0 .3 0 .2h.1l-.2-.3.4-.2.2-.1a.3.3 0 0 1 .2 0 .2.2 0 0 1 0 .3.1.1 0 0 1-.2 0 .2.2 0 0 1-.1-.1v-.2a2.1 2.1 0 0 0 .3-.3l.2-.1h.2v.2h-.1l-.3-.2.5-.7.3.1h-.1a.1.1 0 0 1-.2-.1v-.1a1.5 1.5 0 0 0 0-.2l.2-.4v-.1a.1.1 0 0 1 .2 0v.1c.1.1-.4 0-.2 0a.3.3 0 0 1 0-.1v-.4a2.3 2.3 0 0 0 0-.4v-.1a.2.2 0 0 1 0-.1.1.1 0 0 1 .2 0v.2a.1.1 0 0 1-.2 0v-.2a5.6 5.6 0 0 0-.3-.7l.3-.1a.1.1 0 0 1-.1.2h-.1v-.1l-.2-.3-.2-.3.2-.2a.1.1 0 0 1 0 .2.1.1 0 0 1-.2 0h-.1a1.1 1.1 0 0 0-.2-.2l-.2-.3.1-.2c-.2.3 0 0 0 .2l-.2-.1-.3-.2a3 3 0 0 0-.4-.2v-.2h.1v.1h.4-.2l-.3-.1h-.4v-.2h.1v.1h-.9.2-.1a2 2 0 0 1-.4 0 1.3 1.3 0 0 1 .4 0h.8c0-.1-.1 0 0 0h.7l.2.1-.1.2h-.1v-.2a3.8 3.8 0 0 1 .6.3l.2.1.2.1h-.1v-.1a4 4 0 0 1 .4.3l.2.1v.1l.2-.2.2.4.1.2v.1a.1.1 0 0 0-.1 0h.2a5.3 5.3 0 0 1 .2.6v.2h-.1c-.1 0 0 0 0 0h-.1.1-.1v.5a1.8 1.8 0 0 1 0 .4s0 0-.1 0h-.2.2v.5a1 1 0 0 1-.1.2v.1l-.3-.1h.3l-.5.9-.3-.2h.3l-.1.3a3.2 3.2 0 0 1-.4.3v-.2h-.1a.1.1 0 0 0 0 .2h-.2l-.4.3-.2-.3h.2c.2 0 .2.4.1.3h-.2l-.3.1-.3.1h-.1v-.3.3a4 4 0 0 1-.6 0 1.6 1.6 0 0 1-.3 0s0-.1 0-.1v-.2.1c0 .1 0 0 0 0v.1a.2.2 0 0 1 0 .1 6 6 0 0 1-.6-.1h-.2v-.1a.7.7 0 0 0 0-.1c.1-.3 0-.2 0-.2h.1v.1l-.1.2a.2.2 0 0 0 .2-.1h-.3a1.3 1.3 0 0 0-1.5.3 1.3 1.3 0 0 0 0 1.6 2.4 2.4 0 0 0 .8.4 6 6 0 0 0 1 .3 5.8 5.8 0 0 0 2 0 5.4 5.4 0 0 0 3.7-2.2 5.8 5.8 0 0 0 1-4 5.3 5.3 0 0 0-1.7-3.3 5.8 5.8 0 0 0-3-1.4 5.2 5.2 0 0 0-2.7.2 1.4 1.4 0 0 0-.6.8 1.2 1.2 0 0 0 .1 1 1.4 1.4 0 0 0 1 .6 2.7 2.7 0 0 0 .4.7Zm-5.6-10.9a5.3 5.3 0 0 0 .7-.8 3.6 3.6 0 0 0 .4-2.8 3.1 3.1 0 0 0-1-1.6l-2-1.5a3.8 3.8 0 0 1-.8-1 2 2 0 0 1-.1-1.4 2.7 2.7 0 0 1 .7-1.3l1-1a3 3 0 0 0 .8-1 2.1 2.1 0 0 0 0-1.3 5.6 5.6 0 0 0-1.4-2.2 6.8 6.8 0 0 1-1.3-2 4.3 4.3 0 0 1-.2-2 4.5 4.5 0 0 1 1.4-2.7 3.7 3.7 0 0 1 .6-.5l.3-.1a9.6 9.6 0 0 0-.9.7 4.5 4.5 0 0 0-1.2 2.6 4.1 4.1 0 0 0 .2 2 6.7 6.7 0 0 0 1.4 1.8 5.7 5.7 0 0 1 1.4 2.3 2.4 2.4 0 0 1 0 1.5 3.3 3.3 0 0 1-.9 1.2c-.7.7-1.5 1.2-1.7 2a2.3 2.3 0 0 0 1 2.2c.5.6 1.2 1 1.8 1.5a3.6 3.6 0 0 1 .7.8 3.3 3.3 0 0 1 .4 1 3.6 3.6 0 0 1-.5 2.9 2.3 2.3 0 0 1-.8.7Zm-4.4 0a5.7 5.7 0 0 0 .7-.8 3.6 3.6 0 0 0 .4-2.8 3 3 0 0 0-1-1.6l-2-1.5a3.6 3.6 0 0 1-.7-1 2 2 0 0 1-.2-1.4 2.8 2.8 0 0 1 .7-1.3l1-1a3.1 3.1 0 0 0 .8-1 2 2 0 0 0 0-1.3 5.6 5.6 0 0 0-1.3-2.2 7 7 0 0 1-1.4-2 4.3 4.3 0 0 1-.2-2 4.4 4.4 0 0 1 1.4-2.7 3 3 0 0 1 .6-.5.9.9 0 0 1 .3-.1 9.6 9.6 0 0 0-.8.7 4.5 4.5 0 0 0-1.3 2.6 4 4 0 0 0 .2 2 6.7 6.7 0 0 0 1.4 1.8 5.9 5.9 0 0 1 1.4 2.3 2.4 2.4 0 0 1 0 1.5 3.4 3.4 0 0 1-.9 1.2c-.7.7-1.5 1.2-1.7 2a2.4 2.4 0 0 0 1 2.2c.5.6 1.2 1 1.8 1.5a3.6 3.6 0 0 1 .7.8 4 4 0 0 1 .4 1 3.7 3.7 0 0 1-.5 2.9 2.4 2.4 0 0 1-.8.7Zm30-58.4 2.1-1.8 28 33.5-2.2 1.8zm3.1-4.6 2.2-1.8 28 33.4-2.2 1.9z"/>
  <path fill="#263238" d="m425.2 238.5 2.4 1.5-28 44.4-2.4-1.6zm6.2 1.2 2.5 1.5-27.4 43.5-2.5-1.6z"/>
  <path fill="#263238" d="m427.7 234.4-4.3 6a3.7 3.7 0 0 0 .4 4.8 3.7 3.7 0 0 0 4.2.7l5.9-3a3.7 3.7 0 0 0 2-2.7v-.3a3.7 3.7 0 0 0-1.3-3.6l-3-2.4a2.7 2.7 0 0 0-3.9.5Z"/>
  <path fill="#455a64" d="m427.7 234.4.3-.3a2.5 2.5 0 0 1 1-.7 2.7 2.7 0 0 1 1.8 0 3.1 3.1 0 0 1 1 .6l1 .8 1.2.8a9 9 0 0 1 1.2 1 3.9 3.9 0 0 1 1 3.4 4 4 0 0 1-2.2 3.1l-3.6 1.8-1.8 1a5 5 0 0 1-2 .6 4 4 0 0 1-4-5 4 4 0 0 1 .7-1.3l.8-1.2 2.6-3.3a10.5 10.5 0 0 1 1-1.2 8.5 8.5 0 0 1-.8 1.3l-2.5 3.5a8.4 8.4 0 0 0-1.5 2.4 3.5 3.5 0 0 0 .6 3 3.5 3.5 0 0 0 3 1.3 4.5 4.5 0 0 0 1.9-.6l1.8-1 3.5-1.7a3.8 3.8 0 0 0 1.1-5.8 9.6 9.6 0 0 0-1.1-1l-1.1-.9-1-.8a3.1 3.1 0 0 0-1-.5 2.7 2.7 0 0 0-1.6 0 3.9 3.9 0 0 0-1.3.7Z"/>
  <path fill="#263238" d="M383.3 288.7s3.4-7.2 16.8-7.2h6.2s12 2.6 13.5 7.3Zm8.3-89.9 2.8 11a.7.7 0 0 0 1.1.2l8.3-8.5a.7.7 0 0 0-.4-1l-11-2.5a.7.7 0 0 0-.8.8Z"/>
  <path fill="#455a64" d="M391.6 198.8v-.3a.7.7 0 0 1 .5-.6 1.5 1.5 0 0 1 .6 0l.7.1 1.6.3 4.3 1 2.7.5 1.4.3a1 1 0 0 1 .8.5 1 1 0 0 1-.2 1l-3.7 3.8-4.6 4.7a1 1 0 0 1-1.5-.2l-.3-1.3-.6-2.4-1-4-.5-2.5a3.6 3.6 0 0 1-.2-1 5.2 5.2 0 0 1 .3 1l.7 2.5 1 3.9.7 2.3.3 1.3a.4.4 0 0 0 .8.1l4.5-4.7 3.7-3.8a.4.4 0 0 0-.3-.7l-1.4-.3-2.6-.6-4.4-1-1.6-.4-.7-.2a1.2 1.2 0 0 0-.5 0 .6.6 0 0 0-.5.4v.3Z"/>
  <path fill="#263238" d="M383.4 230.1a34 34 0 0 0 8.1-22.5l-10.3-9.9c-10-3.3-23.8 7.2-23.8 7.2s3.5 18.5 26 25.2Z"/>
  <path fill="#263238" d="m397 190.4.4.3a7.5 7.5 0 0 1 .3 10.7l-9.3 9.9-11.3-10.6 9.4-10a7.5 7.5 0 0 1 10.6-.3Z"/>
  <path fill="#455a64" d="M390.8 207.3a5.6 5.6 0 0 1-2.2-.4 12.6 12.6 0 0 1-4.6-2.6 12.8 12.8 0 0 1-3.2-4.3 5.7 5.7 0 0 1-.6-2 21.2 21.2 0 0 1 1 1.9 14.3 14.3 0 0 0 3.2 4 14.7 14.7 0 0 0 4.4 2.7l2 .7Zm40.5 30.7a1 1 0 1 1-1-1 1 1 0 0 1 1 1Zm-34.4-32.2a1 1 0 1 1-1-1 1 1 0 0 1 1 1Zm3.5-3.6a1 1 0 1 1-1-1 1 1 0 0 1 1 1Zm27.1 39.2a1 1 0 1 1-.9-1 1 1 0 0 1 1 1Z"/>
  <path fill="#e0e0e0" d="m390.7 305-.3 161.3H239.9V304.5h-9.6v170.8H400v-9l.3-161.3h-9.6z"/>
  <path fill="#263238" d="M390.7 305h9.6v170.5H230V304.2h10.2v162.2l-.3-.2h150.5l-.2.2.5-161.4v161.6h-151v-162l.3.3h-9.7l.3-.3v170.7l-.3-.3h169.8l-.2.3.4-170.4v.1Z"/>
  <path fill="#ae7461" d="M211.3 288.7h218v17.4h-218z"/>
  <path fill="#6f4439" d="m266 288.4-.6.2-1.5.3a157.2 157.2 0 0 0-14.2 4.3c-3.2 1-6.6 2.3-10.3 3.4a62.5 62.5 0 0 1-10.6 2.3 37.1 37.1 0 0 1-8.8.1 26.8 26.8 0 0 1-5.8-1.3 16.2 16.2 0 0 1-1.5-.6l-.5-.3.5.2 1.5.6a28.5 28.5 0 0 0 5.8 1.2 38.5 38.5 0 0 0 8.8-.1 64.4 64.4 0 0 0 10.6-2.4c3.7-1 7.1-2.3 10.3-3.4l8.4-2.8a59.1 59.1 0 0 1 5.8-1.4l1.6-.2h.5Zm111.2 16.1a2.3 2.3 0 0 1-.2-.2 9 9 0 0 0-.6-.8 12.4 12.4 0 0 0-3-2.1 16.4 16.4 0 0 0-5.4-1.9 23.4 23.4 0 0 0-7.6.2 78.4 78.4 0 0 0-9 2.3 48.4 48.4 0 0 1-10.4 2.2 21 21 0 0 1-5.8-.4 28.3 28.3 0 0 1-5.7-1.9c-3.7-1.6-7.3-3.9-11.3-5.5a48 48 0 0 0-24-2.5A84.3 84.3 0 0 0 275 299c-5.3 2-9.5 4-12.4 5.3l-3.3 1.5-1.2.5 1.2-.6 3.3-1.6c2.9-1.3 7-3.2 12.3-5.3a83 83 0 0 1 19.3-5.2c7.4-1 16-.7 24 2.5 4 1.7 7.7 4 11.4 5.6a28.2 28.2 0 0 0 5.7 1.9 20.3 20.3 0 0 0 5.7.4 49.2 49.2 0 0 0 10.4-2.2 77.8 77.8 0 0 1 9-2.3 23.4 23.4 0 0 1 7.6-.1 16.5 16.5 0 0 1 5.5 1.9 12.2 12.2 0 0 1 2.9 2.2 8.5 8.5 0 0 1 .8 1Zm50.9-10.4a48.3 48.3 0 0 1-7 2.2 43 43 0 0 1-8 1.3 60.7 60.7 0 0 1-19.6-1.5l-4.2-1.1a89 89 0 0 1-3.5-1.3 47.4 47.4 0 0 1-6.7-3.2 2.8 2.8 0 0 1 .4.2l1.4.7 2 1c.8.4 1.9.8 3 1.1l3.5 1.2 4.1 1.2a62 62 0 0 0 19.5 1.4c1.5-.2 3-.3 4.3-.6l3.6-.6 3-.8 2.3-.6 1.4-.4a2.8 2.8 0 0 1 .5-.2Z"/>
  <rect width="71.4" height="4.7" x="234.1" y="284.4" fill="#455a64" rx="2.3"/>
  <path fill="#455a64" d="m322.3 227-16.7 60.1a2.5 2.5 0 0 1-3 1.7 2.5 2.5 0 0 1-1.7-3l16.7-60.1a2.4 2.4 0 0 1 3-1.7 2.5 2.5 0 0 1 1.7 3Z"/>
  <path fill="#263238" d="M308.7 231.7a286.4 286.4 0 0 1-20.5-19.9c.2-.1 4.7 4.2 10.4 9.7s10.2 10 10 10.2Zm-2.3 7.1a11.3 11.3 0 0 1-1.7-.6l-4.4-1.9-14.8-6-15-5.6-4.5-1.7a11 11 0 0 1-1.6-.7 10 10 0 0 1 1.7.5l4.6 1.5a351.8 351.8 0 0 1 29.7 11.7l4.4 2a13.2 13.2 0 0 1 1.6.8Zm-.9 7.2a15.8 15.8 0 0 1-4.1 0 16.4 16.4 0 0 1-4.1-.3 32.6 32.6 0 0 1 8.2.3Zm121.7 200.8s-4.1-28.6-3.8-45.2 0-35.3 0-35.3h2s-1.4 33 0 52.9 5.2 27.6 5.2 27.6h-3.4"/>
  <path fill="#455a64" d="M439.6 334.1a5 5 0 0 0-1.7-2.5c-1.2-.8-2.8-.5-4.2 0-5.8 2-11 12.8-13.3 18.5l7.7 25.9c13.9-12.9 16.3-29.8 11.5-41.9Z"/>
  <path fill="#263238" d="M437.4 332.6a1.4 1.4 0 0 1-.1.3c0 .3-.2.6-.4 1a151 151 0 0 0-5.2 15.1 131 131 0 0 0-3.3 15.7l-.2 1a1.5 1.5 0 0 1 0 .4 1.8 1.8 0 0 1 0-.4v-1l.5-3.7a110.3 110.3 0 0 1 2.7-12 109 109 0 0 1 4-11.7c.6-1.5 1-2.6 1.5-3.4l.4-1a1.2 1.2 0 0 1 .1-.3Z"/>
  <path fill="#455a64" d="M424.7 382.2a23.4 23.4 0 0 1-11.8-19.7 43 43 0 0 1 3.4-16.8 2.1 2.1 0 0 1 .9-1.2 2 2 0 0 1 2 .3c5.2 3 8.4 8.7 10 14.5a29 29 0 0 1 1.2 11.9 19.8 19.8 0 0 1-5.7 11"/>
  <path fill="#263238" d="M424.7 382.2a1.6 1.6 0 0 1 0-.3v-1l-.1-3.7a99.2 99.2 0 0 0-1.3-12 178 178 0 0 0-2.5-11.8l-.9-3.6-.2-1a1.4 1.4 0 0 1 0-.3 1.4 1.4 0 0 1 0 .3l.3 1 1 3.6c.8 3 1.8 7.1 2.6 11.8a89.9 89.9 0 0 1 1.2 12v4.6a1.6 1.6 0 0 1 0 .4Z"/>
  <path d="M424.7 382.2a23.4 23.4 0 0 1-11.8-19.7 43 43 0 0 1 3.4-16.8 2.1 2.1 0 0 1 .9-1.2 2 2 0 0 1 2 .3c5.2 3 8.4 8.7 10 14.5a29 29 0 0 1 1.2 11.9 19.8 19.8 0 0 1-5.7 11" opacity=".3"/>
  <path fill="#455a64" d="M432.8 426c7.1 1.6 13 6.6 19.8 9 4.5 1.6 9.6 2.2 13.3 5.3-.9-2.2-3-3.6-5-4.9a88 88 0 0 0-17.9-8.6c-3.2-1-6.7-2-10-1m-10.4 6.5c-8.9-.2-18.3-7.7-27-8.2 9.2-3 22.4-.5 27 8.2M426 411a29 29 0 0 1 14.3-1 85.8 85.8 0 0 1 13.8 3.8c-.5-3.1-3-5.4-5.3-7.5a36.4 36.4 0 0 0-5.6-4.3 12.4 12.4 0 0 0-6.6-1.8 10.5 10.5 0 0 0-7.4 3.7 12.3 12.3 0 0 0-3.2 7m-18.2-9.7c-5.6-4.8-14-4.3-21.4-4.2a173.8 173.8 0 0 1 33.2 20.7c.3-5.2-4.7-10.5-11.8-16.5Z"/>
  <path d="M407.8 401.2c-5.6-4.8-14-4.3-21.4-4.2a173.8 173.8 0 0 1 33.2 20.7c.3-5.2-4.7-10.5-11.8-16.5Z" opacity=".3"/>
  <path fill="#455a64" d="M428.6 394.6a63 63 0 0 1 8.6-5c3-1.4 5.6-3.5 8.5-5 3.7-2 6.9-4.8 10.2-7.3s7.1-4.7 11.3-5.3a22 22 0 0 0-10.2.6 65.8 65.8 0 0 0-9.7 3.7c-4.3 2-8.8 4-12.3 7.2s-6.8 6.3-6.4 11"/>
  <path fill="#263238" d="m452.4 432.3-.2-.2-.8-.4-2.8-1.4a93 93 0 0 0-4.4-2.1 33.4 33.4 0 0 0-5.4-2 11.7 11.7 0 0 0-5.7 0 16.9 16.9 0 0 0-2.4.7 12.1 12.1 0 0 0-2 1 12.3 12.3 0 0 0-2.4 2l-.8.8a1 1 0 0 1 .1-.2 6.8 6.8 0 0 1 .6-.7 11.8 11.8 0 0 1 2.4-2.2 12.5 12.5 0 0 1 2-1 16.8 16.8 0 0 1 2.4-.8 11.8 11.8 0 0 1 5.9.2 32 32 0 0 1 5.5 1.9l2.3 1 2 1 2.8 1.7.7.4.2.3Zm-36.4-4.4a2 2 0 0 1 .6.1 11.8 11.8 0 0 1 1.4.7 17.4 17.4 0 0 1 4.3 3 17.2 17.2 0 0 1 3.1 4 13.2 13.2 0 0 1 .7 1.5 2 2 0 0 1 .2.5l-1-1.8a19.6 19.6 0 0 0-7.4-7l-1.9-1Zm-19.7-27.2a1.8 1.8 0 0 1 .4.1l1 .4 1.7.6 2.2 1a51.3 51.3 0 0 1 11.6 7.4 54.4 54.4 0 0 1 5.4 5.3 58.7 58.7 0 0 1 3.8 4.8l2.3 3.5.6 1a1.4 1.4 0 0 1 .2.3 1.9 1.9 0 0 1-.3-.3l-.6-.9-2.4-3.4a72 72 0 0 0-3.9-4.8 57.5 57.5 0 0 0-5.3-5.2 54.2 54.2 0 0 0-11.5-7.5l-2.1-1-1.7-.7-1-.4a2 2 0 0 1-.4-.2Zm43.1 5.3a3 3 0 0 1-.7 0l-.8-.2-1.1-.1a11.1 11.1 0 0 0-6.1 1.2 11.3 11.3 0 0 0-2.8 2 13 13 0 0 0-1.8 2.2 17.5 17.5 0 0 0-1.2 2.4 2.3 2.3 0 0 1 .2-.7 9.3 9.3 0 0 1 .8-1.8 11.3 11.3 0 0 1 1.8-2.3 10.6 10.6 0 0 1 2.8-2.1 10.9 10.9 0 0 1 6.3-1.2l1 .2.9.2a3.8 3.8 0 0 1 .7.2Zm8.9-27.7a1.3 1.3 0 0 1-.3.2l-1 .5a155.6 155.6 0 0 0-8.8 5.4 43 43 0 0 0-5.7 4.8 14.3 14.3 0 0 0-2.4 3l-1.6 3.2a58.9 58.9 0 0 0-2.5 5.6 34.6 34.6 0 0 0-1.2 4 15 15 0 0 1-.3 1.5 2.9 2.9 0 0 1 0-.4l.1-1.1a31.1 31.1 0 0 1 1.2-4 53.5 53.5 0 0 1 2.4-5.7l1.6-3.3a14.7 14.7 0 0 1 2.4-3 41.3 41.3 0 0 1 5.8-4.9 68.5 68.5 0 0 1 8.9-5.3l1-.4Zm-24.9 26.9a3.5 3.5 0 0 1-.2-.8l-.4-2a52.4 52.4 0 0 0-4.2-13l-.8-2a3.2 3.2 0 0 1-.3-.7 3.9 3.9 0 0 1 .4.7l1 1.8a47.7 47.7 0 0 1 2.6 6.4 46 46 0 0 1 1.6 6.7l.3 2.1a4 4 0 0 1 0 .8Z"/>
  <path fill="#455a64" d="M422.8 385a24 24 0 0 0-3-9.6 31.6 31.6 0 0 0-21.4-16l19.9 29.6 2.5 5.3a15.3 15.3 0 0 0 2-9.3Z"/>
  <path fill="#c53f3f" d="M400.2 436.6h55.9v9.9h-55.9z"/>
  <path fill="#c53f3f" d="m404.4 444.5 7.5 30.8h34.4l5.7-30.8h-47.6z"/>
  <path fill="#263238" d="M456.1 446.5s-12.6.2-28.1.2-28.2-.1-28.2-.2 12.6-.2 28.2-.2 28.1 0 28.1.2Z"/>
</svg>
