<svg xmlns="http://www.w3.org/2000/svg" xml:space="preserve" viewBox="0 0 24 24">
  <g fill="#11892b">
    <path d="M10 2a4.5 4.5 0 1 0 0 9 4.5 4.5 0 0 0 0-9zm.5 11.2c.3-.4 0-1-.4-1H8.9A6.7 6.7 0 0 0 2.2 19 2.7 2.7 0 0 0 5 21.7h5.3c.4 0 .7-.6.4-1A6.6 6.6 0 0 1 9.4 17c0-1.4.4-2.7 1.1-3.7z"/>
    <path fill-rule="evenodd" d="M21 17a5 5 0 1 1-10 0 5 5 0 0 1 10 0zm-2-2a.8.8 0 0 1 0 1l-2.5 3a1.3 1.3 0 0 1-1.9 0l-1.4-1.4a.8.8 0 1 1 1-1l1 .8a.5.5 0 0 0 .7 0l2-2.3a.8.8 0 0 1 1-.1z" clip-rule="evenodd"/>
  </g>
</svg>