<svg xmlns="http://www.w3.org/2000/svg" viewBox="0 0 750 500">
  <path fill="#ebebeb" d="M628.3 152a9.7 9.7 0 1 1-9.7-9.7 9.7 9.7 0 0 1 9.6 9.6Zm-28.2 0a10.3 10.3 0 1 1-10.3-10.4 10.3 10.3 0 0 1 10.3 10.3Z"/>
  <circle cx="567.7" cy="133.7" r="10.9" fill="#ebebeb"/>
  <circle cx="563.2" cy="105.6" r="11.4" fill="#ebebeb" transform="rotate(-45 563.2 105.6)"/>
  <circle cx="577.2" cy="81" r="11.8" fill="#ebebeb"/>
  <circle cx="604.1" cy="71.3" r="12.9" fill="#ebebeb"/>
  <circle cx="639.9" cy="133.4" r="9.4" fill="#ebebeb" transform="rotate(-80 640 133.4)"/>
  <path fill="#ebebeb" d="M653.6 105.3a8.7 8.7 0 1 1-8.7-8.7 8.7 8.7 0 0 1 8.7 8.7Z"/>
  <circle cx="630.5" cy="80.7" r="7.9" fill="#ebebeb" transform="rotate(-81 630.5 80.7)"/>
  <path fill="none" d="M156.3 228a27.6 27.6 0 0 1 7.2 1.8l5.3-4.4 9.1 7-2.8 6.2a27.9 27.9 0 0 1 3.7 6.5l7 .6 1.4 11.4-6.4 2.4a28.5 28.5 0 0 1-2 7.2l4.5 5.3-7 9.1-6.2-2.8a28.4 28.4 0 0 1-6.5 3.7l-.6 7-11.4 1.5-2.4-6.5a27.6 27.6 0 0 1-7.2-2l-5.3 4.5-9.1-6.9 2.8-6.3a28.3 28.3 0 0 1-3.7-6.5l-7-.6-1.5-11.3 6.5-2.5a27.7 27.7 0 0 1 2-7.2l-4.5-5.3 7-9.1 6.2 2.9a28.4 28.4 0 0 1 6.5-3.8l.6-6.9 11.3-1.5 2.5 6.5Zm-4.7 15.7a12.3 12.3 0 1 0 13.8 10.5 12.3 12.3 0 0 0-13.8-10.5Z"/>
  <path fill="#e0e0e0" d="M151.6 243.7a9 9 0 0 1 3-.1 12.2 12.2 0 0 1 7.5 3.4 12.4 12.4 0 0 1 3 5 12.6 12.6 0 0 1 .4 6.6 12.6 12.6 0 0 1-3.5 6.4 12.6 12.6 0 0 1-14.8 2 12.5 12.5 0 0 1-5.1-5.2 12.5 12.5 0 0 1-1.4-6.5 12.4 12.4 0 0 1 1.6-5.6 12.3 12.3 0 0 1 6.3-5.3 9.3 9.3 0 0 1 3-.7 27 27 0 0 0-2.9 1 12.3 12.3 0 0 0-6 5.3 12 12 0 0 0 0 11.5 11.5 11.5 0 0 0 2 2.7 11.3 11.3 0 0 0 2.8 2.2 12 12 0 0 0 14-1.9 11.3 11.3 0 0 0 2.2-2.9 11.4 11.4 0 0 0 1.2-3.2 12.2 12.2 0 0 0-.3-6.3 12 12 0 0 0-2.9-4.7 12.3 12.3 0 0 0-7.1-3.6 29.2 29.2 0 0 0-3 0Z"/>
  <path fill="#e0e0e0" d="M156.3 228a2 2 0 0 1-.2-.5l-.5-1.2-1.9-4.8h.2l-11.4 1.7.2-.2-.6 7h-.1a27.6 27.6 0 0 0-6.4 3.8l-.1.1h-.1L129 231h.3l-7 9v-.3l4.6 5.3v.3a28 28 0 0 0-1.9 7.2v.1l-.1.1-6.5 2.4.2-.3 1.5 11.4-.3-.3 7 .6h.1l.1.2a28 28 0 0 0 3.7 6.3l.2.2-.1.2-2.9 6.3-.1-.4 9.1 7h-.4l5.3-4.5.1-.2.2.1a27.5 27.5 0 0 0 7.2 1.9l.3.2v.4l.2.4.3.8.6 1.6 1.2 3.3-.4-.3 11.5-1.4-.3.3.6-6.9v-.2h.2a27.9 27.9 0 0 0 6.4-3.8l.1-.1h.2l6.3 3h-.4l7-9v.3l-4.4-5.3-.1-.1v-.2a27.6 27.6 0 0 0 2-7.1v-.2l.1-.1 6.5-2.4-.2.3-1.5-11.4.2.3-6.9-.6h-.1v-.2a28.2 28.2 0 0 0-3.8-6.4v-.2l2.9-6.3v.2l-9-7h.1l-5.3 4.4h-.1a28.4 28.4 0 0 0-5.4-1.6l-1.3-.3h-.5a2.6 2.6 0 0 1 .5 0l1.3.1a27 27 0 0 1 5.5 1.6h-.1l5.2-4.5h.2l9.2 6.9.1.1v.2l-2.9 6.3v-.3a28.7 28.7 0 0 1 3.8 6.5l-.2-.1 7 .6h.1v.2l1.6 11.3v.3h-.2l-6.5 2.5.2-.3a28.4 28.4 0 0 1-2 7.3v-.3l4.5 5.3.1.2-.1.2-7 9.2-.1.2-.3-.1-6.3-3h.4a28.9 28.9 0 0 1-6.6 3.9l.3-.3-.6 7v.2h-.3l-11.4 1.5h-.3v-.2l-1.3-3.3-.6-1.6-.3-.8-.1-.4-.1-.2v-.1l.3.1a28.5 28.5 0 0 1-7.3-1.9h.3l-5.3 4.4-.2.2-.2-.2-9.1-7h-.3l.2-.3 2.8-6.3v.3a28.4 28.4 0 0 1-3.8-6.5l.3.2-6.9-.6h-.3v-.3l-1.5-11.4v-.2l.2-.1 6.5-2.4-.2.2a28.5 28.5 0 0 1 2-7.3v.3l-4.5-5.2-.1-.2v-.2l7-9 .2-.2h.2l6.3 3h-.2a28.2 28.2 0 0 1 6.5-3.8l-.2.1.7-6.9v-.1h.1l11.4-1.5v.1l1.8 4.8.5 1.3a4.1 4.1 0 0 1 0 .4Z"/>
  <path fill="#e0e0e0" fill-rule="evenodd" d="M114.7 305.3A40 40 0 0 1 125 308l7.5-6.3 13 9.8-4.1 9a39.5 39.5 0 0 1 5.3 9l9.7 1 2.2 16-9.2 3.4a39.2 39.2 0 0 1-2.7 10.2l6.3 7.5-9.8 13-8.9-4.1a39.3 39.3 0 0 1-9.1 5.3l-.9 9.7-16 2.2-3.5-9.2a40.2 40.2 0 0 1-10.2-2.7l-7.5 6.3-12.9-9.8 4-8.9a40 40 0 0 1-5.2-9.1l-9.8-.9-2.2-16 9.2-3.5a39.4 39.4 0 0 1 2.7-10.2l-6.3-7.5 9.8-12.9 9 4a40.3 40.3 0 0 1 9-5.2l1-9.8 16-2.2 3.4 9.2Zm-6.6 22.3a17.4 17.4 0 1 0 19.6 14.9 17.4 17.4 0 0 0-19.6-14.9Z"/>
  <path fill="#ebebeb" fill-rule="evenodd" d="M478 96.5a27.5 27.5 0 0 1 7 1.8l5.1-4.3 8.8 6.7-2.7 6.1a27.2 27.2 0 0 1 3.6 6.3l6.7.6 1.5 11-6.3 2.3a26.7 26.7 0 0 1-1.9 7l4.3 5.1-6.7 8.9-6-2.8a27.2 27.2 0 0 1-6.3 3.7l-.6 6.6-11 1.5-2.4-6.2a27 27 0 0 1-7-1.9l-5.1 4.3-8.8-6.7 2.7-6.1a27 27 0 0 1-3.6-6.3l-6.7-.5-1.5-11 6.3-2.4a26.7 26.7 0 0 1 1.9-7L445 108l6.7-8.8 6.1 2.7a27.2 27.2 0 0 1 6.2-3.6l.6-6.6 11-1.5 2.4 6.3Zm-4.5 15.2a11.9 11.9 0 1 0 13.4 10.2 11.9 11.9 0 0 0-13.4-10.2Z"/>
  <path fill="#f5f5f5" fill-rule="evenodd" d="M210.6 319a32.2 32.2 0 0 1 8.1 2.1l6-5L235 324l-3.2 7a31.9 31.9 0 0 1 4.2 7.3l7.8.6 1.7 12.8-7.3 2.7a31.4 31.4 0 0 1-2.1 8.1l5 6-7.8 10.2-7.1-3.2a31.6 31.6 0 0 1-7.2 4.2l-.7 7.8-12.8 1.7-2.7-7.3a31.4 31.4 0 0 1-8.1-2.1l-6 5-10.2-7.8 3.2-7a31.6 31.6 0 0 1-4.2-7.3l-7.7-.7-1.8-12.7 7.3-2.8a31.3 31.3 0 0 1 2.2-8l-5-6 7.7-10.3 7.1 3.2a31.7 31.7 0 0 1 7.3-4.2l.6-7.8 12.8-1.7 2.7 7.3Zm-5.2 17.7a13.8 13.8 0 1 0 15.5 11.8 13.8 13.8 0 0 0-15.5-11.8Z"/>
  <rect width="391.4" height="197.9" x="152.9" y="125.5" fill="#fafafa" rx="10.5"/>
  <path fill="#263238" d="M533.8 323.4h.8a10.4 10.4 0 0 0 2.2-.5 10.6 10.6 0 0 0 3.2-1.6 10.3 10.3 0 0 0 3.2-3.9 9.7 9.7 0 0 0 1-2.9 20.7 20.7 0 0 0 0-3.4V139.3a35 35 0 0 0-.2-5.2 10.3 10.3 0 0 0-2.1-4.6 10.3 10.3 0 0 0-6.7-3.7 19.4 19.4 0 0 0-2.6-.1H163.5a10.4 10.4 0 0 0-6.7 2.5 10.2 10.2 0 0 0-3.5 6.2 26.4 26.4 0 0 0-.1 3.7v174.2a10.5 10.5 0 0 0 1.7 6.2 10.3 10.3 0 0 0 5 4c2 .8 4.2.6 6.4.6H364l124.3.2h45.5-45.6l-124.3.1H163a9.9 9.9 0 0 1-3.3-.6 10.8 10.8 0 0 1-5.2-4.2 11 11 0 0 1-1.8-6.4v-174a28 28 0 0 1 .1-3.8 10.7 10.7 0 0 1 3.6-6.6 10.9 10.9 0 0 1 7.1-2.6h369.1a18.9 18.9 0 0 1 2.7.1 10.8 10.8 0 0 1 2.6.7 11 11 0 0 1 4.3 3.2 10.8 10.8 0 0 1 2.2 4.8 13.7 13.7 0 0 1 .2 2.6v22.8l-.1 124.3v27.4a20 20 0 0 1-.2 3.4 9.5 9.5 0 0 1-.9 2.9 10.4 10.4 0 0 1-3.2 3.9 10.7 10.7 0 0 1-3.3 1.6 11 11 0 0 1-2.2.4Z"/>
  <path fill="#263238" d="M505.1 160.7a44.2 44.2 0 0 1 4.7-5 46.1 46.1 0 0 1 5-4.7 45 45 0 0 1-4.7 5 45.4 45.4 0 0 1-5 4.7Z"/>
  <path fill="#263238" d="M514.8 160.7a46.3 46.3 0 0 1-5-4.7 43.7 43.7 0 0 1-4.7-5 47 47 0 0 1 5 4.6 46.3 46.3 0 0 1 4.7 5.1Z"/>
  <path fill="#263238" d="M522.1 155.6a26.7 26.7 0 0 0-.5-3 12.2 12.2 0 0 0-4.4-6.6 12 12 0 0 0-11.3-1.7 12 12 0 0 0-5.6 4.2 11.9 11.9 0 0 0 0 14 11.8 11.8 0 0 0 5.6 4.2 12 12 0 0 0 11.3-1.6 12.2 12.2 0 0 0 4.4-6.6 27.2 27.2 0 0 0 .5-3 9.9 9.9 0 0 1 0 1.8 9 9 0 0 1-.3 1.2 12.1 12.1 0 0 1-4.4 6.9 12.2 12.2 0 0 1-11.7 1.8 11.3 11.3 0 0 1-3.1-1.7 11.5 11.5 0 0 1-2.7-2.6 12.3 12.3 0 0 1 0-14.7 12.4 12.4 0 0 1 5.8-4.3 12.4 12.4 0 0 1 6.5-.5 12.2 12.2 0 0 1 5.2 2.3 12 12 0 0 1 4.4 6.8 9 9 0 0 1 .3 1.3 5.7 5.7 0 0 1 0 1 5.8 5.8 0 0 1 0 .8ZM195 289.6a2.4 2.4 0 0 1-2.4-2.4V282a2.4 2.4 0 1 1 4.8 0v5.3a2.4 2.4 0 0 1-2.4 2.3Zm0-9a1.4 1.4 0 0 0-1.4 1.4v5.2a1.4 1.4 0 0 0 2.8 0V282a1.4 1.4 0 0 0-1.4-1.4Z"/>
  <path fill="#263238" d="M195 292.1a5.5 5.5 0 0 1-5.5-5.5.5.5 0 0 1 .5-.5.5.5 0 0 1 .5.5 4.5 4.5 0 0 0 9 0 .5.5 0 0 1 1 0 5.5 5.5 0 0 1-5.5 5.5Z"/>
  <path fill="#263238" d="M195 295.2a.5.5 0 0 1-.5-.5v-3a.5.5 0 0 1 .5-.5.5.5 0 0 1 .5.5v3a.5.5 0 0 1-.5.5Zm54.3-.2H235a.5.5 0 0 1-.5-.5v-14.3a.5.5 0 0 1 .5-.5h14.3a.5.5 0 0 1 .5.5v14.3a.5.5 0 0 1-.5.5Zm-13.8-1h13.3v-13.3h-13.3Z"/>
  <path fill="#263238" d="M247.3 292a.5.5 0 0 1-.3-.1l-2.9-3.5-2 2.4a.5.5 0 0 1-.3.2.5.5 0 0 1-.4-.1l-1.7-1.6a71 71 0 0 0-2.1 2.5.5.5 0 0 1-1-.2c0-.3 0-.3 2.7-3.4a.5.5 0 0 1 .4-.1.5.5 0 0 1 .3.1l1.7 1.5 2-2.5a.5.5 0 0 1 .8 0l3.2 4a.5.5 0 0 1 0 .7.5.5 0 0 1-.3.2Zm-6-4.6a1.6 1.6 0 1 1 1.6-1.6 1.6 1.6 0 0 1-1.6 1.6Zm0-2.1a.6.6 0 1 0 .6.5.6.6 0 0 0-.6-.5Zm55.7 9h-14a.5.5 0 0 1-.6-.5v-10.5a.5.5 0 0 1 .5-.5h3.1l1.4-1.5a.5.5 0 0 1 .4-.1h4.3a.5.5 0 0 1 .3.1l1.5 1.5h3.2a.5.5 0 0 1 .5.5v10.5a.5.5 0 0 1-.5.5Zm-13.6-1h13.2v-9.5h-3a.5.5 0 0 1-.3-.2l-1.4-1.4H288l-1.4 1.4a.5.5 0 0 1-.4.2h-2.8Z"/>
  <path fill="#263238" d="M290 292.2a3.6 3.6 0 1 1 3.6-3.6 3.7 3.7 0 0 1-3.6 3.6Zm0-6.2a2.6 2.6 0 1 0 2.6 2.6 2.6 2.6 0 0 0-2.6-2.6Zm43.6 1.4a2 2 0 1 1-2-2 2 2 0 0 1 2 2Zm5.8 0a2 2 0 1 1-2-2 2 2 0 0 1 2 2Zm5.8 0a2 2 0 1 1-2-2 2 2 0 0 1 2 2Zm171.1-27.2c0 .1-75.1.2-167.7.2s-167.6-.1-167.6-.2 75-.3 167.6-.3 167.6.1 167.6.3Z"/>
  <path fill="#e0e0e0" d="m199.5 229.6-3.5 10.7h-1.6l-2.9-8.6-3 8.6H187l-3.6-10.7h1.6l2.8 8.7 3-8.7h1.4l3 8.7 3-8.7Zm9.5 6v4.7h-1.4v-4.5c0-1.6-.8-2.4-2.2-2.4a2.4 2.4 0 0 0-2.6 2.7v4.2h-1.4V229h1.4v4.4a3.5 3.5 0 0 1 2.9-1.3c2 0 3.4 1.1 3.4 3.5Zm9.2-.2v4.8h-1.4v-1a3 3 0 0 1-2.7 1.1c-1.8 0-3-1-3-2.3s.9-2.4 3.3-2.4h2.3v-.3c0-1.2-.7-2-2.2-2a4 4 0 0 0-2.5 1l-.6-1.2a5.4 5.4 0 0 1 3.3-1c2.2 0 3.5 1 3.5 3.3Zm-1.5 2.4v-1.2h-2.3c-1.4 0-1.8.6-1.8 1.3s.6 1.3 1.8 1.3a2.3 2.3 0 0 0 2.3-1.4Zm8.7 2a2.7 2.7 0 0 1-1.8.5 2.3 2.3 0 0 1-2.5-2.5v-4.4h-1.4v-1.2h1.4v-1.8h1.4v1.8h2.4v1.2h-2.4v4.3a1.2 1.2 0 0 0 1.3 1.4 1.8 1.8 0 0 0 1.1-.4Zm5.9-10.8h1.8l-2.5 2h-1.4Zm4 10.4.6-1.2a5.3 5.3 0 0 0 2.8.9c1.4 0 2-.4 2-1.1 0-1.8-5.2-.3-5.2-3.5 0-1.4 1.3-2.4 3.4-2.4a5.8 5.8 0 0 1 3 .7l-.7 1.2a4.2 4.2 0 0 0-2.3-.7c-1.3 0-2 .5-2 1.2 0 1.9 5.2.3 5.2 3.5 0 1.4-1.3 2.3-3.5 2.3a5.8 5.8 0 0 1-3.3-1Zm12-3.2a4.2 4.2 0 1 1 4.2 4.1 4 4 0 0 1-4.2-4Zm6.9 0a2.7 2.7 0 1 0-5.5 0 2.7 2.7 0 1 0 5.5 0Zm11.1-.6v4.7H264v-4.5c0-1.6-.8-2.4-2.2-2.4a2.4 2.4 0 0 0-2.6 2.7v4.2h-1.4v-8.1h1.4v1.2a3.5 3.5 0 0 1 2.9-1.3c2 0 3.3 1.1 3.3 3.5Zm14-3.4-4 8.9c-.7 1.7-1.6 2.2-2.8 2.2a3 3 0 0 1-2-.7l.5-1.1a2 2 0 0 0 1.5.5c.7 0 1.1-.3 1.5-1.2l.3-.6-3.6-8h1.5l2.9 6.5 2.7-6.5Zm.4 4a4.2 4.2 0 1 1 4.2 4.1 4 4 0 0 1-4.2-4Zm6.9 0a2.7 2.7 0 1 0-2.7 2.9 2.6 2.6 0 0 0 2.7-2.9Zm11-4v8h-1.4V239a3.3 3.3 0 0 1-2.7 1.3 3.2 3.2 0 0 1-3.5-3.5V232h1.5v4.5c0 1.6.8 2.4 2.1 2.4a2.4 2.4 0 0 0 2.5-2.7V232Zm7.1-.1v1.4a2 2 0 0 0-.3 0 2.4 2.4 0 0 0-2.5 2.7v4h-1.5v-8h1.4v1.3a3 3 0 0 1 3-1.4Zm19.4 3.5v4.7h-1.4v-4.5c0-1.6-.8-2.4-2.1-2.4s-2.4 1-2.4 2.7v4.2h-1.5v-4.5c0-1.6-.8-2.4-2-2.4s-2.5 1-2.5 2.7v4.2h-1.5v-8.1h1.4v1.2a3.3 3.3 0 0 1 2.8-1.3 3 3 0 0 1 2.8 1.5 3.6 3.6 0 0 1 3.1-1.5c2 0 3.3 1.1 3.3 3.5Zm2.5-5.9a1 1 0 0 1 1-1 1 1 0 1 1-1 1Zm.2 2.5h1.5v8h-1.5Zm11.9 3.4v4.7h-1.4v-4.5c0-1.6-.8-2.4-2.2-2.4a2.4 2.4 0 0 0-2.6 2.7v4.2h-1.4v-8.1h1.4v1.2a3.5 3.5 0 0 1 2.9-1.3c2 0 3.3 1.1 3.3 3.5ZM349 229v11.3h-1.3V239a3.4 3.4 0 0 1-2.9 1.4 4.1 4.1 0 0 1 0-8.3 3.4 3.4 0 0 1 2.8 1.3V229Zm-1.4 7.3a2.7 2.7 0 1 0-2.7 2.8 2.6 2.6 0 0 0 2.7-2.9Zm9-3.9c0-1-.8-1.6-2.2-1.6a3.2 3.2 0 0 0-2.7 1.2l-1.1-.8a4.8 4.8 0 0 1 4-1.7c2.1 0 3.6 1 3.6 2.7 0 2.5-2.7 2.7-2.7 4.7h-1.6c0-2.4 2.7-2.7 2.7-4.5Zm-2.9 7a1 1 0 1 1 1 1 1 1 0 0 1-1-1Z"/>
  <path fill="#263238" d="M252 182.5c0 1.6-1.2 2.6-3 2.6h-2v2.2h-1V180h3c1.9 0 3 1 3 2.5Zm-1 0c0-1-.8-1.6-2.1-1.6H247v3.3h1.8c1.4 0 2.1-.6 2.1-1.7Zm7.8-.7v5.5h-1v-.8a2.3 2.3 0 0 1-2 1 2.2 2.2 0 0 1-2.4-2.5v-3.2h1v3c0 1.2.6 1.7 1.6 1.7a1.6 1.6 0 0 0 1.7-1.9v-2.8Zm7.7 2.8a2.7 2.7 0 0 1-2.8 2.8 2.4 2.4 0 0 1-2-1v1h-1v-8h1v3.2a2.4 2.4 0 0 1 2-1 2.7 2.7 0 0 1 2.8 3Zm-1 0a1.9 1.9 0 1 0-1.9 2 1.8 1.8 0 0 0 1.9-2Zm2.4-5.1h1v7.9h-1Zm2.8.5a.7.7 0 0 1 .7-.7.7.7 0 0 1 .6.7.7.7 0 0 1-1.3 0Zm.1 1.7h1v5.6h-1Zm2.5 2.9a2.8 2.8 0 0 1 3-2.9 2.5 2.5 0 0 1 2.2 1.2l-.7.5a1.7 1.7 0 0 0-1.5-.8 2 2 0 0 0 0 4 1.8 1.8 0 0 0 1.5-.9l.7.5a2.5 2.5 0 0 1-2.2 1.2 2.8 2.8 0 0 1-3-2.8Zm15.7-1.8 2.6 2.4a.5.5 0 0 0 .6 0l2.6-2.4a.5.5 0 0 0-.4-.8h-5a.5.5 0 0 0-.3.8ZM255.9 156v10.7h-1.7l-5.8-7.2v7.2h-2v-10.6h1.6l5.9 7.2V156Zm2.4.1a1.1 1.1 0 0 1 1.2-1.1 1.1 1.1 0 0 1 1.2 1 1.2 1.2 0 0 1-1.2 1.2 1.1 1.1 0 0 1-1.2-1.1Zm.2 2.5h2v8.1h-2Zm3.8 4.1a4.1 4.1 0 0 1 4.4-4.2 3.7 3.7 0 0 1 3.4 1.9l-1.4.8a2.3 2.3 0 0 0-2-1.1 2.5 2.5 0 0 0 0 5 2.3 2.3 0 0 0 2-1l1.4.8a3.7 3.7 0 0 1-3.4 2 4.1 4.1 0 0 1-4.4-4.3Zm12.7.5-1.4 1.4v2.1h-2v-11.3h2v6.8l4-3.6h2.2l-3.4 3.4 3.8 4.7h-2.4Zm14.3-1.2v4.7h-1.9v-4.4c0-1.4-.7-2.1-2-2.1a2.2 2.2 0 0 0-2.2 2.4v4.1h-1.9v-8.1h1.8v1a3.5 3.5 0 0 1 2.8-1.2c2 0 3.4 1.2 3.4 3.7Zm9.2 0v4.8h-1.8v-1a2.9 2.9 0 0 1-2.5 1c-1.9 0-3-1-3-2.4s.9-2.4 3.4-2.4h2v-.1c0-1.1-.6-1.8-2-1.8a4 4 0 0 0-2.4.8l-.7-1.4a5.7 5.7 0 0 1 3.4-1c2.3 0 3.6 1.1 3.6 3.5Zm-1.9 2.2v-1h-2c-1.2 0-1.6.6-1.6 1.2s.6 1 1.6 1a2 2 0 0 0 2-1.2Zm18-2.2v4.7h-2v-4.4c0-1.4-.6-2.1-1.8-2.1s-2 .8-2 2.4v4.1h-2v-4.4c0-1.4-.6-2.1-1.8-2.1s-2.1.8-2.1 2.4v4.1H301v-8.1h1.8v1a3.4 3.4 0 0 1 2.7-1.1 3 3 0 0 1 2.7 1.3 3.8 3.8 0 0 1 3-1.4c2 0 3.4 1.2 3.4 3.7Zm10.1 1.3h-6.4a2.5 2.5 0 0 0 2.6 1.9 3 3 0 0 0 2.3-.9l1 1.2a4.1 4.1 0 0 1-3.3 1.3c-2.7 0-4.5-1.7-4.5-4.2a4 4 0 0 1 4.2-4.1 4 4 0 0 1 4.1 4.2v.6Zm-6.4-1.3h4.6a2.2 2.2 0 0 0-2.3-2 2.3 2.3 0 0 0-2.3 2Z"/>
  <path fill="#c53f3f" d="M492.4 302.8H428a14.7 14.7 0 0 1-14.7-14.7 14.7 14.7 0 0 1 14.7-14.7h64.3a14.7 14.7 0 0 1 14.6 14.7 14.7 14.7 0 0 1-14.6 14.7Z"/>
  <path fill="#fff" d="M439.2 288v-4.1h1v4.1c0 1.6.7 2.3 2 2.3s2-.7 2-2.3v-4h1v4c0 2-1.1 3.2-3 3.2s-3-1.1-3-3.2Zm14.1-1.6c0 1.6-1.2 2.5-3 2.5h-1.8v2.2h-1V284h2.8c1.8 0 3 1 3 2.5Zm-1 0c0-1-.7-1.6-2-1.6h-1.8v3.2h1.8c1.2 0 2-.6 2-1.6Zm2.5-2.4h3a3.6 3.6 0 1 1 0 7.1h-3Zm3 6.2a2.7 2.7 0 1 0 0-5.4h-2v5.4Zm10-.9H464l-.8 1.8h-1.1l3.3-7.2h1l3.3 7.2h-1.1Zm-.4-.8L466 285l-1.6 3.5Zm4.4-3.7h-2.5v-.9h6v.9H473v6.3h-1Zm9.9 5.4v1h-5.3v-7.3h5.1v.9h-4v2.2h3.6v.9h-3.6v2.3Z"/>
  <circle cx="171" cy="146.4" r="65.8" fill="#e0e0e0"/>
  <path fill="#c53f3f" d="M120.6 188.7a67.2 67.2 0 0 0 5.5 5.8l3.4-9.4-3.2-7c-2 4-4.1 7.7-5.7 10.6Zm75.7-33c-6.2-1.7-18.1-3.5-18.1-3.5l-26.6 2.1a35.4 35.4 0 0 0-12.6 4.3l.4 4.7s2.3 3.2 3.6 5.5a8.2 8.2 0 0 1 .8 1.8c.4 1.6-.8 10.4-.8 10.4v4.3l.5 20.9a65.9 65.9 0 0 0 50.4 2l3.6-17.2 8 8.7.6-1.2c4.2-9.6 11.2-12.2 18.5-13.8l.1-.2.3-.4c-3-3.5-23-27-28.7-28.4Z"/>
  <path fill="#263238" d="M206.5 128.5c-2.4-2.8-5.2-5.7-5.3-9.3 0-2 .6-4.1-.5-5.7-1-1.3-3-1.5-4.2-2.8-1.5-1.6-.8-4.3-1.4-6.5a7.6 7.6 0 0 0-4.9-5 15.7 15.7 0 0 0-7.2-.6l-2.3 50.2a6.1 6.1 0 0 1 5.6-1.1c1.5.6 3 1.5 4.6 1.6 3.7.3 6.3-3.4 9.4-5.3s7.2-2.4 8.8-5.6-.3-7-2.6-9.9Z"/>
  <path fill="#455a64" d="M199.6 144.4a4 4 0 0 0 1.2-.5 2.7 2.7 0 0 0 1-1.2 2.7 2.7 0 0 0 0-2 3.7 3.7 0 0 0-1.7-1.7 4.4 4.4 0 0 1-1-1 2.3 2.3 0 0 1-.5-1.6 11.2 11.2 0 0 1 1-3.1 4.7 4.7 0 0 0 .3-1.6 3 3 0 0 0-.5-1.6 9.4 9.4 0 0 0-2.5-2.3 13.7 13.7 0 0 1-2.5-2 10.6 10.6 0 0 1-2.4-5 10 10 0 0 1 0-3.8 6.8 6.8 0 0 1 .3-1 1.3 1.3 0 0 1 .1-.4l-.2 1.4a10.7 10.7 0 0 0 .1 3.6 10.5 10.5 0 0 0 2.4 4.8 13.3 13.3 0 0 0 2.5 2 9.5 9.5 0 0 1 2.6 2.6 3.3 3.3 0 0 1 .6 1.8 5 5 0 0 1-.4 1.7 11.2 11.2 0 0 0-1 3 2 2 0 0 0 .4 1.3 4 4 0 0 0 1 1 6.8 6.8 0 0 1 1 .8 2.8 2.8 0 0 1 .7 1 3 3 0 0 1 0 2.3 2.9 2.9 0 0 1-2.2 1.5.8.8 0 0 1-.3 0Z"/>
  <path fill="#ffbe9d" d="m181.3 155.5-.2-8.4s8.4-1.2 10.3-12c1-5.5.9-14.3.5-21.6-.3-6.5-7.2-13.2-13.7-12.6l-21.2 3.6v3.6l.6 47.8a11.8 11.8 0 0 0 11.8 11.7 11.8 11.8 0 0 0 11.9-12Z"/>
  <path fill="#263238" d="M188.3 120.6a1.4 1.4 0 0 1-1.4 1.4 1.3 1.3 0 0 1-1.4-1.3 1.4 1.4 0 0 1 1.4-1.4 1.3 1.3 0 0 1 1.4 1.3Zm1.7-2.6c-.3.3-1.3-.5-2.8-.6s-2.6.7-2.8.6.1-.5.6-.8a3.8 3.8 0 0 1 2.2-.6 3.6 3.6 0 0 1 2.2.7c.5.4.6.7.5.8Zm-16.2 2.1a1.4 1.4 0 0 1-1.4 1.4 1.3 1.3 0 0 1-1.4-1.3 1.4 1.4 0 0 1 1.4-1.4 1.3 1.3 0 0 1 1.4 1.3Zm1.4-2c-.2.2-1.3-.6-2.8-.6s-2.6.7-2.7.5 0-.4.6-.8a3.8 3.8 0 0 1 2.2-.6 3.7 3.7 0 0 1 2.1.7c.5.4.6.7.6.8Zm5.2 11.2a10 10 0 0 1 2.5-.4c.3 0 .7 0 .8-.3a1.9 1.9 0 0 0-.3-1.2l-1-3c-1.6-4-2.6-7.5-2.5-7.6s1.6 3.3 3 7.5l1 3a2.2 2.2 0 0 1 .2 1.5 1 1 0 0 1-.6.5 2.2 2.2 0 0 1-.7.1 9.2 9.2 0 0 1-2.4 0Z"/>
  <path fill="#eb996e" d="M181.1 147.1a27.7 27.7 0 0 1-14.5-4.1s3.7 7.6 14.6 6.7Z"/>
  <path fill="#c53f3f" d="M179.7 133a2.7 2.7 0 0 0-2.4-1.1 2.5 2.5 0 0 0-1.7.9 1.6 1.6 0 0 0-.2 1.8 1.8 1.8 0 0 0 2 .5 5.7 5.7 0 0 0 2-1.1 1.8 1.8 0 0 0 .4-.5.5.5 0 0 0 0-.5"/>
  <path fill="#263238" d="M176 130.3c.3 0 .2 1.6 1.6 2.8s3.1 1 3.1 1.3-.4.3-1.1.3a4 4 0 0 1-2.6-1 3.5 3.5 0 0 1-1.3-2.4c0-.6.2-1 .3-1Zm-.3-18.1c-.2.4-1.7.2-3.5.4s-3.2.6-3.4.3c0-.2.2-.6.7-1a6 6 0 0 1 5.3-.5c.6.3 1 .6.8.8Zm13.7 1.5c-.2.4-1.3 0-2.5 0s-2.3.1-2.5-.2c-.1-.2 0-.5.5-.8a3.6 3.6 0 0 1 2-.6 3.5 3.5 0 0 1 2 .8c.5.3.7.7.5.8Z"/>
  <path fill="#c53f3f" d="M162.6 117.4a72.4 72.4 0 0 1 18.7-14.5c.8-.3 1.5-1 2-1a15.6 15.6 0 0 1 3 2c2.5 2.2 4.6 7.7 5.7 11 1.4-4.1 1-10.2-2-13.5s-6-5.2-10.4-5.4a18.7 18.7 0 0 0-11.5 3c-1.5 1-6.9 5.4-8.4 8Z"/>
  <path fill="#263238" d="M181.6 96.2c.8 0-4.2-4-7.2-4.6a12.3 12.3 0 0 0-9 2c-1.8 1.1-3.3 2.7-5.2 3.6a42.8 42.8 0 0 1-4.7 1.2 10.8 10.8 0 0 0-7.6 9.3c-.1 1.9.2 3.7.3 5.5a7.2 7.2 0 0 1-1.6 5c-1 1.2-2.6 1.7-4 2.6a9.8 9.8 0 0 0-4.3 9.6c.4 2 1.3 4 .6 5.9-.4 1.2-1.5 2.1-2.2 3.2a6.6 6.6 0 0 0 .2 7.4c1.8.2 3.3 1.6 4.7 2.8s3.3 2.2 5 1.7c2.3-.7 3.4-3.7 5.8-4s4 2 6.2 3c2.6 1 5.5-.6 7-2.8s2-5 2-7.7c0-3.3-.4-7-2.4-9.6-1.4-2-3.7-3.7-3.7-6s2-4.2 2.4-6.5c.3-2-.8-4-1.6-5.8s-2.4-4.6-1.2-6.3c0 0 8-11 20.5-9.5Zm1 1.8s.4.2.7.7a2.8 2.8 0 0 1-1.8 4c-.7.2-1 0-1 0l.9-.3A2.7 2.7 0 0 0 183 99l-.4-.9Z"/>
  <path fill="#263238" d="M185.7 102.6c0 .2-.8 0-1.5-.5s-1-1.3-.9-1.3l1.2 1 1.2.8Zm-7.2-2.8 1.4-.3c.8-.2 1.2-.5 1.3-.4s-.4.6-1.2.8-1.6 0-1.5-.1Zm.1-2h1.4c.8 0 1.3.3 1.3.4s-.6.2-1.4 0-1.4-.3-1.3-.4Zm7.4.7s-.3.2-.7.2-.6 0-.6-.2.3-.2.6-.2.6 0 .6.2Zm0 1.2-.8.2c-.4 0-.9 0-.9-.2s.4-.2.9-.2.8 0 .8.2Zm-19.2 7.3c.1.1-1 1.3-2.2 2.9s-1.8 3-2 3a11.8 11.8 0 0 1 4.2-6Zm.4-3.2-2.6 4c-1.4 2.2-2.2 4-2.3 4a14.4 14.4 0 0 1 2-4.3 14.2 14.2 0 0 1 3-3.7Zm-29.3 15.5-.3-.3a3.5 3.5 0 0 1-.5-1 4.5 4.5 0 0 1 .6-3.9 5 5 0 0 1 5.5-1.7 10.4 10.4 0 0 1 3 1.7 4.9 4.9 0 0 0 1.6.8 2 2 0 0 0 1.6-.3 2.7 2.7 0 0 0 1-1.5 4.8 4.8 0 0 0 0-1.7c-.1-1.2-.4-2.4-.4-3.5a8.3 8.3 0 0 1 1.5-5.6 5.4 5.4 0 0 1 3.4-2 3.9 3.9 0 0 1 1.1 0 2 2 0 0 1 .4 0 8.4 8.4 0 0 0-1.5.2 5.4 5.4 0 0 0-3.1 2 8 8 0 0 0-1.4 5.4c0 1 .3 2.2.5 3.4a3.9 3.9 0 0 1-1.2 3.7 2.4 2.4 0 0 1-2 .4 5.5 5.5 0 0 1-1.7-.8 10.3 10.3 0 0 0-3-1.7 4.7 4.7 0 0 0-5 1.5 4.4 4.4 0 0 0-.7 3.6 5.5 5.5 0 0 0 .6 1.3Zm66.9.8a2.9 2.9 0 0 0-.4 0 1.2 1.2 0 0 0-.9.5 1.1 1.1 0 0 0 0 1.5 1.7 1.7 0 0 0 2 .4 2.5 2.5 0 0 0 1.3-2 6.8 6.8 0 0 0-.6-3 5.3 5.3 0 0 0-1.9-2.8 2.6 2.6 0 0 0-1.6-.3 10.7 10.7 0 0 0-1.8.4 5.9 5.9 0 0 1-2 .2 2.6 2.6 0 0 1-1.8-.9 4.6 4.6 0 0 1-.8-3.5c.1-1.1.4-2.2.4-3.1a6.2 6.2 0 0 0-.5-2.6 7 7 0 0 0-2.5-3l-1.3-.8a1.5 1.5 0 0 1 .4.1 5.7 5.7 0 0 1 1 .5 7 7 0 0 1 2.7 3 6.6 6.6 0 0 1 .6 2.8c0 1-.3 2-.4 3.1a4.3 4.3 0 0 0 .8 3.2 2.2 2.2 0 0 0 1.4.8 5.5 5.5 0 0 0 1.8-.3 10.8 10.8 0 0 1 2-.4 3 3 0 0 1 1.9.4 5.7 5.7 0 0 1 2 3 7 7 0 0 1 .6 3.1 2.9 2.9 0 0 1-1.6 2.4 2 2 0 0 1-2.3-.6 1.3 1.3 0 0 1-.3-1 1.4 1.4 0 0 1 .4-.7 1.3 1.3 0 0 1 1-.5.7.7 0 0 1 .3.1Zm-71.5 14.3a1.9 1.9 0 0 0 .3 0 1 1 0 0 0 .8-.4.9.9 0 0 0 .1-.7 1 1 0 0 0-.5-.6 1.5 1.5 0 0 0-1.8.3 3.4 3.4 0 0 0-.9 2.3 2.4 2.4 0 0 0 .4 1.3 2 2 0 0 0 1 .8 2.7 2.7 0 0 0 2.9-1 5 5 0 0 0 1-3.1 25.9 25.9 0 0 0-.3-3.5 9.5 9.5 0 0 1 .1-3.5 5.8 5.8 0 0 1 1.6-2.6 8.5 8.5 0 0 1 2.2-1.6 16 16 0 0 1 3.6-1.2 7.2 7.2 0 0 1 1.4-.2 10.3 10.3 0 0 1-1.4.4 18 18 0 0 0-3.5 1.3 8.3 8.3 0 0 0-2 1.5 5.7 5.7 0 0 0-1.5 2.5 9 9 0 0 0 0 3.3 24.2 24.2 0 0 1 .3 3.6 5.4 5.4 0 0 1-1.1 3.5 3.3 3.3 0 0 1-1.5 1 3 3 0 0 1-1.8 0 2.4 2.4 0 0 1-1.3-1 2.8 2.8 0 0 1-.4-1.5 3.7 3.7 0 0 1 1-2.5 1.8 1.8 0 0 1 2.2-.3 1.2 1.2 0 0 1 .5.8 1 1 0 0 1-.1.8 1 1 0 0 1-1 .5.5.5 0 0 1-.3-.2ZM163.6 93a2.2 2.2 0 0 1-.2-.4 1.5 1.5 0 0 0-.7-.7 2.3 2.3 0 0 0-1.6-.1 1.7 1.7 0 0 0-1.3 1.4c-.3 1.6 1.5 3.5 3.6 3.2a6 6 0 0 0 3-1.5 17.3 17.3 0 0 0 2.5-2.7 16.5 16.5 0 0 1 2.5-2.8 6.2 6.2 0 0 1 3.2-1.5 4.8 4.8 0 0 1 3.1.8 6.6 6.6 0 0 1 2 2 10.7 10.7 0 0 1 1.3 3.8l.1 1a1 1 0 0 1 0 .4s0-.5-.3-1.4a11.2 11.2 0 0 0-1.4-3.6 6.4 6.4 0 0 0-2-1.9 4.5 4.5 0 0 0-2.8-.7 5.8 5.8 0 0 0-3 1.4 16.7 16.7 0 0 0-2.4 2.7 17.3 17.3 0 0 1-2.5 2.9 6.3 6.3 0 0 1-3.2 1.5 3.6 3.6 0 0 1-3-1 3 3 0 0 1-1-2.7 1.9 1.9 0 0 1 .5-1 2.1 2.1 0 0 1 1-.6 2.5 2.5 0 0 1 1.7.2 1.4 1.4 0 0 1 .8.8 1 1 0 0 1 0 .4Z"/>
  <path fill="#455a64" d="M177 96a.8.8 0 0 1 0-.3 1.8 1.8 0 0 0-.3-.4A3.2 3.2 0 0 0 175 94a8.7 8.7 0 0 0-3.3-.5 7.5 7.5 0 0 0-2 .3 6.5 6.5 0 0 0-2 1.2 15.3 15.3 0 0 0-3.4 3.9 8.4 8.4 0 0 0-.6 1.3 3.9 3.9 0 0 1-.8 1.3 6.3 6.3 0 0 1-2.8 1.7 12 12 0 0 1-1.6.3 7 7 0 0 0-1.5.5 6.4 6.4 0 0 0-2.5 2.1 5.4 5.4 0 0 0-1 3.3 22.9 22.9 0 0 0 .5 3.6 11.6 11.6 0 0 1 .2 3.7 5.4 5.4 0 0 1-1.8 3.2c-1.8 1.6-4 2.3-5.6 3.7a5.5 5.5 0 0 0-1.8 2.4 3.6 3.6 0 0 0 .2 2.7c.4.9 1 1.6 1.3 2.5a4 4 0 0 1 .4 2.6 3.5 3.5 0 0 1-1.4 1.8 16.5 16.5 0 0 0-1.6 1.3 3.5 3.5 0 0 0-1 3 10.8 10.8 0 0 0 .4 2 4.3 4.3 0 0 1 .2.6.8.8 0 0 1-.1-.1l-.2-.5a9.3 9.3 0 0 1-.5-2 4.5 4.5 0 0 1 .1-1.6 3.4 3.4 0 0 1 1-1.6 17 17 0 0 1 1.5-1.3 3.1 3.1 0 0 0 1.3-1.7 3.8 3.8 0 0 0-.3-2.4c-.4-.8-1-1.5-1.4-2.4a4 4 0 0 1-.2-3 6 6 0 0 1 1.8-2.6c1.7-1.5 4-2.2 5.7-3.7a5 5 0 0 0 1.6-3 11.1 11.1 0 0 0-.2-3.5 22.8 22.8 0 0 1-.4-3.7 6 6 0 0 1 1-3.5 6.8 6.8 0 0 1 2.7-2.3 7 7 0 0 1 1.6-.5 10.5 10.5 0 0 0 1.6-.3 5.7 5.7 0 0 0 2.6-1.6 3.2 3.2 0 0 0 .7-1.2 9.6 9.6 0 0 1 .7-1.3 15.5 15.5 0 0 1 3.5-4 6.5 6.5 0 0 1 2-1.1 7.5 7.5 0 0 1 2.2-.3 8.7 8.7 0 0 1 3.3.5 3 3 0 0 1 1.6 1.3 1.6 1.6 0 0 1 .2.5v.2Z"/>
  <path fill="#fff" d="M166.1 203.6a.8.8 0 0 1 .7-.4 6.5 6.5 0 0 1 .9 0 7.7 7.7 0 0 0 3-.7 8.8 8.8 0 0 1 4-.3 6.5 6.5 0 0 0 3.2.2c.6-.2 1.1-.6 1.7-.5a8.6 8.6 0 0 1 1 .5 2.6 2.6 0 0 0 2.3-.7 3.4 3.4 0 0 1 2.3-.9 3.6 3.6 0 0 1 1.7 1.1 2.4 2.4 0 0 0 1.8.8c1.3-.2 1.8-2 3-2 1 0 1.4 1 1.7 1.8s.4 1.7 1.2 2l-.6 3.1a2.9 2.9 0 0 1-3 2.4 6.2 6.2 0 0 1-3.8-1.8 11.3 11.3 0 0 0-2.1-1.7 9.2 9.2 0 0 0-4.7-.6 53.9 53.9 0 0 1-13.1-1.1 2 2 0 0 1-.9-.3.7.7 0 0 1-.3-.9Zm35.9-20.2a8.4 8.4 0 0 1 1.6-3.5c.5-.6 1.2-1 1.3-1.8 0-.5-.3-1-.2-1.5.3-1 1.6-1 2.6-.8s2.3.3 2.7-.6-.8-2.4 0-3.2a1.8 1.8 0 0 1 1.1-.5c1.3-.1 1-.4 2.3-.6l5.2 5.6c-.6-1-5-.4-5.6.5a11.8 11.8 0 0 0-1.2 3.2c-.4 1-1.3 2.2-2.5 2-.8-.2-1.4-1-2.3-1s-1.5.9-1.7 1.7 0 1.8-.3 2.6-.8 1.7-1.7 1.7a1.7 1.7 0 0 1-1.4-1.5 5 5 0 0 1 .2-2.3Zm-61.5-25.6c1.5 0 3.4.1 4.1 1.5.5.9.2 2 .7 3s1.9 1 3 1.2 2.3.4 2.7 1.4-.2 2.2.3 3c.6 1.1 2.2.8 3.5 1 2.2.4 3.6 3 6 3.5a8.2 8.2 0 0 0 3.2-.4 4.5 4.5 0 0 1 3.2.2c1 .6 1.4 2 .6 2.8a2.7 2.7 0 0 1-2.2.4l-6.6-.7a35 35 0 0 1-5.2-.8 34.2 34.2 0 0 1-4-1.4c-1.7-.7-3.5-1.5-4.3-3.1a11.2 11.2 0 0 0-1-2.1 4.3 4.3 0 0 0-2-1.2l-5.9-2.4a3 3 0 0 1-1.4-.9 1 1 0 0 1 .2-1.5s3.8-3.4 5-3.5Zm36.5 21.8c.8-1.3 2.8-.7 4-1.4 2.3-1.5 0-5.7 1.9-7.6 1.5-1.4 4.5-.2 5.6-2 .7-1 .3-2.3 1-3.3 1.5-2.6 6.5.2 8.2-2.3a4.3 4.3 0 0 0 .3-2.5 3.5 3.5 0 0 1 .6-2.6c.6-.6 1.6.2 1.6.2a105.4 105.4 0 0 1 8 7.4c-1.4-.3-2.8-.7-3.8-.2a6.7 6.7 0 0 0-2.4 2.3 5.8 5.8 0 0 1-2.4 2.3c-2 .7-4.8-.8-6.3.7-1 1-.9 2.4-1.3 3.6-1 2.8-5.3 3.8-7.3 1.5a6.3 6.3 0 0 1-4.2 6.3 3.4 3.4 0 0 1-2.7 0 1.8 1.8 0 0 1-.8-2.4Zm-37 11.6a7.5 7.5 0 0 1 3.6-.4 7.2 7.2 0 0 0 2.4.5c1.7-.2 2.6-2.6 4.3-2.5s2.7 3 4.4 2.6c1-.2 1.7-1.3 2.7-1.2s1.4 1.4 2.2 2.1a3.7 3.7 0 0 0 3.4.4 9 9 0 0 1 3.5-.6c1.2.1 2.3 1.3 2 2.4l.8-.4c.7-.4 1.5.6 1.2 1.3a2.5 2.5 0 0 1-2 1.2c-2.7.6-5.6 0-8.4-.5l-6.4-1.1a32.7 32.7 0 0 0-6.5-.7 15.8 15.8 0 0 0-4.8.8 10 10 0 0 1-3.2.9 2.4 2.4 0 0 1-2.4-1.8c-.2-1.6 1.6-2.5 3.1-3Z"/>
  <path fill="#ffbe9d" d="M224.6 184.6c-7.3 1.7-14.3 4.2-18.5 13.9l2 2.3a66.2 66.2 0 0 0 16.5-16.2Z"/>
  <path fill="#e0e0e0" d="m129.5 185.1-3.4 9.4 3.4-9.4zm-5.5-12.4c.5 1.5 1.4 3.4 2.3 5.4Zm8.3-6.4a5.2 5.2 0 0 1 .7.3l2.8-2a2.9 2.9 0 0 0-.5-.8 5.4 5.4 0 0 0-1.3-1 15.3 15.3 0 0 0-2.2 3.4Z"/>
  <path fill="#e0e0e0" d="M133 166.6a5.2 5.2 0 0 0-.6-.3l-.6-.1-.4.7-.5 1.3.5-.4 1.7-1.2Zm-6.7 11.4 3.2 7-3.2-7Zm4.7-9.8a3.3 3.3 0 0 0-.7.7 1.8 1.8 0 0 0-.2.8h.2Zm-1 1.5a1.4 1.4 0 0 0 0 .4l.2-.4Zm4.7 7.3 1.1-6a6.1 6.1 0 0 0-1 1.7 6.2 6.2 0 0 0-.2 4.4Zm-.6-9.3a1.8 1.8 0 0 1-1.2 2 5.2 5.2 0 0 1-2.6 0l-.2.4a1.2 1.2 0 0 0 0 .2c.4.8 1.5 1 2.3.8a8.8 8.8 0 0 0 3.7-1.3l1.2-6-1.5.9a2.4 2.4 0 0 1 .2.8 2.4 2.4 0 0 0-.1-.8c-1 .6-2 1.2-2.8 1.9a1.8 1.8 0 0 1 1 1.1Z"/>
  <path fill="#e0e0e0" d="m137.8 169.5-.3-.8a8.8 8.8 0 0 1-1.4 1l-.3 1.4a6.1 6.1 0 0 1 2-1.6Z"/>
  <path fill="#ffbe9d" d="M143 181s1.2-8.8.9-10.4a8.2 8.2 0 0 0-.9-1.8 93.2 93.2 0 0 0-3.5-5.5l-.5-4.7a60.5 60.5 0 0 0-2.4-14.4c-.8-.9-3.1-1.3-3.2 3.7s0 10.5 0 10.5-7.6-13.2-9.7-13-2.2 1.2 0 5.1a71 71 0 0 1 4 9.5 3.6 3.6 0 0 0-2.8 3.3l-.3 2.8s-2.1 2.3-1.2 5c0 .4.3 1 .6 1.6l2.3 5.3 3.2 7-3.3 9.5q2 2 4.3 3.7a66 66 0 0 0 9.7 6.3 67 67 0 0 0 3.4 1.7l-.5-21Z"/>
  <path fill="#eb996e" d="M135.8 179a2.4 2.4 0 0 1-.6-.5 6.1 6.1 0 0 1-1.1-1.8 6 6 0 0 1-.5-3.2 6.4 6.4 0 0 1 2-3.8l.3.4a11.5 11.5 0 0 1-4.2 1.3 4.9 4.9 0 0 1-4.5-2l-.2-.3-.1-.2.2-.1 6.2-4.1a8 8 0 0 1 1.5-.9 3 3 0 0 1 1.7-.1 4.6 4.6 0 0 1 2.4 1.6 23 23 0 0 1 1.4 2 8.8 8.8 0 0 0 1 1.3 6.5 6.5 0 0 0 1.3.8 1 1 0 0 1-.4 0 3.6 3.6 0 0 1-1-.7 7.7 7.7 0 0 1-1.2-1.3l-1.4-1.9a4.3 4.3 0 0 0-2.2-1.4 3.7 3.7 0 0 0-2.9 1l-6.2 4.1.1-.3.2.3a4.4 4.4 0 0 0 4 1.8 11 11 0 0 0 4-1.3l1.5-.6-1.2 1a6 6 0 0 0-2 3.5 6 6 0 0 0 .4 3 8.5 8.5 0 0 0 1.5 2.4Z"/>
  <path fill="#eb996e" d="m131.6 171.4.3.4a4.2 4.2 0 0 1 .6 1.4 2 2 0 0 1-.8 2 1.6 1.6 0 0 1-1.4.2 3.6 3.6 0 0 1-1.2-.7 40.8 40.8 0 0 1-4.8-4.4 42.2 42.2 0 0 1 5.1 4c.7.5 1.5.9 2 .5a1.8 1.8 0 0 0 .7-1.6 5.4 5.4 0 0 0-.4-1.3v-.5Zm-2.4-3.7c-.1 0-.7-.6-1.7-1s-2-.7-2-.9 1-.2 2.2.3 1.6 1.5 1.5 1.6Zm3.8-3c0 .1-.8-1-2-2a12.2 12.2 0 0 0-1.6-1.2 1.5 1.5 0 0 0-.7-.1s0-.2.2-.2a1 1 0 0 1 .7 0 6.7 6.7 0 0 1 1.8 1.1 4.5 4.5 0 0 1 1.7 2.4Z"/>
  <path fill="#c53f3f" d="m505.2 453.6 21.9-49-12.7-42a55 55 0 0 1 2.5-38.5l21.4-45.6 14.8-7.8 35.2-6c1.4.4 34 17.5 34 17.5a65.6 65.6 0 0 1 17 13.8L609 401.8s6.6 20.8 13 51.8Z"/>
  <path d="m604.6 348.7-8.2 31.8c-.5 2-1.2 4.1-2.9 5.2a8 8 0 0 1-4 .9l-39.9 1.9a22.3 22.3 0 0 0-6.6 1 7.5 7.5 0 0 0-4.8 4.4c-1 3.5 1.2 7 3.6 9.8a121 121 0 0 0 78.6 42.6l-9.9-53 4.2-20.9Z" opacity=".3"/>
  <path fill="#fafafa" d="M547 370.3h.6l1.7.3a350 350 0 0 0 26.4 2.6 302.6 302.6 0 0 0 26.5.3h2.3-2.3l-6.1.2a285.3 285.3 0 0 1-46.8-3l-1.7-.3Zm-33-22.4h1l2.5.3 9.7.7a1020.1 1020.1 0 0 0 63.8 2.7h13.3H591a897.9 897.9 0 0 1-73.5-3.4l-2.6-.3Zm8.3-19.2h.9l2.4.2 8.8.7a996.9 996.9 0 0 0 58.3 2.2h12.1-12.1a788.2 788.2 0 0 1-67.1-2.9l-2.4-.2Zm5.3-16.7 7.2.1 7.2.3h-7.2c-4 0-7.2-.3-7.2-.3Zm60-8.2h4l9.6-.3 9.6-.1h3.7a.8.8 0 0 1 .3 0h-4l-9.6.3-9.6.1h-4Zm-78.4 140.8h1.2l3.2.1 11.9.4a1290 1290 0 0 0 78.6-.3l12-.4 3.2-.2h1-1l-3.3.3a958.7 958.7 0 0 1-51.2 1.3 1096.8 1096.8 0 0 1-51.2-1l-3.3-.1Zm9.6-19.6a5427.5 5427.5 0 0 1 48.4 1.3l-48.4-1.3Zm8.2-20.3h3.4l9 .1c7.6.2 18.1.4 29.8.9s22 1 29.7 1.5l9 .7 2.4.3h.9-.9l-2.4-.2-9-.7c-7.6-.4-18.2-1-29.8-1.4l-29.7-1-9-.2h-2.5Z"/>
  <path fill="#c53f3f" d="M543.8 276.7s-30.7 6.8-34.2 39.7l-3.8 33.7 13.1 4Z"/>
  <path fill="#263238" d="M515.2 360.3a1.7 1.7 0 0 1-.3-.5c0-.4-.3-.9-.5-1.5a26.5 26.5 0 0 1-1-5.8 38.6 38.6 0 0 1 3.8-18.8c.8-1.8 1.7-3.4 2.6-4.9l2.6-4.4a46.7 46.7 0 0 0 3.4-8l1.8-5.5.4-1.6a1.7 1.7 0 0 1 .2-.5 3.3 3.3 0 0 1 0 .6l-.4 1.5-1.6 5.7a45.9 45.9 0 0 1-3.4 8l-2.5 4.4a62 62 0 0 0-2.6 4.8 39.6 39.6 0 0 0-4 18.6 30.9 30.9 0 0 0 .8 5.8l.7 2Z"/>
  <path fill="#ffbe9d" d="m543.8 275.6 10.5-5.5h47.2l10.8 6.4s-45.5 50.4-55 51.8c-24 3.5-13.5-52.7-13.5-52.7Z"/>
  <path fill="#fafafa" d="M518 294.2Zm-8.3 25.4a4 4 0 0 1 .6 0h1.5l5 .5 5 .1h1.5a2.8 2.8 0 0 1 .6 0 3.7 3.7 0 0 1-.6 0h-6.5c-2 0-3.8-.3-5-.5l-1.6-.2a2.1 2.1 0 0 1-.5 0Z"/>
  <path fill="#c53f3f" d="M639.4 296a46.1 46.1 0 0 1 11.9 33v52.4l-47.3-1 1.6-46.4"/>
  <path fill="#263238" d="M605.6 320.5a1.4 1.4 0 0 1 0-.4l.3-1.3a29.4 29.4 0 0 1 1.5-4.3 35.3 35.3 0 0 1 8.7-12.3c4.4-4 9.6-6.2 13.4-6.7a13.6 13.6 0 0 1 4.6.2 8 8 0 0 1 1.2.3 2.1 2.1 0 0 1 .4.2 16.3 16.3 0 0 0-6.1-.3 26.3 26.3 0 0 0-13.2 6.7 38.4 38.4 0 0 0-10.3 16.3l-.5 1.6Zm45.7 60.9a.6.6 0 0 1-.3 0h-3.4l-10-.1-33.6-.6h-.3v-.2l.1-4 1.1-36.3.4-11 .1-3v-.7a1.1 1.1 0 0 1 0-.3 1.5 1.5 0 0 1 0 .3v3.8l-.2 11-.9 36.2-.1 4-.3-.3 33.6.7 10 .3 2.7.1h.7Z"/>
  <path fill="#fafafa" d="m605.6 367.1 22.8.2 22.8.4-22.8-.2-22.8-.4Zm.2-24.7h1.8l4.8.4 16 1 16 .4h6.6-6.6a387 387 0 0 1-32-1.4l-4.8-.4-1.3-.1ZM607 322s2.3-.9 6-1.8a91.3 91.3 0 0 1 30-2.4c3.8.3 6.1.8 6.1.8h-.4l-1.2-.2a92 92 0 0 0-4.6-.4 95.6 95.6 0 0 0-29.9 2.4 99 99 0 0 0-4.4 1.1l-1.2.4Z"/>
  <path fill="#263238" d="M514.9 361.1 502 337.3h-39.3l-1.3 2.4 33.3 55.3 37.7 1.8-17.5-35.7z"/>
  <path fill="#455a64" d="m513.7 363.5-12.9-23.8h-39.4l32.1 57.7 37.6 1.8-17.4-35.7z"/>
  <path fill="#ebebeb" d="M481.4 349.7a2 2 0 1 0-.3-2.8 2 2 0 0 0 .3 2.8Z"/>
  <path fill="#ffbe9d" d="M648.7 381.4V416a26.9 26.9 0 0 1-8.1 19.6 19.9 19.9 0 0 1-22.3 3.8l-80.1-40.6 7.8-30.6 64.5 24.3.6-11.5Z"/>
  <path fill="#ffbe9d" d="m550.8 371.4-6.2-7.7a21.6 21.6 0 0 0-16.8-8h-5.5l-3.7 4.2s-26.6 1.1-27.5 4.4v1.6l22.7 1.5h-20.5c-1.2 0-5.4-.3-5.3 2 0 1.9 2.3 3.3 5.6 3.8l18.1 1.7-18.4-.2c-2 0-1.8 3.3-.6 3.7l24.6 7.2s-4 2.7-7.2 2.5-8.8-4.4-10-2.5-1 3.2-.2 3.6 8.3 4.4 10.8 5.1 23.4 4 23.4 4l7.5 1.2ZM467 349s-4.2 1.4-2 6.7a45.1 45.1 0 0 0 8.3 13.2 4.8 4.8 0 0 0 1.6 4.8s-2.9.7-1 5.6a5.5 5.5 0 0 0 3.4 7.3s-1.5 4.2 3.8 6.2 10.4-1.5 10.4-1.5Z"/>
  <path fill="#ffbe9d" d="M475.3 368.5c3.7 1 7.8 1.8 11.3 3.1 1.1.4 2.2.5 3 1.4a2.6 2.6 0 0 1 0 3.4 3.6 3.6 0 0 1-3 .6 53.3 53.3 0 0 1-11.6-3.3"/>
  <path fill="#ffbe9d" d="M476.8 374.7c3.7 1 7.8 1.8 11.3 3.1 1 .5 2.2.5 3 1.5a2.6 2.6 0 0 1 0 3.3 3.6 3.6 0 0 1-3 .6 53.4 53.4 0 0 1-11.6-3.2"/>
  <path fill="#ffbe9d" d="M478.9 381.1c3.7 1 7.8 1.8 11.3 3.2 1.1.4 2.2.4 3 1.4a2.6 2.6 0 0 1 0 3.3 3.6 3.6 0 0 1-3 .6 54.1 54.1 0 0 1-11.5-3.2"/>
  <path fill="#eb996e" d="M475.3 373.9c0-.2 2.6.8 6 1.7l6 1.6a33.2 33.2 0 0 1-12-3.3Zm-.7 5.5a70.3 70.3 0 0 1 6.8 2c3.8 1 6.8 1.8 6.8 2a48.6 48.6 0 0 1-13.6-4Zm2.4 7.1a37 37 0 0 1 6.4 1.3 38 38 0 0 1 6.3 1.8 35.8 35.8 0 0 1-6.4-1.3 36.8 36.8 0 0 1-6.3-1.8Zm-4.8-18.8c0-.1 3.3 1 7.5 2s7.6 1.7 7.6 1.9a8 8 0 0 1-2.3-.2 55.1 55.1 0 0 1-5.5-1.1 52.2 52.2 0 0 1-5.2-1.7 7.9 7.9 0 0 1-2.1-.9Zm37.4-7.5a75.8 75.8 0 0 1 9.3-.4 74.9 74.9 0 0 1 9.3.3 76 76 0 0 1-9.3.3 74.8 74.8 0 0 1-9.3-.2Zm110.1 53.2v-3.5a23 23 0 0 0-.6-3.7 26.6 26.6 0 0 0-1.4-4.4 27 27 0 0 0-2.2-4 23.6 23.6 0 0 0-2.4-2.9c-1.5-1.6-2.5-2.3-2.5-2.4a3.4 3.4 0 0 1 .8.5 15.5 15.5 0 0 1 2 1.6 21.3 21.3 0 0 1 2.5 3 24.5 24.5 0 0 1 2.3 4 23.9 23.9 0 0 1 1.4 4.5 21 21 0 0 1 .5 3.8 16.3 16.3 0 0 1-.2 2.5 3 3 0 0 1-.2 1Z"/>
  <path fill="#263238" d="M503.8 221.1c4.8-5.7 10.6-11.5 10.8-19 .1-4-1.3-8.3 1-11.5 2-2.8 6.2-3.2 8.5-5.7 3-3.4 1.7-8.8 2.8-13.2 1.1-4.9 5.3-8.6 10-10.4s9.8-1.6 14.8-1l4.6 102.1c-2.2-2.4-8.1-3.5-11.3-2.3s-6 3.2-9.4 3.4c-7.6.6-12.8-6.9-19.3-10.8-6.1-3.8-14.5-5-18-11.4-3.4-6.5.8-14.5 5.5-20.2Z"/>
  <path fill="#455a64" d="M517.9 253.5a8 8 0 0 1-2.5-1 5.3 5.3 0 0 1-2-6.4c.5-1.4 1.8-2.5 3.4-3.5a9.3 9.3 0 0 0 2.3-2 4.8 4.8 0 0 0 1-3.2c-.1-2.3-1.3-4.3-2-6.4a9.5 9.5 0 0 1-.8-3.2 6 6 0 0 1 1-3.2 19 19 0 0 1 5.1-4.7 27.4 27.4 0 0 0 5.1-4.3 21.4 21.4 0 0 0 5-10.2 20 20 0 0 0 0-7.6 13.7 13.7 0 0 0-.6-2 2.3 2.3 0 0 0-.3-.7l.5 2.7a21.8 21.8 0 0 1-5.3 17.2 27 27 0 0 1-5 4.2 19.6 19.6 0 0 0-5.4 5 6.8 6.8 0 0 0-1 3.6 10.4 10.4 0 0 0 .7 3.5c.8 2.2 2 4.2 2 6.2a4 4 0 0 1-.7 2.6 8.5 8.5 0 0 1-2 1.8 16.7 16.7 0 0 0-2.3 1.8 6 6 0 0 0-1.2 6.6 5.7 5.7 0 0 0 2.3 2.5 5.4 5.4 0 0 0 2 .7 1.6 1.6 0 0 0 .7 0Z"/>
  <path fill="#ffbe9d" d="m555.2 276.2.3-17.1s-17-2.6-21-24.7c-2-11-1.7-29-1-43.8.6-13.4 14.7-26.9 28-25.7l43.1 7.4v7.1l-1.2 97.5a24.1 24.1 0 0 1-24 23.9 24.1 24.1 0 0 1-24.2-24.6Z"/>
  <path fill="#263238" d="M540.3 206a2.8 2.8 0 0 0 2.8 2.7 2.7 2.7 0 0 0 2.9-2.6 2.8 2.8 0 0 0-2.8-2.8 2.7 2.7 0 0 0-2.9 2.6Zm-2.7-6.1c.3.3 2.5-1.3 5.5-1.3s5.3 1.4 5.7 1c.1-.1-.2-.8-1.2-1.5a7.8 7.8 0 0 0-4.6-1.3 7.4 7.4 0 0 0-4.4 1.5c-.9.8-1.2 1.4-1 1.6Zm30.8 5.2a2.8 2.8 0 0 0 2.8 2.8 2.7 2.7 0 0 0 2.9-2.6 2.8 2.8 0 0 0-2.8-2.8 2.7 2.7 0 0 0-2.9 2.6Zm-.8-5.1c.4.3 2.5-1.4 5.6-1.4s5.3 1.4 5.6 1c.2-.1-.2-.8-1.2-1.5a7.7 7.7 0 0 0-4.5-1.3 7.5 7.5 0 0 0-4.4 1.5c-1 .8-1.2 1.5-1 1.6ZM557 222.8c0-.2-1.9-.5-5-.8-.8 0-1.5-.2-1.7-.7a4 4 0 0 1 .5-2.4l2.2-6c3-8.5 5.3-15.5 5-15.6s-3.2 6.7-6.2 15.2l-2.1 6a4.5 4.5 0 0 0-.4 3 2 2 0 0 0 1.3 1.2 5.2 5.2 0 0 0 1.3.2h5.1Z"/>
  <path fill="#eb996e" d="M555.5 259a56.4 56.4 0 0 0 29.5-8.4s-7.4 15.5-29.6 13.8Z"/>
  <path fill="#c53f3f" d="M558.4 230.2a5.5 5.5 0 0 1 4.9-2.2 5 5 0 0 1 3.5 1.8 3.2 3.2 0 0 1 .3 3.7 3.7 3.7 0 0 1-4 1 11.4 11.4 0 0 1-4-2.2 3.6 3.6 0 0 1-.9-.9 1 1 0 0 1 0-1.1"/>
  <path fill="#263238" d="M566 224.8c-.5 0-.4 3.3-3.2 5.7s-6.4 2-6.4 2.5c0 .2.8.7 2.3.7a8.3 8.3 0 0 0 5.3-2 7.2 7.2 0 0 0 2.5-4.7c.1-1.4-.3-2.3-.5-2.2Zm.6-36.8c.4.8 3.4.4 7 .7s6.6 1.3 7 .6c.3-.4-.3-1.2-1.5-2a11.5 11.5 0 0 0-5.1-1.7 11.7 11.7 0 0 0-5.5.8c-1.3.5-2 1.2-1.9 1.6Zm-28.1 3c.6.7 2.7 0 5.2-.1s4.7.3 5.2-.4c.2-.4-.2-1-1.1-1.7a7.2 7.2 0 0 0-4.2-1 7 7 0 0 0-4.1 1.4c-1 .8-1.2 1.5-1 1.8Z"/>
  <path fill="#c53f3f" d="M593.3 198.4c-7.3-9-28-25-38.2-29.4-1.6-.8-3-2.2-4-2.2a31.6 31.6 0 0 0-6 4 56 56 0 0 0-11.7 22.6c-3-8.5-2-20.8 3.9-27.6s12.2-10.6 21.2-11 15.8 1.6 23.5 6.3c3 1.9 14 11 17.1 16.3Z"/>
  <path fill="#263238" d="M554.5 155.2c-1.5.2 8.5-8 14.8-9.2a25.2 25.2 0 0 1 18.3 3.8c3.5 2.4 6.5 5.8 10.5 7.5 3 1.3 6.4 1.5 9.5 2.4a22.2 22.2 0 0 1 15.4 19.1c.3 3.7-.4 7.4-.5 11s.7 7.7 3.2 10.4c2.1 2.4 5.3 3.4 8 5.1a20 20 0 0 1 8.9 19.7c-.7 4-2.6 8.2-1.2 12 1 2.5 3.1 4.3 4.6 6.6a13.4 13.4 0 0 1-.5 15c-3.7.5-6.7 3.3-9.6 5.7s-6.7 4.6-10.3 3.5c-4.7-1.3-7-7.6-11.8-8.3s-8.2 4.4-12.7 6c-5.1 2-11-1-14.2-5.4s-3.8-10.3-4-15.7c0-7 .8-14.2 4.9-19.7 2.9-4 7.5-7.4 7.6-12.3 0-4.8-4.2-8.5-5-13.2-.6-4 1.6-8 3.3-11.8s4.8-9.3 2.4-12.7c0 0-16.3-22.3-41.6-19.5Zm-2 3.8c-.1-.1-.8.3-1.4 1.5a5.7 5.7 0 0 0 3.7 8c1.3.4 2 .1 2 0l-1.9-.5a5.6 5.6 0 0 1-3.2-7.3c.4-1 .9-1.7.8-1.8Z"/>
  <path fill="#263238" d="M546.3 168.4c0 .2 1.5 0 3-1.1s2-2.5 1.8-2.6-1.1.8-2.4 1.8-2.5 1.7-2.4 1.9Zm14.6-5.8c0-.3-1.4-.2-2.8-.6s-2.7-1.1-2.8-.9.8 1.3 2.5 1.8 3.2 0 3.1-.3Zm-.2-4.1c0-.2-1.3-.2-2.8 0s-2.8.7-2.8 1 1.3.2 2.9 0 2.8-.7 2.7-1Zm-14.9 1.5c0 .2.5.4 1.1.5s1.2-.2 1.2-.4-.5-.5-1.1-.6-1.2.2-1.3.4Zm-.2 2.4c0 .3.7.5 1.7.5s1.7-.2 1.7-.5-.8-.4-1.7-.4-1.7.2-1.7.4Zm39 15c-.2.2 2.2 2.5 4.5 5.9s3.8 6.3 4 6.2-.8-3.3-3.2-6.8-5.1-5.5-5.3-5.3Zm-.8-6.6c-.2.1 2.5 3.5 5.3 8s4.5 8.4 4.8 8.3-1.2-4.3-4-8.8-5.9-7.7-6-7.5Zm59.8 31.6.5-.6a7 7 0 0 0 1-2 9 9 0 0 0-1.2-8c-2-3-6.6-4.7-11.1-3.4-2.3.6-4.3 2.2-6.3 3.5a10 10 0 0 1-3.2 1.5 4 4 0 0 1-3.2-.6 5.5 5.5 0 0 1-1.9-3 9.8 9.8 0 0 1-.2-3.6c.3-2.3.9-4.7 1-7 .2-4.5-1-8.8-3.2-11.5a11 11 0 0 0-7-4.2 7.8 7.8 0 0 0-2.1 0 2.5 2.5 0 0 0-.8.2 14.8 14.8 0 0 1 3 .2 11 11 0 0 1 6.4 4.2c2 2.6 3 6.7 2.8 11 0 2.3-.6 4.6-1 7s0 5.6 2.4 7.4a4.8 4.8 0 0 0 4 .8 10.8 10.8 0 0 0 3.5-1.6c2-1.4 3.8-3 6-3.5 4.1-1.2 8.5.4 10.3 3a8.9 8.9 0 0 1 1.4 7.5 12.2 12.2 0 0 1-1.1 2.7ZM507.4 204a7.2 7.2 0 0 1 .7 0 2.4 2.4 0 0 1 1.8 1 2.3 2.3 0 0 1 0 3 3.5 3.5 0 0 1-4 .8 5.2 5.2 0 0 1-2.7-4.2 14 14 0 0 1 1.1-6.2c.8-2 2-4.2 3.9-5.5a5.4 5.4 0 0 1 3.4-.7 23 23 0 0 1 3.7.8 11.2 11.2 0 0 0 4 .6 5.2 5.2 0 0 0 3.6-2 9.5 9.5 0 0 0 1.6-7c-.2-2.3-.8-4.4-.8-6.4a13.2 13.2 0 0 1 1-5.4 14.3 14.3 0 0 1 5-6.1l2.7-1.5a2.6 2.6 0 0 0-.8.2 11.7 11.7 0 0 0-2 1 14.2 14.2 0 0 0-5.4 6.2 13.4 13.4 0 0 0-1.2 5.6c0 2.1.5 4.3.7 6.5a8.7 8.7 0 0 1-1.5 6.4 4.3 4.3 0 0 1-3 1.6 10.6 10.6 0 0 1-3.7-.5 22.6 22.6 0 0 0-3.9-.9 6.3 6.3 0 0 0-3.9.9 11.4 11.4 0 0 0-4.2 6 14.4 14.4 0 0 0-1.1 6.5 5.8 5.8 0 0 0 3.3 4.7 4 4 0 0 0 4.5-1.1 2.7 2.7 0 0 0 .6-2 3 3 0 0 0-.7-1.6 2.6 2.6 0 0 0-2-1 1.3 1.3 0 0 0-.8.3ZM653 233.2a4 4 0 0 1-.7 0 2 2 0 0 1-1.6-1 1.7 1.7 0 0 1-.2-1.2 2 2 0 0 1 1-1.3 3 3 0 0 1 3.7.6 6.8 6.8 0 0 1 1.7 4.7 4.7 4.7 0 0 1-.6 2.6 3.9 3.9 0 0 1-2.3 1.6 5.5 5.5 0 0 1-5.7-1.8 10.2 10.2 0 0 1-2.2-6.5 52.2 52.2 0 0 1 .7-7.3 19.2 19.2 0 0 0-.2-6.9 12 12 0 0 0-3.1-5.4 17 17 0 0 0-4.5-3.2 31 31 0 0 0-7.4-2.4 14.7 14.7 0 0 0-2.9-.5 19.8 19.8 0 0 0 2.8.8 35.7 35.7 0 0 1 7.2 2.7 17 17 0 0 1 4.2 3 11.2 11.2 0 0 1 3 5.2 18.6 18.6 0 0 1 0 6.6 51.6 51.6 0 0 0-.7 7.4 11.1 11.1 0 0 0 2.4 7.1 6.6 6.6 0 0 0 3 2 6.4 6.4 0 0 0 3.6 0 4.8 4.8 0 0 0 2.7-2 5.6 5.6 0 0 0 .8-3 7.4 7.4 0 0 0-2-5.2 3.6 3.6 0 0 0-4.5-.5 2.4 2.4 0 0 0-1.2 1.5 2.3 2.3 0 0 0 2.3 2.7 1 1 0 0 0 .7-.3Zm-61.7-84.6a4 4 0 0 0 .2-.7 3 3 0 0 1 1.5-1.4 5 5 0 0 1 3.3-.2 3.5 3.5 0 0 1 2.7 3c.6 3.1-3 7.1-7.4 6.3a12.1 12.1 0 0 1-6.1-2.9 34.7 34.7 0 0 1-5-5.6 34.4 34.4 0 0 0-5.1-5.7 12.6 12.6 0 0 0-6.6-3 9.8 9.8 0 0 0-6.3 1.6 13.3 13.3 0 0 0-4 4.1 21.3 21.3 0 0 0-2.7 7.7l-.3 2.2a2.5 2.5 0 0 0 0 .7 29.4 29.4 0 0 0 .7-2.9 22.5 22.5 0 0 1 2.9-7.4 13 13 0 0 1 3.8-3.7 9 9 0 0 1 5.8-1.5 11.7 11.7 0 0 1 6.1 2.9 33.8 33.8 0 0 1 5 5.6 34.8 34.8 0 0 0 5.1 5.7 13 13 0 0 0 6.6 3 7.3 7.3 0 0 0 6.2-2 6 6 0 0 0 2-5.2 4 4 0 0 0-1.3-2.3 4.5 4.5 0 0 0-2-1 5.2 5.2 0 0 0-3.5.3 3 3 0 0 0-1.5 1.7 1.8 1.8 0 0 0-.1.7Z"/>
  <path fill="#455a64" d="M564 154.7v-.3a3.4 3.4 0 0 1 .5-1 6.6 6.6 0 0 1 3.4-2.4 17.7 17.7 0 0 1 6.5-1 15.7 15.7 0 0 1 4 .6 13.3 13.3 0 0 1 4 2.4 31.1 31.1 0 0 1 7 8 18 18 0 0 1 1.4 2.6 7.8 7.8 0 0 0 1.6 2.7 12.8 12.8 0 0 0 5.6 3.4 23.4 23.4 0 0 0 3.3.6 13.4 13.4 0 0 1 3.1 1 13 13 0 0 1 5.2 4.4 11 11 0 0 1 1.8 6.6 46.2 46.2 0 0 1-.9 7.4 23.9 23.9 0 0 0-.3 7.5 11 11 0 0 0 3.6 6.6c3.7 3.3 8.3 4.6 11.5 7.5a11.3 11.3 0 0 1 3.6 4.9 7.3 7.3 0 0 1-.5 5.5c-.8 1.8-1.9 3.3-2.6 5a8.4 8.4 0 0 0-.8 5.3 7 7 0 0 0 3 3.9 33.2 33.2 0 0 1 3.3 2.5 7.1 7.1 0 0 1 2 6 22.7 22.7 0 0 1-.8 4.1 10.9 10.9 0 0 0-.4 1.5 1.4 1.4 0 0 0 .1-.4l.4-1a20.3 20.3 0 0 0 1-4.2 9.4 9.4 0 0 0-.1-3 6.8 6.8 0 0 0-1.9-3.4 33.8 33.8 0 0 0-3.3-2.6 6.4 6.4 0 0 1-2.7-3.5 7.7 7.7 0 0 1 .8-4.9c.7-1.6 1.8-3.1 2.7-5a8.2 8.2 0 0 0 .5-6.1 12.2 12.2 0 0 0-3.8-5.3c-3.4-3-8-4.4-11.4-7.5a10 10 0 0 1-3.3-6 22.8 22.8 0 0 1 .4-7.3 46.1 46.1 0 0 0 .8-7.5 11.8 11.8 0 0 0-2-7.2 13.6 13.6 0 0 0-5.5-4.5 14.7 14.7 0 0 0-3.3-1.2 24.5 24.5 0 0 1-3.2-.6 11.9 11.9 0 0 1-5.3-3 6.8 6.8 0 0 1-1.5-2.6 18.6 18.6 0 0 0-1.4-2.7 31.3 31.3 0 0 0-7.2-8 13.4 13.4 0 0 0-4.2-2.4 16.2 16.2 0 0 0-4.3-.6 17.7 17.7 0 0 0-6.7 1.1 6.5 6.5 0 0 0-3.3 2.6 3 3 0 0 0-.4 1.1c0 .3-.1.4 0 .4Z"/>
  <path fill="#263238" d="M694 453.6c0 .1-139.7.2-312 .2s-312 0-312-.2 139.7-.3 312-.3 312 .1 312 .3Z"/>
  <path fill="#e0e0e0" d="M327.8 364.2a.9.9 0 0 0-.1-.3l-.4-.7-1.8-2.8a30.4 30.4 0 0 0-9-8.4 21.9 21.9 0 0 0-8-3 19.9 19.9 0 0 0-9.6 1 15.7 15.7 0 0 0-8.3 6.8c-2 3.3-2.5 7.2-3.6 11a19.9 19.9 0 0 1-2.4 5.2 15.8 15.8 0 0 1-3.9 4l-4.4 3.1a19.6 19.6 0 0 0-3.6 4 24 24 0 0 0-3.7 9 31.5 31.5 0 0 0-.5 8.4 64 64 0 0 0 2.1 12l1 3.3a7.8 7.8 0 0 0 .3 1.1 8.2 8.2 0 0 0-.2-1.1l-.8-3.3a69.7 69.7 0 0 1-2-12 31.9 31.9 0 0 1 .6-8.3 23.6 23.6 0 0 1 3.7-8.8 18.6 18.6 0 0 1 3.5-3.8l4.4-3.2a16.4 16.4 0 0 0 4.1-4 20.6 20.6 0 0 0 2.4-5.4c1.1-3.8 1.7-7.6 3.6-10.8a15.1 15.1 0 0 1 7.9-6.5 19.3 19.3 0 0 1 9.4-1 21.7 21.7 0 0 1 7.8 2.8 31.1 31.1 0 0 1 9 8.1 49 49 0 0 1 1.8 2.7 8 8 0 0 0 .7.9Z"/>
  <path fill="#e0e0e0" d="M279 377.9c1-1 1.5-.3 3 0a8.7 8.7 0 0 1 3.6 1.8 15.7 15.7 0 0 1 5.1 16.5 12.3 12.3 0 0 1-11.2-18.4m41.7-19.1c.5-1.3 1.3-1 2.6-1.3a8.7 8.7 0 0 1 4.2 0 15.7 15.7 0 0 1 11.7 12.8 12.3 12.3 0 0 1-18.1-11.8m-51.9 45.5a14.1 14.1 0 0 1 22.2 1.1 17.5 17.5 0 0 1-11.5 4.5 17.9 17.9 0 0 1-11.6-4.6m4.4-20.4a14.3 14.3 0 0 1-14.5-17.1 12.9 12.9 0 0 1 15 17m14.3-22.8a14.3 14.3 0 0 1-19.4-11.3 12.9 12.9 0 0 1 19.8 11m4.6-7.1a14.3 14.3 0 0 1 19.4 11.3 12.9 12.9 0 0 1-19.8-11m6.4-4.3a14.3 14.3 0 0 1-7.7-21.1 12.9 12.9 0 0 1 8.1 21.1m14.7.7a14.3 14.3 0 0 1 11.8-19.1 12.9 12.9 0 0 1-11.5 19.5"/>
  <path fill="#263238" d="m252.8 453.8-8.1-50.9 62.1.7-6.1 49.5"/>
  <path fill="#c53f3f" d="M279.6 393.6a10.6 10.6 0 0 0 10.3.8 11.2 11.2 0 0 0 5.7-8.9 12 12 0 0 0-17.2 7.2m29.6 11.8a10.6 10.6 0 0 0 10.3.9 11.2 11.2 0 0 0 5.6-9 12 12 0 0 0-17 7.2M292 380a10.6 10.6 0 0 0 8.2 6.5 11.2 11.2 0 0 0 9.6-4.4 12.7 12.7 0 0 0-8.3-6 12.6 12.6 0 0 0-10 2.5m10.9 14.1a10.6 10.6 0 0 0-9.2 4.6 11.2 11.2 0 0 0-.2 10.6 12 12 0 0 0 11-15m8.4 19.9a10.6 10.6 0 0 0 .3 10.3 11.2 11.2 0 0 0 9.5 4.6 12.6 12.6 0 0 0-.6-10.2c-1.7-3-4.6-4.5-8.3-5.3"/>
  <path fill="#c53f3f" d="M329 415.1a7.6 7.6 0 0 0-2.5-1.6 11 11 0 0 0-3.3-.5 41.7 41.7 0 0 0-4.6.2 13.3 13.3 0 0 1-5.7-.4 8.7 8.7 0 0 1-4.6-4.6 25.6 25.6 0 0 1-2-6.8 19.8 19.8 0 0 0-2.4-7 25 25 0 0 0-5.3-5.4 25.3 25.3 0 0 1-5-5.1 16.9 16.9 0 0 1-2.5-11.7 16.5 16.5 0 0 1 3-7.5 13.4 13.4 0 0 1 1.5-1.7 3.2 3.2 0 0 1 .6-.5 4.3 4.3 0 0 1-.5.6 15.3 15.3 0 0 0-1.4 1.7 16.8 16.8 0 0 0-2.8 7.4 16.5 16.5 0 0 0 2.6 11.3 25 25 0 0 0 5 5 24.9 24.9 0 0 1 5.3 5.5 20 20 0 0 1 2.5 7.3 25.8 25.8 0 0 0 1.9 6.7 8.2 8.2 0 0 0 4.3 4.3 13 13 0 0 0 5.4.5 36 36 0 0 1 4.7-.2 10.4 10.4 0 0 1 3.4.7 5.9 5.9 0 0 1 1.9 1.2 3 3 0 0 1 .4.5l.1.1Z"/>
  <path fill="#c53f3f" d="M329 415.1a7.6 7.6 0 0 0-2.5-1.6 11 11 0 0 0-3.3-.5 41.7 41.7 0 0 0-4.6.2 13.3 13.3 0 0 1-5.7-.4 8.7 8.7 0 0 1-4.6-4.6 25.6 25.6 0 0 1-2-6.8 19.8 19.8 0 0 0-2.4-7 25 25 0 0 0-5.3-5.4 25.3 25.3 0 0 1-5-5.1 16.9 16.9 0 0 1-2.5-11.7 16.5 16.5 0 0 1 3-7.5 13.4 13.4 0 0 1 1.5-1.7 3.2 3.2 0 0 1 .6-.5 4.3 4.3 0 0 1-.5.6 15.3 15.3 0 0 0-1.4 1.7 16.8 16.8 0 0 0-2.8 7.4 16.5 16.5 0 0 0 2.6 11.3 25 25 0 0 0 5 5 24.9 24.9 0 0 1 5.3 5.5 20 20 0 0 1 2.5 7.3 25.8 25.8 0 0 0 1.9 6.7 8.2 8.2 0 0 0 4.3 4.3 13 13 0 0 0 5.4.5 36 36 0 0 1 4.7-.2 10.4 10.4 0 0 1 3.4.7 5.9 5.9 0 0 1 1.9 1.2 3 3 0 0 1 .4.5l.1.1Zm-118.6 5.2a15.7 15.7 0 0 0-21.3-15.5 26.2 26.2 0 0 0 20.7 15.3m-3.5 2.4c-3 3.3-2.9 8.7-.7 12.7s6 6.7 9.7 9.2a20.4 20.4 0 0 0-8.8-23.1m14.5-14.4a18.1 18.1 0 0 0 20.6 16.1c-1.2-4.9-3.1-9.8-7-13.1s-9.6-4.6-13.8-1.8m.1-6.2c-.8-4.5-5.2-7.7-9.7-8.1s-8.9 1.5-12.5 4.2a16.3 16.3 0 0 0 22.2 2.2m-23.2 39.5c-4.2 3.6-5.3 10.1-3.5 15.4s5.9 9.6 10.6 12.7c1.8-5.3 2.9-11 2-16.4s-4.3-10.8-9.4-13m22.8-49a13.1 13.1 0 0 1 20.8-1.2 11.3 11.3 0 0 1-20.4.5m4.8-12.1a17 17 0 0 1-21.7-13.3 39.1 39.1 0 0 1 10.3.1 16.6 16.6 0 0 1 9 4.5 9 9 0 0 1 2.4 8.7m9.9-3.3a14 14 0 0 1-.1-21.5 29.2 29.2 0 0 1 6 13 10.9 10.9 0 0 1 0 5.3 5 5 0 0 1-3.7 3.6"/>
  <path d="M210.4 420.3a15.7 15.7 0 0 0-21.3-15.5 26.2 26.2 0 0 0 20.7 15.3m-3.5 2.4c-3 3.3-2.9 8.7-.7 12.7s6 6.7 9.7 9.2a20.4 20.4 0 0 0-8.8-23.1m14.5-14.4a18.1 18.1 0 0 0 20.6 16.1c-1.2-4.9-3.1-9.8-7-13.1s-9.6-4.6-13.8-1.8m.1-6.2c-.8-4.5-5.2-7.7-9.7-8.1s-8.9 1.5-12.5 4.2a16.3 16.3 0 0 0 22.2 2.2m-23.2 39.5c-4.2 3.6-5.3 10.1-3.5 15.4s5.9 9.6 10.6 12.7c1.8-5.3 2.9-11 2-16.4s-4.3-10.8-9.4-13m22.8-49a13.1 13.1 0 0 1 20.8-1.2 11.3 11.3 0 0 1-20.4.5m4.8-12.1a17 17 0 0 1-21.7-13.3 39.1 39.1 0 0 1 10.3.1 16.6 16.6 0 0 1 9 4.5 9 9 0 0 1 2.4 8.7m9.9-3.3a14 14 0 0 1-.1-21.5 29.2 29.2 0 0 1 6 13 10.9 10.9 0 0 1 0 5.3 5 5 0 0 1-3.7 3.6" opacity=".4"/>
  <path fill="#c53f3f" d="M252.3 404.5v-1.3l.2-4a35.2 35.2 0 0 0-2.3-14.1 21.5 21.5 0 0 0-5.6-8 15.1 15.1 0 0 0-10.4-3.8 13 13 0 0 0-5.8 1.4 11.7 11.7 0 0 0-4.5 4.3c-2.3 3.8-2.8 8.4-2.6 13s.8 9.3.3 13.7a20.8 20.8 0 0 1-1.7 6.3 13.3 13.3 0 0 1-3.8 5 19.2 19.2 0 0 1-5.3 2.8 26.8 26.8 0 0 0-5 2.2 18.1 18.1 0 0 0-6.6 7.2 17.4 17.4 0 0 0-2 7.9 18.4 18.4 0 0 0 1 6 23 23 0 0 0 2.4 4.8s0-.1-.2-.3l-.6-.8a16.4 16.4 0 0 1-1.8-3.6 18.4 18.4 0 0 1-1.1-6.1 17.6 17.6 0 0 1 1.8-8.1 18.7 18.7 0 0 1 6.8-7.4c3-2 7.1-2.6 10.2-5s4.8-6.7 5.3-11-.2-8.8-.4-13.5.4-9.5 2.8-13.4a12.3 12.3 0 0 1 4.7-4.5 13.6 13.6 0 0 1 6.1-1.5 15.7 15.7 0 0 1 10.8 4 22 22 0 0 1 5.7 8.2 29.8 29.8 0 0 1 2 8 43.3 43.3 0 0 1 .2 6.3c0 1.7-.2 3-.3 4l-.2 1a1.5 1.5 0 0 1 0 .3Z"/>
  <path d="M252.3 404.5v-1.3l.2-4a35.2 35.2 0 0 0-2.3-14.1 21.5 21.5 0 0 0-5.6-8 15.1 15.1 0 0 0-10.4-3.8 13 13 0 0 0-5.8 1.4 11.7 11.7 0 0 0-4.5 4.3c-2.3 3.8-2.8 8.4-2.6 13s.8 9.3.3 13.7a20.8 20.8 0 0 1-1.7 6.3 13.3 13.3 0 0 1-3.8 5 19.2 19.2 0 0 1-5.3 2.8 26.8 26.8 0 0 0-5 2.2 18.1 18.1 0 0 0-6.6 7.2 17.4 17.4 0 0 0-2 7.9 18.4 18.4 0 0 0 1 6 23 23 0 0 0 2.4 4.8s0-.1-.2-.3l-.6-.8a16.4 16.4 0 0 1-1.8-3.6 18.4 18.4 0 0 1-1.1-6.1 17.6 17.6 0 0 1 1.8-8.1 18.7 18.7 0 0 1 6.8-7.4c3-2 7.1-2.6 10.2-5s4.8-6.7 5.3-11-.2-8.8-.4-13.5.4-9.5 2.8-13.4a12.3 12.3 0 0 1 4.7-4.5 13.6 13.6 0 0 1 6.1-1.5 15.7 15.7 0 0 1 10.8 4 22 22 0 0 1 5.7 8.2 29.8 29.8 0 0 1 2 8 43.3 43.3 0 0 1 .2 6.3c0 1.7-.2 3-.3 4l-.2 1a1.5 1.5 0 0 1 0 .3Z" opacity=".4"/>
  <path fill="#c53f3f" d="M342.8 393.4a13.2 13.2 0 0 0 .9-4.5 11.5 11.5 0 0 0-1.2-5.3 11 11 0 0 0-5-4.9 11 11 0 0 0-4-1 12.8 12.8 0 0 0-4.5.5c-3 .7-6.1 2.5-9.7 3.2a11.3 11.3 0 0 1-5.6-.1 8.4 8.4 0 0 1-4.6-3.7c-2.1-3.4-2.7-7.6-5.4-10.7a10.7 10.7 0 0 0-4.9-3.2 13.8 13.8 0 0 0-5.7-.6 14.7 14.7 0 0 0-9.5 5 22.5 22.5 0 0 0-4.8 8.8 26.4 26.4 0 0 0-1 8.7 97.4 97.4 0 0 0 1.6 12.7l.6 3.4.1.9v.3a1.3 1.3 0 0 1 0-.3l-.3-.9-.7-3.4a86.1 86.1 0 0 1-1.8-12.7 26.5 26.5 0 0 1 1-8.9 22.9 22.9 0 0 1 4.8-9 17.2 17.2 0 0 1 4.4-3.4 14.4 14.4 0 0 1 5.5-1.8 14.2 14.2 0 0 1 6 .6 11.3 11.3 0 0 1 5.2 3.4c2.8 3.4 3.4 7.6 5.5 10.8a7.8 7.8 0 0 0 4.2 3.4 10.7 10.7 0 0 0 5.3.1c3.4-.6 6.5-2.3 9.6-3.1a13.3 13.3 0 0 1 4.6-.5 11.7 11.7 0 0 1 4.2 1.1 11.4 11.4 0 0 1 5.2 5.2 11.5 11.5 0 0 1 1.1 5.4 10.7 10.7 0 0 1-.6 3.4 5.5 5.5 0 0 1-.5 1.1Z"/>
  <path fill="#c53f3f" d="M306.4 370.9a12 12 0 0 0 11.1.7 11.2 11.2 0 0 0 5.7-9 12 12 0 0 0-17.2 7.2m12.2 11.7a12 12 0 0 0 5.2 9.9 11.2 11.2 0 0 0 10.5.2 12 12 0 0 0-15-11m19.7-1.4a12 12 0 0 0 11.1-.5 11.2 11.2 0 0 0 4.7-9.4 12.7 12.7 0 0 0-10.3.5 12.6 12.6 0 0 0-6 8.4m-48.8-14.4c-3-2.6-5-7.1-4.4-10.5a11.2 11.2 0 0 1 6.8-8 12 12 0 0 1-1.7 18.5m-80.5-14.7a1.2 1.2 0 0 1 .1-.2l.4-.8a33 33 0 0 1 1.8-2.8 30 30 0 0 1 9-8.4 21.8 21.8 0 0 1 8-3 19.7 19.7 0 0 1 9.6 1 15.7 15.7 0 0 1 8.3 6.9c2 3.3 2.5 7.2 3.7 11a19.8 19.8 0 0 0 2.3 5.2 15.4 15.4 0 0 0 3.9 3.9c1.5 1 3 2 4.4 3.2a19 19 0 0 1 3.6 4 24 24 0 0 1 3.7 9 32.4 32.4 0 0 1 .5 8.4 64.7 64.7 0 0 1-2.1 12l-1 3.3a10 10 0 0 1-.3 1 5.6 5.6 0 0 1 .2-1l.8-3.3a69.8 69.8 0 0 0 2-12 31.9 31.9 0 0 0-.6-8.3 23.7 23.7 0 0 0-3.7-8.8 18.5 18.5 0 0 0-3.5-3.8c-1.3-1.1-2.9-2-4.4-3.2a16.4 16.4 0 0 1-4.1-4 20.7 20.7 0 0 1-2.4-5.4c-1.1-3.8-1.7-7.6-3.6-10.8a15.1 15.1 0 0 0-7.9-6.5 19.2 19.2 0 0 0-9.4-1.1 21.4 21.4 0 0 0-7.8 2.8 30.8 30.8 0 0 0-9 8.1l-1.8 2.8a7.6 7.6 0 0 1-.7.8Z"/>
  <path fill="#c53f3f" d="M258.3 362.8c-1-1-1.5-.3-2.9 0a8.7 8.7 0 0 0-3.7 1.9 15.7 15.7 0 0 0-5.1 16.5 12.3 12.3 0 0 0 11.2-18.4M216 343.6c-.4-1.3-1.2-.9-2.5-1.3a8.5 8.5 0 0 0-4.2.1 15.7 15.7 0 0 0-11.7 12.7 12.3 12.3 0 0 0 18.1-11.8m51.9 45.5a14.2 14.2 0 0 0-22.3 1.1 17.5 17.5 0 0 0 11.6 4.6 18 18 0 0 0 11.6-4.7m-4.4-20.4a14.3 14.3 0 0 0 14.5-17 12.9 12.9 0 0 0-15 17m-14.3-22.8a14.3 14.3 0 0 0 19.3-11.3 12.9 12.9 0 0 0-19.7 11m-4.6-7.2a14.3 14.3 0 0 0-19.3 11.4 12.9 12.9 0 0 0 19.8-11m-6.4-4.4A14.3 14.3 0 0 0 246 314a12.9 12.9 0 0 0-8.1 21.1m-14.7.8a14.3 14.3 0 0 0-11.8-19.2 12.9 12.9 0 0 0 11.5 19.6"/>
  <path fill="#263238" d="m243.9 447.9 4.8 5.9h58.4l4-5.9h-67.2z"/>
  <path fill="#455a64" d="M309.8 447.8c0 .2-14.3.3-32 .3s-32.1-.1-32.1-.3 14.3-.3 32-.3 32.1.1 32.1.3Zm-6.5-22.2a2.5 2.5 0 0 1-.4.5 13.4 13.4 0 0 1-1.2 1.2 21.7 21.7 0 0 1-5.2 3.7 23 23 0 0 1-9.2 2.3 22 22 0 0 1-5.5-.5 32.7 32.7 0 0 1-5.7-1.9c-3.8-1.6-7.2-3.4-10.6-4.4a18.2 18.2 0 0 0-9-1 11.8 11.8 0 0 0-5.6 2.7 22.9 22.9 0 0 0-1.6 1.6 2.1 2.1 0 0 1 .3-.5 8.2 8.2 0 0 1 1.1-1.3 11.6 11.6 0 0 1 5.7-2.9 18.2 18.2 0 0 1 9.3.8c3.5 1 7 2.9 10.6 4.5a32.2 32.2 0 0 0 5.6 1.8 21.6 21.6 0 0 0 5.4.5 23 23 0 0 0 9-2.2 27.5 27.5 0 0 0 7-4.9Z"/>
  <path fill="#455a64" d="M303.8 421a2 2 0 0 1-.4.5 16 16 0 0 1-1.2 1.1 24.2 24.2 0 0 1-5.4 3.4 25.6 25.6 0 0 1-9.2 2.2 25 25 0 0 1-5.6-.4 38.2 38.2 0 0 1-5.8-1.6c-3.9-1.4-7.4-3-10.8-4a21.5 21.5 0 0 0-9.2-.9 13.8 13.8 0 0 0-5.8 2.3c-1.2.8-1.7 1.4-1.8 1.4l.4-.5a9.4 9.4 0 0 1 1.3-1.2 13.4 13.4 0 0 1 5.8-2.4 21.4 21.4 0 0 1 9.5.7c3.4.9 7 2.5 10.8 3.9a36.7 36.7 0 0 0 5.7 1.6 25 25 0 0 0 5.4.4 26 26 0 0 0 9-2 31.7 31.7 0 0 0 7.3-4.5Z"/>
</svg>
