<svg width="48" height="16" viewBox="0 0 48 16" fill="none" xmlns="http://www.w3.org/2000/svg">
<g clip-path="url(#clip0_847_2780)">
<path fill-rule="evenodd" clip-rule="evenodd" d="M16.396 19.4795C16.4538 19.4795 16.5014 19.4819 16.5389 19.4866C16.5764 19.4913 16.6064 19.4979 16.6291 19.5066C16.6517 19.5152 16.6677 19.5254 16.6771 19.5371C16.6864 19.5489 16.6911 19.5626 16.6911 19.5782V21.6694C16.6911 21.6851 16.6864 21.6988 16.6771 21.7105C16.6677 21.7223 16.6517 21.7321 16.6291 21.7399C16.6064 21.7477 16.5764 21.7536 16.5389 21.7575C16.5164 21.7599 16.4903 21.7615 16.4605 21.7625L16.396 21.7634L16.3316 21.7625L16.2769 21.7596L16.2532 21.7575C16.2157 21.7536 16.1856 21.7477 16.163 21.7399C16.1404 21.7321 16.1244 21.7223 16.115 21.7105C16.1056 21.6988 16.1009 21.6851 16.1009 21.6694V19.5782C16.1009 19.5626 16.1056 19.5489 16.115 19.5371C16.1244 19.5254 16.1404 19.5152 16.163 19.5066C16.1856 19.4979 16.2157 19.4913 16.2532 19.4866C16.2906 19.4819 16.3383 19.4795 16.396 19.4795ZM14.8344 18.8689L14.8991 18.8699C14.929 18.8708 14.9555 18.8725 14.9785 18.8748C15.0167 18.8787 15.0468 18.885 15.0686 18.8936C15.0905 18.9022 15.1061 18.9128 15.1155 18.9253C15.1248 18.9379 15.1295 18.952 15.1295 18.9676V19.4352H15.5839C15.5995 19.4352 15.6132 19.4391 15.6249 19.4469C15.6366 19.4548 15.6463 19.4677 15.6541 19.4857C15.6619 19.5037 15.6678 19.5284 15.6717 19.5597C15.6756 19.5911 15.6776 19.6294 15.6776 19.6749C15.6776 19.761 15.6698 19.8225 15.6541 19.8593C15.6385 19.8961 15.6159 19.9145 15.5862 19.9145H15.1295V20.899C15.1295 21.0134 15.1475 21.0991 15.1834 21.1563C15.2193 21.2135 15.2833 21.2421 15.3754 21.2421C15.4067 21.2421 15.4348 21.2393 15.4597 21.2339C15.4847 21.2284 15.507 21.2221 15.5265 21.2151L15.5757 21.1963C15.589 21.1908 15.6011 21.188 15.612 21.188C15.6213 21.188 15.6303 21.1908 15.6389 21.1963C15.6475 21.2017 15.6541 21.2127 15.6588 21.2292C15.6635 21.2456 15.6678 21.2679 15.6717 21.2961C15.6756 21.3243 15.6776 21.3603 15.6776 21.4042C15.6776 21.4731 15.6733 21.526 15.6647 21.5628C15.6561 21.5996 15.6448 21.6255 15.6307 21.6403C15.6167 21.6552 15.596 21.6685 15.5687 21.6803C15.5413 21.692 15.5093 21.7022 15.4726 21.7108C15.4359 21.7195 15.3961 21.7261 15.3532 21.7308C15.3103 21.7355 15.2669 21.7379 15.2232 21.7379C15.1061 21.7379 15.0046 21.723 14.9187 21.6932C14.8329 21.6635 14.7618 21.6176 14.7056 21.5558C14.6494 21.4939 14.608 21.416 14.5815 21.322C14.5549 21.228 14.5417 21.1168 14.5417 20.9883V19.9145H14.2911C14.2614 19.9145 14.2388 19.8961 14.2232 19.8593C14.2075 19.8225 14.1997 19.761 14.1997 19.6749C14.1997 19.6294 14.2017 19.5911 14.2056 19.5597C14.2095 19.5284 14.2153 19.5037 14.2232 19.4857C14.231 19.4677 14.2407 19.4548 14.2524 19.4469C14.2641 19.4391 14.2778 19.4352 14.2934 19.4352H14.5417V18.9676C14.5417 18.952 14.546 18.9379 14.5546 18.9253C14.5631 18.9128 14.5788 18.9022 14.6014 18.8936C14.624 18.885 14.6545 18.8787 14.6927 18.8748C14.731 18.8709 14.7782 18.8689 14.8344 18.8689ZM31.0165 18.5686C31.0883 18.5686 31.1602 18.574 31.232 18.585C31.3038 18.596 31.371 18.6108 31.4334 18.6296C31.4959 18.6484 31.5513 18.6696 31.5997 18.6931C31.6481 18.7166 31.6801 18.7362 31.6957 18.7518C31.7113 18.7675 31.7219 18.7808 31.7273 18.7918C31.7328 18.8027 31.7375 18.8172 31.7414 18.8352C31.7453 18.8533 31.748 18.876 31.7496 18.9034L31.7513 18.9495L31.7519 19.0056L31.751 19.0684L31.7484 19.1207C31.7461 19.1521 31.7422 19.1779 31.7367 19.1983C31.7312 19.2186 31.7234 19.2335 31.7133 19.2429C31.7031 19.2523 31.6895 19.257 31.6723 19.257C31.658 19.257 31.6366 19.2494 31.6082 19.2342L31.5903 19.2241C31.5529 19.2022 31.5068 19.1783 31.4521 19.1524C31.3975 19.1266 31.3343 19.1031 31.2624 19.082C31.1906 19.0608 31.1118 19.0502 31.0259 19.0502C30.9588 19.0502 30.9002 19.0585 30.8502 19.0749C30.8003 19.0914 30.7585 19.1141 30.7249 19.143C30.6914 19.172 30.6664 19.2069 30.65 19.2476C30.6336 19.2883 30.6254 19.3314 30.6254 19.3768C30.6254 19.4442 30.6438 19.5025 30.6804 19.5519C30.7171 19.6012 30.7663 19.6451 30.828 19.6835C30.8897 19.7218 30.9595 19.7579 31.0376 19.7915C31.1157 19.8252 31.1953 19.8609 31.2765 19.8985C31.3577 19.9361 31.4373 19.9787 31.5154 20.0265C31.5934 20.0743 31.6629 20.1315 31.7238 20.198C31.7847 20.2646 31.8339 20.3429 31.8714 20.433C31.9088 20.5231 31.9276 20.6292 31.9276 20.7514C31.9276 20.9112 31.8979 21.0514 31.8386 21.172C31.7792 21.2926 31.6988 21.3932 31.5974 21.4739C31.4959 21.5546 31.3772 21.6153 31.2414 21.656C31.1055 21.6967 30.9603 21.7171 30.8057 21.7171C30.7011 21.7171 30.6039 21.7085 30.5142 21.6912C30.4244 21.674 30.3451 21.6533 30.2764 21.629C30.2077 21.6047 30.1504 21.5792 30.1043 21.5526C30.0582 21.526 30.0251 21.5025 30.0048 21.4821C29.9845 21.4618 29.97 21.4324 29.9614 21.394C29.9529 21.3556 29.9486 21.3004 29.9486 21.2284C29.9486 21.1798 29.9501 21.1391 29.9532 21.1062C29.9564 21.0733 29.9614 21.0467 29.9685 21.0263C29.9755 21.0059 29.9849 20.9914 29.9966 20.9828C30.0083 20.9742 30.0219 20.9699 30.0376 20.9699C30.0558 20.9699 30.0802 20.9789 30.1109 20.9968L30.1301 21.0087C30.1699 21.0345 30.221 21.0631 30.2835 21.0944C30.3459 21.1258 30.4205 21.1543 30.5071 21.1802C30.5938 21.206 30.6941 21.219 30.8081 21.219C30.883 21.219 30.9502 21.21 31.0095 21.1919C31.0688 21.1739 31.1192 21.1485 31.1606 21.1156C31.2019 21.0827 31.2336 21.042 31.2554 20.9934C31.2773 20.9448 31.2882 20.8908 31.2882 20.8313C31.2882 20.7623 31.2695 20.7032 31.232 20.6539C31.1945 20.6045 31.1457 20.5607 31.0856 20.5223C31.0255 20.4839 30.9572 20.4479 30.8807 20.4142C30.8042 20.3805 30.7253 20.3449 30.6441 20.3073C30.563 20.2697 30.4841 20.227 30.4076 20.1792C30.3311 20.1315 30.2628 20.0743 30.2027 20.0077C30.1426 19.9411 30.0938 19.8624 30.0563 19.7716C30.0188 19.6807 30.0001 19.5719 30.0001 19.445C30.0001 19.2993 30.027 19.1712 30.0809 19.0608C30.1348 18.9504 30.2074 18.8587 30.2987 18.7859C30.39 18.7131 30.4978 18.6586 30.6219 18.6226C30.746 18.5866 30.8776 18.5686 31.0165 18.5686ZM26.9304 18.3997L26.9639 18.3994C27.0217 18.3994 27.0693 18.4017 27.1068 18.4064C27.1442 18.4111 27.1739 18.4178 27.1957 18.4264C27.2176 18.435 27.2332 18.4456 27.2426 18.4581C27.252 18.4706 27.2566 18.4847 27.2566 18.5004V21.5832C27.2566 21.6004 27.2527 21.6149 27.2449 21.6266C27.2371 21.6384 27.2239 21.6482 27.2051 21.656C27.1864 21.6638 27.161 21.6693 27.129 21.6724C27.097 21.6756 27.0576 21.6771 27.0107 21.6771C26.9608 21.6771 26.9202 21.6756 26.8889 21.6724C26.8577 21.6693 26.8323 21.6638 26.8128 21.656C26.7933 21.6482 26.7793 21.6384 26.7707 21.6266C26.7621 21.6149 26.7578 21.6004 26.7578 21.5832V21.3505C26.6501 21.4665 26.5373 21.5565 26.4194 21.6208C26.3015 21.685 26.1707 21.7171 26.0271 21.7171C25.8678 21.7171 25.7332 21.6862 25.6231 21.6243C25.513 21.5624 25.4232 21.479 25.3537 21.374C25.2843 21.2691 25.2339 21.1465 25.2027 21.0063C25.1715 20.8661 25.1558 20.7185 25.1558 20.5634C25.1558 20.377 25.1757 20.2094 25.2156 20.0606C25.2554 19.9118 25.3135 19.7849 25.39 19.6799C25.4666 19.575 25.5618 19.4943 25.6758 19.4379C25.7898 19.3815 25.9209 19.3533 26.0692 19.3533C26.1863 19.3533 26.2925 19.3772 26.3877 19.425C26.483 19.4728 26.5775 19.5429 26.6711 19.6353V18.5004C26.6711 18.4847 26.6754 18.4706 26.684 18.4581C26.6926 18.4456 26.7082 18.435 26.7309 18.4264C26.7535 18.4178 26.7836 18.4111 26.821 18.4064C26.851 18.4027 26.8875 18.4004 26.9304 18.3997ZM20.5082 19.3533C20.5738 19.3533 20.6374 19.358 20.699 19.3674C20.7607 19.3768 20.8165 19.3886 20.8665 19.4027C20.9165 19.4168 20.9586 19.4321 20.993 19.4485L21.0295 19.4671C21.0454 19.4758 21.0578 19.4837 21.0667 19.4908C21.0816 19.5025 21.0921 19.5143 21.0984 19.526C21.1046 19.5378 21.1093 19.5519 21.1124 19.5683C21.1155 19.5848 21.1183 19.6051 21.1206 19.6294C21.1224 19.6476 21.1235 19.6691 21.1239 19.694L21.1241 19.7199C21.1241 19.7622 21.123 19.7966 21.1206 19.8233C21.1183 19.8499 21.1144 19.871 21.1089 19.8867C21.1034 19.9024 21.096 19.9129 21.0867 19.9184C21.0773 19.9239 21.0664 19.9267 21.0539 19.9267C21.0426 19.9267 21.0264 19.9214 21.0052 19.9109L20.9883 19.902C20.9586 19.8855 20.9215 19.8679 20.877 19.8491C20.8325 19.8303 20.781 19.8127 20.7225 19.7962C20.6639 19.7798 20.5972 19.7716 20.5222 19.7716C20.4691 19.7716 20.4231 19.7771 20.384 19.788C20.345 19.799 20.313 19.8147 20.288 19.835C20.263 19.8554 20.2443 19.8793 20.2318 19.9067C20.2193 19.9341 20.2131 19.9635 20.2131 19.9948C20.2131 20.0434 20.2279 20.0841 20.2576 20.117C20.2872 20.1499 20.3263 20.1789 20.3747 20.2039C20.411 20.2227 20.451 20.2406 20.4948 20.2577L20.5398 20.2744C20.6015 20.2963 20.6639 20.3202 20.7272 20.3461C20.7904 20.3719 20.8528 20.4021 20.9145 20.4365C20.9762 20.471 21.0312 20.5133 21.0796 20.5634C21.128 20.6135 21.1671 20.6735 21.1967 20.7432C21.2264 20.8129 21.2412 20.8955 21.2412 20.991C21.2412 21.1101 21.219 21.215 21.1745 21.3059C21.13 21.3968 21.0671 21.4727 20.9859 21.5338C20.9048 21.5949 20.8087 21.6407 20.6979 21.6713C20.587 21.7018 20.4668 21.7171 20.3372 21.7171C20.2591 21.7171 20.1846 21.7112 20.1135 21.6995C20.0425 21.6877 19.9789 21.6728 19.9227 21.6548C19.8665 21.6368 19.8196 21.6184 19.7821 21.5996C19.7447 21.5808 19.7173 21.5632 19.7002 21.5467C19.683 21.5303 19.6697 21.5044 19.6604 21.4692C19.651 21.434 19.6463 21.3819 19.6463 21.313C19.6463 21.2675 19.6479 21.2311 19.651 21.2037C19.6541 21.1763 19.6588 21.1543 19.665 21.1379C19.6713 21.1215 19.6791 21.1105 19.6885 21.105C19.6978 21.0995 19.7095 21.0968 19.7236 21.0968C19.7373 21.0968 19.7563 21.103 19.7806 21.1156L19.7997 21.1262C19.8333 21.1457 19.875 21.1673 19.925 21.1908C19.975 21.2143 20.0331 21.2362 20.0995 21.2566C20.1658 21.2769 20.2412 21.2871 20.3255 21.2871C20.3786 21.2871 20.4258 21.2816 20.4672 21.2707C20.5086 21.2597 20.5445 21.244 20.5749 21.2237C20.6054 21.2033 20.6284 21.1775 20.644 21.1461C20.6596 21.1148 20.6674 21.0788 20.6674 21.038C20.6674 20.991 20.653 20.9507 20.6241 20.917C20.5952 20.8834 20.557 20.854 20.5093 20.8289C20.4736 20.8101 20.4344 20.7922 20.3917 20.7752L20.3477 20.7584C20.2876 20.7365 20.226 20.7122 20.1627 20.6856C20.0995 20.659 20.0378 20.6284 19.9777 20.594C19.9176 20.5595 19.8637 20.5172 19.8161 20.4671C19.7685 20.4169 19.7302 20.3566 19.7013 20.2861C19.6725 20.2157 19.658 20.1311 19.658 20.0324C19.658 19.9321 19.6775 19.8401 19.7166 19.7563C19.7556 19.6725 19.8118 19.6008 19.8852 19.5413C19.9586 19.4818 20.048 19.4356 20.1534 19.4027C20.2587 19.3698 20.377 19.3533 20.5082 19.3533ZM34.3718 19.3533C34.4374 19.3533 34.501 19.358 34.5627 19.3674C34.6244 19.3768 34.6802 19.3886 34.7301 19.4027C34.7801 19.4168 34.8223 19.4321 34.8566 19.4485C34.891 19.4649 34.9156 19.479 34.9304 19.4908C34.9452 19.5025 34.9558 19.5143 34.962 19.526C34.9683 19.5378 34.9729 19.5519 34.9761 19.5683C34.9792 19.5848 34.9819 19.6051 34.9843 19.6294C34.986 19.6476 34.9871 19.6691 34.9875 19.694L34.9878 19.7199C34.9878 19.7622 34.9866 19.7966 34.9843 19.8233C34.9819 19.8499 34.978 19.871 34.9725 19.8867C34.9671 19.9024 34.9597 19.9129 34.9503 19.9184C34.9409 19.9239 34.93 19.9267 34.9175 19.9267C34.9063 19.9267 34.89 19.9214 34.8688 19.9109L34.8519 19.902C34.8223 19.8855 34.7852 19.8679 34.7407 19.8491C34.6962 19.8303 34.6447 19.8127 34.5861 19.7962C34.5276 19.7798 34.4608 19.7716 34.3859 19.7716C34.3328 19.7716 34.2867 19.7771 34.2477 19.788C34.2087 19.799 34.1766 19.8147 34.1517 19.835C34.1267 19.8554 34.1079 19.8793 34.0955 19.9067C34.083 19.9341 34.0767 19.9635 34.0767 19.9948C34.0767 20.0434 34.0916 20.0841 34.1212 20.117C34.1509 20.1499 34.1899 20.1789 34.2383 20.2039C34.2867 20.229 34.3418 20.2525 34.4034 20.2744C34.4651 20.2963 34.5276 20.3202 34.5908 20.3461C34.654 20.3719 34.7165 20.4021 34.7782 20.4365C34.8398 20.471 34.8949 20.5133 34.9433 20.5634C34.9917 20.6135 35.0307 20.6735 35.0604 20.7432C35.09 20.8129 35.1049 20.8955 35.1049 20.991C35.1049 21.1101 35.0826 21.215 35.0381 21.3059C34.9936 21.3968 34.9308 21.4727 34.8496 21.5338C34.7684 21.5949 34.6724 21.6407 34.5615 21.6713C34.4507 21.7018 34.3304 21.7171 34.2008 21.7171C34.1228 21.7171 34.0482 21.7112 33.9772 21.6995C33.9061 21.6877 33.8425 21.6728 33.7863 21.6548C33.7301 21.6368 33.6833 21.6184 33.6458 21.5996C33.6083 21.5808 33.581 21.5632 33.5638 21.5467C33.5466 21.5303 33.5334 21.5044 33.524 21.4692C33.5146 21.434 33.5099 21.3819 33.5099 21.313C33.5099 21.2675 33.5115 21.2311 33.5146 21.2037C33.5178 21.1763 33.5224 21.1543 33.5287 21.1379C33.5349 21.1215 33.5427 21.1105 33.5521 21.105C33.5615 21.0995 33.5732 21.0968 33.5872 21.0968C33.601 21.0968 33.62 21.103 33.6442 21.1156L33.6633 21.1262C33.6969 21.1457 33.7387 21.1673 33.7886 21.1908C33.8386 21.2143 33.8968 21.2362 33.9631 21.2566C34.0295 21.2769 34.1048 21.2871 34.1891 21.2871C34.2422 21.2871 34.2895 21.2816 34.3308 21.2707C34.3722 21.2597 34.4081 21.244 34.4386 21.2237C34.469 21.2033 34.492 21.1775 34.5077 21.1461C34.5233 21.1148 34.5311 21.0788 34.5311 21.038C34.5311 20.991 34.5166 20.9507 34.4877 20.917C34.4589 20.8834 34.4206 20.854 34.373 20.8289C34.3373 20.8101 34.298 20.7922 34.2553 20.7752L34.2114 20.7584C34.1513 20.7365 34.0896 20.7122 34.0264 20.6856C33.9631 20.659 33.9015 20.6284 33.8413 20.594C33.7812 20.5595 33.7274 20.5172 33.6797 20.4671C33.6321 20.4169 33.5939 20.3566 33.565 20.2861C33.5361 20.2157 33.5217 20.1311 33.5217 20.0324C33.5217 19.9321 33.5412 19.8401 33.5802 19.7563C33.6192 19.6725 33.6754 19.6008 33.7488 19.5413C33.8222 19.4818 33.9116 19.4356 34.017 19.4027C34.1224 19.3698 34.2407 19.3533 34.3718 19.3533ZM45.1775 18.3997L45.211 18.3994C45.2687 18.3994 45.3164 18.4017 45.3538 18.4064C45.3913 18.4111 45.421 18.4178 45.4428 18.4264C45.4647 18.435 45.4803 18.4456 45.4897 18.4581C45.499 18.4706 45.5037 18.4847 45.5037 18.5004V21.5832C45.5037 21.6004 45.4998 21.6149 45.492 21.6266C45.4842 21.6384 45.4709 21.6482 45.4522 21.656C45.4335 21.6638 45.4081 21.6693 45.3761 21.6724C45.3441 21.6756 45.3046 21.6771 45.2578 21.6771C45.2078 21.6771 45.1673 21.6756 45.136 21.6724C45.1048 21.6693 45.0794 21.6638 45.0599 21.656C45.0404 21.6482 45.0263 21.6384 45.0177 21.6266C45.0092 21.6149 45.0049 21.6004 45.0049 21.5832V21.3505C44.8971 21.4665 44.7843 21.5565 44.6664 21.6208C44.5486 21.685 44.4178 21.7171 44.2742 21.7171C44.1149 21.7171 43.9802 21.6862 43.8702 21.6243C43.7601 21.5624 43.6703 21.479 43.6008 21.374C43.5313 21.2691 43.481 21.1465 43.4498 21.0063C43.4185 20.8661 43.4029 20.7185 43.4029 20.5634C43.4029 20.377 43.4228 20.2094 43.4626 20.0606C43.5025 19.9118 43.5606 19.7849 43.6371 19.6799C43.7136 19.575 43.8089 19.4943 43.9229 19.4379C44.0368 19.3815 44.168 19.3533 44.3163 19.3533C44.4334 19.3533 44.5396 19.3772 44.6348 19.425C44.7301 19.4728 44.8245 19.5429 44.9182 19.6353V18.5004C44.9182 18.4847 44.9225 18.4706 44.9311 18.4581C44.9397 18.4456 44.9553 18.435 44.9779 18.4264C45.0006 18.4178 45.0306 18.4111 45.0681 18.4064C45.0981 18.4027 45.1346 18.4004 45.1775 18.3997ZM3.03723 18.5686C3.10905 18.5686 3.18088 18.574 3.2527 18.585C3.32452 18.596 3.39166 18.6108 3.45411 18.6296C3.51657 18.6484 3.57199 18.6696 3.6204 18.6931C3.6688 18.7166 3.70081 18.7362 3.71642 18.7518C3.73203 18.7675 3.74257 18.7808 3.74804 18.7918C3.7535 18.8027 3.75819 18.8172 3.76209 18.8352C3.76599 18.8533 3.76873 18.876 3.77029 18.9034L3.77204 18.9495L3.77263 19.0056C3.77263 19.051 3.77146 19.0894 3.76912 19.1207C3.76677 19.1521 3.76287 19.1779 3.75741 19.1983C3.75194 19.2186 3.74413 19.2335 3.73399 19.2429C3.72384 19.2523 3.71017 19.257 3.693 19.257C3.67869 19.257 3.65733 19.2494 3.62892 19.2342L3.61103 19.2241C3.57356 19.2022 3.5275 19.1783 3.47285 19.1524C3.4182 19.1266 3.35497 19.1031 3.28314 19.082C3.21132 19.0608 3.13247 19.0502 3.0466 19.0502C2.97946 19.0502 2.92091 19.0585 2.87095 19.0749C2.82098 19.0914 2.77922 19.1141 2.74565 19.143C2.71208 19.172 2.6871 19.2069 2.6707 19.2476C2.65431 19.2883 2.64611 19.3314 2.64611 19.3768C2.64611 19.4442 2.66446 19.5025 2.70115 19.5519C2.73784 19.6012 2.78702 19.6451 2.8487 19.6835C2.91037 19.7218 2.98024 19.7579 3.05831 19.7915C3.13638 19.8252 3.21601 19.8609 3.2972 19.8985C3.37839 19.9361 3.45802 19.9787 3.53608 20.0265C3.61415 20.0743 3.68363 20.1315 3.74452 20.198C3.80542 20.2646 3.8546 20.3429 3.89207 20.433C3.92955 20.5231 3.94828 20.6292 3.94828 20.7514C3.94828 20.9112 3.91862 21.0514 3.85928 21.172C3.79995 21.2926 3.71954 21.3932 3.61805 21.4739C3.51657 21.5546 3.3979 21.6153 3.26207 21.656C3.12623 21.6967 2.98102 21.7171 2.82645 21.7171C2.72184 21.7171 2.62464 21.7085 2.53486 21.6912C2.44509 21.674 2.36585 21.6533 2.29715 21.629C2.22845 21.6047 2.17107 21.5792 2.12501 21.5526C2.07895 21.526 2.04577 21.5025 2.02547 21.4821C2.00517 21.4618 1.99073 21.4324 1.98214 21.394C1.97356 21.3556 1.96926 21.3004 1.96926 21.2284C1.96926 21.1798 1.97083 21.1391 1.97395 21.1062C1.97707 21.0733 1.98214 21.0467 1.98917 21.0263C1.9962 21.0059 2.00557 20.9914 2.01728 20.9828C2.02899 20.9742 2.04265 20.9699 2.05826 20.9699C2.07648 20.9699 2.10093 20.9789 2.13161 20.9968L2.15077 21.0087C2.19059 21.0345 2.24172 21.0631 2.30417 21.0944C2.36663 21.1258 2.44118 21.1543 2.52784 21.1802C2.61449 21.206 2.71481 21.219 2.82879 21.219C2.90374 21.219 2.97087 21.21 3.0302 21.1919C3.08954 21.1739 3.13989 21.1485 3.18127 21.1156C3.22264 21.0827 3.25426 21.042 3.27612 20.9934C3.29798 20.9448 3.30891 20.8908 3.30891 20.8313C3.30891 20.7623 3.29017 20.7032 3.2527 20.6539C3.21522 20.6045 3.16643 20.5607 3.10632 20.5223C3.04621 20.4839 2.9779 20.4479 2.90139 20.4142C2.82489 20.3805 2.74604 20.3449 2.66485 20.3073C2.58366 20.2697 2.50481 20.227 2.4283 20.1792C2.3518 20.1315 2.28349 20.0743 2.22337 20.0077C2.16326 19.9411 2.11447 19.8624 2.077 19.7716C2.03952 19.6807 2.02079 19.5719 2.02079 19.445C2.02079 19.2993 2.04772 19.1712 2.10159 19.0608C2.15546 18.9504 2.22806 18.8587 2.3194 18.7859C2.41074 18.7131 2.51847 18.6586 2.6426 18.6226C2.76673 18.5866 2.89827 18.5686 3.03723 18.5686ZM22.5875 19.3533C22.7514 19.3533 22.8916 19.3694 23.0079 19.4015C23.1242 19.4336 23.2198 19.483 23.2948 19.5495C23.3697 19.6161 23.4244 19.7019 23.4587 19.8068C23.4931 19.9118 23.5102 20.0363 23.5102 20.1804V21.5902C23.5102 21.6121 23.5024 21.6294 23.4868 21.6419C23.4712 21.6544 23.4466 21.6634 23.413 21.6689C23.3851 21.6735 23.346 21.6762 23.2958 21.6769L23.2643 21.6771C23.1941 21.6771 23.1429 21.6744 23.1109 21.6689C23.0789 21.6634 23.0563 21.6544 23.043 21.6419C23.0297 21.6294 23.0231 21.6121 23.0231 21.5902V21.4234C22.9372 21.5158 22.8392 21.5879 22.7292 21.6396C22.6191 21.6912 22.4969 21.7171 22.3626 21.7171C22.2518 21.7171 22.1499 21.7026 22.057 21.6736C21.9641 21.6446 21.8837 21.6016 21.8158 21.5444C21.7479 21.4872 21.6952 21.4163 21.6577 21.3317C21.6202 21.2472 21.6015 21.1485 21.6015 21.0357C21.6015 20.9135 21.6253 20.8074 21.6729 20.7173C21.7205 20.6272 21.7916 20.5528 21.886 20.4941C21.9805 20.4354 22.098 20.3919 22.2385 20.3637C22.379 20.3355 22.5422 20.3214 22.728 20.3214H22.9318V20.1945C22.9318 20.1287 22.9251 20.0712 22.9118 20.0218C22.8986 19.9725 22.8767 19.9314 22.8463 19.8985C22.8158 19.8656 22.7752 19.8413 22.7245 19.8256C22.6737 19.81 22.6109 19.8021 22.536 19.8021C22.4376 19.8021 22.3498 19.8131 22.2725 19.835C22.1952 19.8569 22.1269 19.8812 22.0675 19.9079C22.0082 19.9345 21.9586 19.9588 21.9188 19.9807C21.879 20.0026 21.8466 20.0136 21.8216 20.0136C21.8045 20.0136 21.7892 20.0081 21.776 19.9971C21.7627 19.9862 21.7518 19.9705 21.7432 19.9501C21.7346 19.9298 21.7279 19.9047 21.7233 19.875C21.7186 19.8452 21.7162 19.8123 21.7162 19.7763C21.7162 19.7277 21.7201 19.6893 21.728 19.6611C21.7358 19.6329 21.7506 19.6075 21.7724 19.5848C21.7943 19.5621 21.8326 19.537 21.8872 19.5096C21.9419 19.4822 22.0059 19.4567 22.0793 19.4332C22.1526 19.4097 22.2327 19.3905 22.3193 19.3757C22.406 19.3608 22.4954 19.3533 22.5875 19.3533ZM10.3689 19.3533C10.5328 19.3533 10.6729 19.3694 10.7893 19.4015C10.9056 19.4336 11.0012 19.483 11.0762 19.5495C11.1511 19.6161 11.2058 19.7019 11.2401 19.8068C11.2745 19.9118 11.2916 20.0363 11.2916 20.1804V21.5902C11.2916 21.6121 11.2838 21.6294 11.2682 21.6419C11.2526 21.6544 11.228 21.6634 11.1944 21.6689C11.1665 21.6735 11.1274 21.6762 11.0772 21.6769L11.0457 21.6771C10.9755 21.6771 10.9243 21.6744 10.8923 21.6689C10.8603 21.6634 10.8377 21.6544 10.8244 21.6419C10.8111 21.6294 10.8045 21.6121 10.8045 21.5902V21.4234C10.7186 21.5158 10.6206 21.5879 10.5106 21.6396C10.4005 21.6912 10.2783 21.7171 10.144 21.7171C10.0332 21.7171 9.9313 21.7026 9.8384 21.6736C9.74549 21.6446 9.66509 21.6016 9.59717 21.5444C9.52925 21.4872 9.47655 21.4163 9.43908 21.3317C9.40161 21.2472 9.38287 21.1485 9.38287 21.0357C9.38287 20.9135 9.40668 20.8074 9.4543 20.7173C9.50192 20.6272 9.57296 20.5528 9.66743 20.4941C9.76189 20.4354 9.87938 20.3919 10.0199 20.3637C10.1604 20.3355 10.3236 20.3214 10.5094 20.3214H10.7131V20.1945C10.7131 20.1287 10.7065 20.0712 10.6932 20.0218C10.68 19.9725 10.6581 19.9314 10.6277 19.8985C10.5972 19.8656 10.5566 19.8413 10.5059 19.8256C10.4551 19.81 10.3923 19.8021 10.3173 19.8021C10.219 19.8021 10.1312 19.8131 10.0539 19.835C9.97657 19.8569 9.90827 19.8812 9.84893 19.9079C9.7896 19.9345 9.74003 19.9588 9.70022 19.9807C9.6604 20.0026 9.628 20.0136 9.60302 20.0136C9.58585 20.0136 9.57062 20.0081 9.55735 19.9971C9.54408 19.9862 9.53315 19.9705 9.52456 19.9501C9.51597 19.9298 9.50934 19.9047 9.50466 19.875C9.49997 19.8452 9.49763 19.8123 9.49763 19.7763C9.49763 19.7277 9.50153 19.6893 9.50934 19.6611C9.51715 19.6329 9.53198 19.6075 9.55384 19.5848C9.5757 19.5621 9.61395 19.537 9.6686 19.5096C9.72325 19.4822 9.78726 19.4567 9.86064 19.4332C9.93403 19.4097 10.014 19.3905 10.1007 19.3757C10.1874 19.3608 10.2767 19.3533 10.3689 19.3533ZM46.9999 19.3533C47.1638 19.3533 47.3039 19.3694 47.4203 19.4015C47.5366 19.4336 47.6322 19.483 47.7072 19.5495C47.7821 19.6161 47.8367 19.7019 47.8711 19.8068C47.9054 19.9118 47.9226 20.0363 47.9226 20.1804V21.5902C47.9226 21.6121 47.9148 21.6294 47.8992 21.6419C47.8836 21.6544 47.859 21.6634 47.8254 21.6689C47.7974 21.6735 47.7584 21.6762 47.7082 21.6769L47.6767 21.6771C47.6064 21.6771 47.5553 21.6744 47.5233 21.6689C47.4913 21.6634 47.4687 21.6544 47.4554 21.6419C47.4421 21.6294 47.4355 21.6121 47.4355 21.5902V21.4234C47.3496 21.5158 47.2516 21.5879 47.1415 21.6396C47.0315 21.6912 46.9093 21.7171 46.775 21.7171C46.6642 21.7171 46.5623 21.7026 46.4694 21.6736C46.3765 21.6446 46.2961 21.6016 46.2282 21.5444C46.1602 21.4872 46.1075 21.4163 46.0701 21.3317C46.0326 21.2472 46.0139 21.1485 46.0139 21.0357C46.0139 20.9135 46.0377 20.8074 46.0853 20.7173C46.1329 20.6272 46.204 20.5528 46.2984 20.4941C46.3929 20.4354 46.5104 20.3919 46.6509 20.3637C46.7914 20.3355 46.9546 20.3214 47.1404 20.3214H47.3441V20.1945C47.3441 20.1287 47.3375 20.0712 47.3242 20.0218C47.311 19.9725 47.2891 19.9314 47.2587 19.8985C47.2282 19.8656 47.1876 19.8413 47.1369 19.8256C47.0861 19.81 47.0233 19.8021 46.9483 19.8021C46.85 19.8021 46.7621 19.8131 46.6849 19.835C46.6076 19.8569 46.5393 19.8812 46.4799 19.9079C46.4206 19.9345 46.371 19.9588 46.3312 19.9807C46.2914 20.0026 46.259 20.0136 46.234 20.0136C46.2168 20.0136 46.2016 20.0081 46.1883 19.9971C46.1751 19.9862 46.1641 19.9705 46.1556 19.9501C46.147 19.9298 46.1403 19.9047 46.1356 19.875C46.131 19.8452 46.1286 19.8123 46.1286 19.7763C46.1286 19.7277 46.1325 19.6893 46.1403 19.6611C46.1481 19.6329 46.163 19.6075 46.1848 19.5848C46.2067 19.5621 46.2449 19.537 46.2996 19.5096C46.3542 19.4822 46.4183 19.4567 46.4916 19.4332C46.565 19.4097 46.645 19.3905 46.7317 19.3757C46.8183 19.3608 46.9077 19.3533 46.9999 19.3533ZM18.2134 19.3533C18.3773 19.3533 18.5175 19.3694 18.6338 19.4015C18.7501 19.4336 18.8458 19.483 18.9207 19.5495C18.9956 19.6161 19.0503 19.7019 19.0846 19.8068C19.119 19.9118 19.1362 20.0363 19.1362 20.1804V21.5902C19.1362 21.6121 19.1284 21.6294 19.1127 21.6419C19.0971 21.6544 19.0725 21.6634 19.039 21.6689C19.011 21.6735 18.9719 21.6762 18.9217 21.6769L18.8903 21.6771C18.82 21.6771 18.7689 21.6744 18.7369 21.6689C18.7048 21.6634 18.6822 21.6544 18.6689 21.6419C18.6557 21.6294 18.649 21.6121 18.649 21.5902V21.4234C18.5631 21.5158 18.4652 21.5879 18.3551 21.6396C18.245 21.6912 18.1228 21.7171 17.9886 21.7171C17.8777 21.7171 17.7758 21.7026 17.6829 21.6736C17.59 21.6446 17.5096 21.6016 17.4417 21.5444C17.3738 21.4872 17.3211 21.4163 17.2836 21.3317C17.2461 21.2472 17.2274 21.1485 17.2274 21.0357C17.2274 20.9135 17.2512 20.8074 17.2988 20.7173C17.3465 20.6272 17.4175 20.5528 17.512 20.4941C17.6064 20.4354 17.7239 20.3919 17.8644 20.3637C18.005 20.3355 18.1681 20.3214 18.3539 20.3214H18.5577V20.1945C18.5577 20.1287 18.551 20.0712 18.5378 20.0218C18.5245 19.9725 18.5026 19.9314 18.4722 19.8985C18.4418 19.8656 18.4012 19.8413 18.3504 19.8256C18.2997 19.81 18.2368 19.8021 18.1619 19.8021C18.0635 19.8021 17.9757 19.8131 17.8984 19.835C17.8211 19.8569 17.7528 19.8812 17.6935 19.9079C17.6341 19.9345 17.5846 19.9588 17.5448 19.9807C17.5049 20.0026 17.4725 20.0136 17.4476 20.0136C17.4304 20.0136 17.4152 20.0081 17.4019 19.9971C17.3886 19.9862 17.3777 19.9705 17.3691 19.9501C17.3605 19.9298 17.3539 19.9047 17.3492 19.875C17.3445 19.8452 17.3422 19.8123 17.3422 19.7763C17.3422 19.7277 17.3461 19.6893 17.3539 19.6611C17.3617 19.6329 17.3765 19.6075 17.3984 19.5848C17.4202 19.5621 17.4585 19.537 17.5131 19.5096C17.5678 19.4822 17.6318 19.4567 17.7052 19.4332C17.7786 19.4097 17.8586 19.3905 17.9452 19.3757C18.0319 19.3608 18.1213 19.3533 18.2134 19.3533ZM5.37416 19.3533C5.54903 19.3533 5.69853 19.3792 5.82266 19.4309C5.94678 19.4826 6.04866 19.5542 6.12829 19.6459C6.20792 19.7375 6.26647 19.846 6.30394 19.9713C6.34142 20.0966 6.36015 20.2329 6.36015 20.3801V20.4741C6.36015 20.5462 6.34415 20.5994 6.31214 20.6339C6.28013 20.6684 6.23602 20.6856 6.17982 20.6856H4.90809C4.90809 20.7749 4.91863 20.8559 4.93971 20.9288C4.96079 21.0016 4.99436 21.0635 5.04042 21.1144C5.08648 21.1653 5.14581 21.2041 5.21841 21.2307C5.29101 21.2573 5.37806 21.2707 5.47955 21.2707C5.5826 21.2707 5.67316 21.2632 5.75122 21.2483C5.82929 21.2335 5.89682 21.217 5.95381 21.199L6.01751 21.1781L6.07185 21.1588L6.0955 21.1496C6.13298 21.1348 6.16342 21.1273 6.18684 21.1273C6.20089 21.1273 6.2126 21.1301 6.22197 21.1356C6.23134 21.141 6.23915 21.1508 6.24539 21.1649C6.25164 21.179 6.25593 21.199 6.25827 21.2248C6.26003 21.2442 6.26113 21.2674 6.26157 21.2942L6.26179 21.3223C6.26179 21.3568 6.26101 21.3862 6.25944 21.4105C6.25788 21.4347 6.25554 21.4555 6.25242 21.4727C6.2493 21.49 6.24461 21.5044 6.23837 21.5162C6.23212 21.5279 6.22392 21.5393 6.21377 21.5503C6.20363 21.5612 6.17591 21.5761 6.13063 21.5949C6.08535 21.6137 6.02758 21.6321 5.95732 21.6501C5.88706 21.6681 5.80665 21.6838 5.71609 21.6971C5.62553 21.7104 5.52873 21.7171 5.42568 21.7171C5.23988 21.7171 5.07711 21.6936 4.93737 21.6466C4.79763 21.5996 4.68091 21.5283 4.58723 21.4328C4.49355 21.3372 4.42368 21.2166 4.37762 21.0709C4.33156 20.9253 4.30853 20.7545 4.30853 20.5587C4.30853 20.3723 4.33273 20.2043 4.38113 20.0547C4.42954 19.9051 4.4998 19.7782 4.59192 19.6741C4.68404 19.5699 4.79606 19.4904 4.928 19.4356C5.05993 19.3808 5.20865 19.3533 5.37416 19.3533ZM42.1316 19.3533C42.2737 19.3533 42.3935 19.3768 42.4911 19.4238C42.5887 19.4708 42.6676 19.5347 42.7277 19.6153C42.7878 19.696 42.8311 19.7904 42.8576 19.8985C42.8842 20.0065 42.8975 20.1366 42.8975 20.2885V21.5832C42.8975 21.5988 42.8928 21.6125 42.8834 21.6243C42.874 21.636 42.8584 21.6458 42.8366 21.6537C42.8147 21.6615 42.7847 21.6674 42.7464 21.6713C42.7158 21.6744 42.6795 21.6763 42.6374 21.6769L42.6047 21.6771C42.5469 21.6771 42.4989 21.6752 42.4607 21.6713C42.4224 21.6674 42.3924 21.6615 42.3705 21.6537C42.3486 21.6458 42.333 21.636 42.3237 21.6243C42.3143 21.6125 42.3096 21.5988 42.3096 21.5832V20.3872C42.3096 20.2854 42.3022 20.2055 42.2874 20.1475C42.2725 20.0896 42.2511 20.0398 42.223 19.9983C42.1949 19.9568 42.1586 19.9247 42.1141 19.902C42.0696 19.8793 42.0176 19.8679 41.9583 19.8679C41.8834 19.8679 41.8076 19.8953 41.7311 19.9501C41.6546 20.005 41.575 20.0849 41.4922 20.1898V21.5832C41.4922 21.5988 41.4876 21.6125 41.4782 21.6243C41.4688 21.636 41.4528 21.6458 41.4302 21.6537C41.4075 21.6615 41.3775 21.6674 41.34 21.6713C41.31 21.6744 41.2736 21.6763 41.2306 21.6769L41.1971 21.6771C41.1394 21.6771 41.0918 21.6752 41.0543 21.6713C41.0168 21.6674 40.9868 21.6615 40.9641 21.6537C40.9415 21.6458 40.9255 21.636 40.9161 21.6243C40.9067 21.6125 40.9021 21.5988 40.9021 21.5832V19.4873C40.9021 19.4716 40.906 19.4579 40.9138 19.4461C40.9216 19.4344 40.9356 19.4246 40.9559 19.4168C40.9762 19.4089 41.0024 19.4031 41.0344 19.3992C41.0664 19.3952 41.1066 19.3933 41.155 19.3933L41.2108 19.3942C41.2367 19.3952 41.2594 19.3968 41.2791 19.3992C41.3119 19.4031 41.3373 19.4089 41.3552 19.4168C41.3732 19.4246 41.3861 19.4344 41.3939 19.4461C41.4017 19.4579 41.4056 19.4716 41.4056 19.4873V19.7293C41.5211 19.604 41.6386 19.51 41.7581 19.4473C41.8775 19.3847 42.002 19.3533 42.1316 19.3533ZM39.0442 18.6086L39.1908 18.6091L39.3029 18.612C39.3575 18.6144 39.4001 18.6199 39.4305 18.6285C39.461 18.6371 39.4828 18.65 39.4961 18.6672C39.506 18.6802 39.5149 18.6966 39.5227 18.7166L40.4669 21.4328C40.4856 21.4892 40.4973 21.5338 40.502 21.5667C40.5067 21.5996 40.5004 21.6243 40.4832 21.6407C40.4661 21.6572 40.4356 21.6674 40.3919 21.6713C40.3628 21.6739 40.3263 21.6756 40.2826 21.6765L40.2116 21.6771C40.1319 21.6771 40.0699 21.676 40.0254 21.6736C39.9809 21.6713 39.9469 21.6666 39.9235 21.6595C39.9001 21.6525 39.8837 21.6427 39.8743 21.6302C39.865 21.6176 39.8571 21.6012 39.8509 21.5808L39.6471 20.9699H38.5089L38.3169 21.5644C38.3106 21.5863 38.3024 21.6047 38.2923 21.6196C38.2821 21.6345 38.2657 21.6462 38.2431 21.6548C38.2205 21.6634 38.1884 21.6693 38.1471 21.6724L38.1034 21.675L38.0518 21.6765L37.9843 21.6771C37.9125 21.6771 37.8563 21.6748 37.8157 21.6701C37.7751 21.6654 37.747 21.654 37.7314 21.636C37.7157 21.618 37.7103 21.5926 37.715 21.5597C37.7197 21.5268 37.7314 21.4829 37.7501 21.4281L38.6846 18.7307C38.6939 18.7041 38.7049 18.6825 38.7174 18.6661C38.7299 18.6496 38.7498 18.6371 38.7771 18.6285C38.8044 18.6199 38.8423 18.6144 38.8907 18.612L38.975 18.6094L39.0442 18.6086ZM35.889 19.3933C35.9468 19.3933 35.9944 19.3956 36.0319 19.4003C36.0694 19.405 36.0994 19.4117 36.1221 19.4203C36.1447 19.4289 36.1607 19.4391 36.1701 19.4508C36.1794 19.4626 36.1841 19.4763 36.1841 19.492V21.5832C36.1841 21.5988 36.1794 21.6125 36.1701 21.6243C36.1607 21.636 36.1447 21.6458 36.1221 21.6537C36.0994 21.6615 36.0694 21.6674 36.0319 21.6713C36.0019 21.6744 35.9654 21.6763 35.9225 21.6769L35.889 21.6771C35.8313 21.6771 35.7836 21.6752 35.7462 21.6713C35.7087 21.6674 35.6786 21.6615 35.656 21.6537C35.6334 21.6458 35.6174 21.636 35.608 21.6243C35.5986 21.6125 35.5939 21.5988 35.5939 21.5832V19.492C35.5939 19.4763 35.5986 19.4626 35.608 19.4508C35.6174 19.4391 35.6334 19.4289 35.656 19.4203C35.6786 19.4117 35.7087 19.405 35.7462 19.4003C35.7836 19.3956 35.8313 19.3933 35.889 19.3933ZM32.7047 19.3933C32.7625 19.3933 32.8101 19.3956 32.8476 19.4003C32.885 19.405 32.9151 19.4117 32.9377 19.4203C32.9604 19.4289 32.9764 19.4391 32.9858 19.4508C32.9951 19.4626 32.9998 19.4763 32.9998 19.492V21.5832C32.9998 21.5988 32.9951 21.6125 32.9858 21.6243C32.9764 21.636 32.9604 21.6458 32.9377 21.6537C32.9151 21.6615 32.885 21.6674 32.8476 21.6713C32.8176 21.6744 32.7811 21.6763 32.7382 21.6769L32.7047 21.6771C32.6469 21.6771 32.5993 21.6752 32.5618 21.6713C32.5244 21.6674 32.4943 21.6615 32.4717 21.6537C32.449 21.6458 32.433 21.636 32.4237 21.6243C32.4143 21.6125 32.4096 21.5988 32.4096 21.5832V19.492C32.4096 19.4763 32.4143 19.4626 32.4237 19.4508C32.433 19.4391 32.449 19.4289 32.4717 19.4203C32.4943 19.4117 32.5244 19.405 32.5618 19.4003C32.5993 19.3956 32.6469 19.3933 32.7047 19.3933ZM28.1907 19.3933C28.2485 19.3933 28.2961 19.3956 28.3336 19.4003C28.371 19.405 28.4011 19.4117 28.4237 19.4203C28.4464 19.4289 28.4624 19.4391 28.4717 19.4508C28.4811 19.4626 28.4858 19.4763 28.4858 19.492V21.5832C28.4858 21.5988 28.4811 21.6125 28.4717 21.6243C28.4624 21.636 28.4464 21.6458 28.4237 21.6537C28.4011 21.6615 28.371 21.6674 28.3336 21.6713C28.3036 21.6744 28.2671 21.6763 28.2241 21.6769L28.1907 21.6771C28.1329 21.6771 28.0853 21.6752 28.0478 21.6713C28.0104 21.6674 27.9803 21.6615 27.9577 21.6537C27.935 21.6458 27.919 21.636 27.9096 21.6243C27.9003 21.6125 27.8956 21.5988 27.8956 21.5832V19.492C27.8956 19.4763 27.9003 19.4626 27.9096 19.4508C27.919 19.4391 27.935 19.4289 27.9577 19.4203C27.9803 19.4117 28.0104 19.405 28.0478 19.4003C28.0853 19.3956 28.1329 19.3933 28.1907 19.3933ZM8.12094 19.3533C8.26302 19.3533 8.38285 19.3768 8.48044 19.4238C8.57802 19.4708 8.65687 19.5347 8.71698 19.6153C8.7771 19.696 8.82042 19.7904 8.84697 19.8985C8.87351 20.0065 8.88678 20.1366 8.88678 20.2885V21.5832C8.88678 21.5988 8.8821 21.6125 8.87273 21.6243C8.86336 21.636 8.84775 21.6458 8.82589 21.6537C8.80403 21.6615 8.77397 21.6674 8.73572 21.6713C8.70512 21.6744 8.66877 21.6763 8.62668 21.6769L8.59403 21.6771C8.53626 21.6771 8.48825 21.6752 8.44999 21.6713C8.41174 21.6674 8.38168 21.6615 8.35983 21.6537C8.33797 21.6458 8.32235 21.636 8.31298 21.6243C8.30362 21.6125 8.29893 21.5988 8.29893 21.5832V20.3872C8.29893 20.2854 8.29152 20.2055 8.27668 20.1475C8.26185 20.0896 8.24038 20.0398 8.21228 19.9983C8.18417 19.9568 8.14787 19.9247 8.10337 19.902C8.05887 19.8793 8.00696 19.8679 7.94763 19.8679C7.87268 19.8679 7.79696 19.8953 7.72045 19.9501C7.64394 20.005 7.56431 20.0849 7.48156 20.1898V21.5832C7.48156 21.5988 7.47688 21.6125 7.46751 21.6243C7.45814 21.636 7.44214 21.6458 7.4195 21.6537C7.39686 21.6615 7.3668 21.6674 7.32933 21.6713C7.29935 21.6744 7.26288 21.6763 7.21991 21.6769L7.18647 21.6771C7.1287 21.6771 7.08108 21.6752 7.0436 21.6713C7.00613 21.6674 6.97607 21.6615 6.95343 21.6537C6.93079 21.6458 6.91479 21.636 6.90542 21.6243C6.89605 21.6125 6.89137 21.5988 6.89137 21.5832V19.4873C6.89137 19.4716 6.89527 19.4579 6.90308 19.4461C6.91089 19.4344 6.92494 19.4246 6.94524 19.4168C6.96553 19.4089 6.99169 19.4031 7.02369 19.3992C7.0557 19.3952 7.09591 19.3933 7.14431 19.3933L7.20014 19.3942C7.226 19.3952 7.24876 19.3968 7.26844 19.3992C7.30123 19.4031 7.3266 19.4089 7.34455 19.4168C7.36251 19.4246 7.37539 19.4344 7.3832 19.4461C7.391 19.4579 7.39491 19.4716 7.39491 19.4873V19.7293C7.51045 19.604 7.62794 19.51 7.74738 19.4473C7.86683 19.3847 7.99134 19.3533 8.12094 19.3533ZM13.1555 19.3533C13.2975 19.3533 13.4174 19.3768 13.515 19.4238C13.6125 19.4708 13.6914 19.5347 13.7515 19.6153C13.8116 19.696 13.8549 19.7904 13.8815 19.8985C13.908 20.0065 13.9213 20.1366 13.9213 20.2885V21.5832C13.9213 21.5988 13.9166 21.6125 13.9073 21.6243C13.8979 21.636 13.8823 21.6458 13.8604 21.6537C13.8386 21.6615 13.8085 21.6674 13.7702 21.6713C13.7396 21.6744 13.7033 21.6763 13.6612 21.6769L13.6286 21.6771C13.5708 21.6771 13.5228 21.6752 13.4845 21.6713C13.4463 21.6674 13.4162 21.6615 13.3943 21.6537C13.3725 21.6458 13.3569 21.636 13.3475 21.6243C13.3381 21.6125 13.3335 21.5988 13.3335 21.5832V20.3872C13.3335 20.2854 13.326 20.2055 13.3112 20.1475C13.2964 20.0896 13.2749 20.0398 13.2468 19.9983C13.2187 19.9568 13.1824 19.9247 13.1379 19.902C13.0934 19.8793 13.0415 19.8679 12.9822 19.8679C12.9072 19.8679 12.8315 19.8953 12.755 19.9501C12.6785 20.005 12.5988 20.0849 12.5161 20.1898V21.5832C12.5161 21.5988 12.5114 21.6125 12.502 21.6243C12.4927 21.636 12.4767 21.6458 12.454 21.6537C12.4314 21.6615 12.4013 21.6674 12.3639 21.6713C12.3339 21.6744 12.2974 21.6763 12.2544 21.6769L12.221 21.6771C12.1632 21.6771 12.1156 21.6752 12.0781 21.6713C12.0407 21.6674 12.0106 21.6615 11.988 21.6537C11.9653 21.6458 11.9493 21.636 11.9399 21.6243C11.9306 21.6125 11.9259 21.5988 11.9259 21.5832V19.4873C11.9259 19.4716 11.9298 19.4579 11.9376 19.4461C11.9454 19.4344 11.9595 19.4246 11.9798 19.4168C12.0001 19.4089 12.0262 19.4031 12.0582 19.3992C12.0902 19.3952 12.1304 19.3933 12.1788 19.3933L12.2347 19.3942C12.2605 19.3952 12.2833 19.3968 12.303 19.3992C12.3358 19.4031 12.3611 19.4089 12.3791 19.4168C12.397 19.4246 12.4099 19.4344 12.4177 19.4461C12.4255 19.4579 12.4294 19.4716 12.4294 19.4873V19.7293C12.545 19.604 12.6625 19.51 12.7819 19.4473C12.9014 19.3847 13.0259 19.3533 13.1555 19.3533ZM22.9318 20.6926H22.7069C22.6117 20.6926 22.5305 20.6997 22.4633 20.7138C22.3962 20.7279 22.3416 20.749 22.2994 20.7772C22.2572 20.8054 22.2264 20.8395 22.2069 20.8794C22.1874 20.9194 22.1776 20.9652 22.1776 21.0169C22.1776 21.1046 22.2053 21.1735 22.2608 21.2237C22.3162 21.2738 22.3931 21.2989 22.4915 21.2989C22.5742 21.2989 22.6503 21.2777 22.7198 21.2354C22.7893 21.1931 22.8599 21.1312 22.9318 21.0498V20.6926ZM18.5577 20.6926H18.3328C18.2376 20.6926 18.1564 20.6997 18.0893 20.7138C18.0221 20.7279 17.9675 20.749 17.9253 20.7772C17.8832 20.8054 17.8523 20.8395 17.8328 20.8794C17.8133 20.9194 17.8035 20.9652 17.8035 21.0169C17.8035 21.1046 17.8313 21.1735 17.8867 21.2237C17.9421 21.2738 18.019 21.2989 18.1174 21.2989C18.2001 21.2989 18.2763 21.2777 18.3457 21.2354C18.4152 21.1931 18.4859 21.1312 18.5577 21.0498V20.6926ZM47.3441 20.6926H47.1193C47.0241 20.6926 46.9429 20.6997 46.8757 20.7138C46.8086 20.7279 46.7539 20.749 46.7118 20.7772C46.6696 20.8054 46.6388 20.8395 46.6193 20.8794C46.5998 20.9194 46.59 20.9652 46.59 21.0169C46.59 21.1046 46.6177 21.1735 46.6731 21.2237C46.7286 21.2738 46.8055 21.2989 46.9038 21.2989C46.9866 21.2989 47.0627 21.2777 47.1322 21.2354C47.1917 21.1992 47.2522 21.1485 47.3134 21.0835L47.3441 21.0498V20.6926ZM10.7131 20.6926H10.4883C10.3931 20.6926 10.3119 20.6997 10.2447 20.7138C10.1776 20.7279 10.123 20.749 10.0808 20.7772C10.0386 20.8054 10.0078 20.8395 9.98829 20.8794C9.96877 20.9194 9.95901 20.9652 9.95901 21.0169C9.95901 21.1046 9.98672 21.1735 10.0422 21.2237C10.0976 21.2738 10.1745 21.2989 10.2728 21.2989C10.3556 21.2989 10.4317 21.2777 10.5012 21.2354C10.5707 21.1931 10.6413 21.1312 10.7131 21.0498V20.6926ZM44.4334 19.8538C44.3569 19.8538 44.2909 19.873 44.2355 19.9114C44.1801 19.9498 44.1356 20.0011 44.102 20.0653C44.0684 20.1295 44.0435 20.2012 44.0271 20.2803C44.0107 20.3594 44.0025 20.4404 44.0025 20.5235C44.0025 20.6112 44.0095 20.6966 44.0236 20.7796C44.0376 20.8626 44.0606 20.9366 44.0926 21.0016C44.1247 21.0666 44.1672 21.1187 44.2203 21.1579C44.2734 21.197 44.3405 21.2166 44.4217 21.2166C44.4623 21.2166 44.5017 21.2107 44.54 21.199C44.5782 21.1872 44.6173 21.1681 44.6571 21.1414C44.6969 21.1148 44.7379 21.0799 44.78 21.0369C44.8222 20.9938 44.8683 20.9409 44.9182 20.8783V20.1828C44.8339 20.0762 44.7531 19.9948 44.6758 19.9384C44.5985 19.882 44.5177 19.8538 44.4334 19.8538ZM26.1863 19.8538C26.1098 19.8538 26.0439 19.873 25.9884 19.9114C25.933 19.9498 25.8885 20.0011 25.8549 20.0653C25.8214 20.1295 25.7964 20.2012 25.78 20.2803C25.7636 20.3594 25.7554 20.4404 25.7554 20.5235C25.7554 20.6112 25.7624 20.6966 25.7765 20.7796C25.7905 20.8626 25.8136 20.9366 25.8456 21.0016C25.8776 21.0666 25.9201 21.1187 25.9732 21.1579C26.0263 21.197 26.0934 21.2166 26.1746 21.2166C26.2152 21.2166 26.2546 21.2107 26.2929 21.199C26.3312 21.1872 26.3702 21.1681 26.41 21.1414C26.4498 21.1148 26.4908 21.0799 26.533 21.0369C26.5751 20.9938 26.6212 20.9409 26.6711 20.8783V20.1828C26.5868 20.0762 26.506 19.9948 26.4287 19.9384C26.3514 19.882 26.2706 19.8538 26.1863 19.8538ZM39.0757 19.203H39.0733L38.6448 20.4953H39.5043L39.0757 19.203ZM5.3601 19.7716C5.28516 19.7716 5.21997 19.7857 5.16454 19.8139C5.10912 19.8421 5.06306 19.8801 5.02636 19.9278C4.98967 19.9756 4.96157 20.032 4.94205 20.097C4.92253 20.162 4.91121 20.2313 4.90809 20.3049H5.7887C5.79338 20.1389 5.7602 20.0085 5.68916 19.9137C5.61812 19.819 5.50843 19.7716 5.3601 19.7716ZM16.3984 18.5585C16.5295 18.5585 16.6185 18.5808 16.6654 18.6254C16.7122 18.6701 16.7356 18.7496 16.7356 18.8639C16.7356 18.983 16.7114 19.0652 16.663 19.1106C16.6146 19.1561 16.5248 19.1788 16.3937 19.1788C16.261 19.1788 16.1716 19.1569 16.1255 19.113C16.0795 19.0691 16.0564 18.99 16.0564 18.8757C16.0564 18.7566 16.0802 18.674 16.1279 18.6278C16.1755 18.5816 16.2657 18.5585 16.3984 18.5585ZM28.193 18.4722C28.3242 18.4722 28.4132 18.4945 28.46 18.5392C28.5069 18.5838 28.5303 18.6633 28.5303 18.7777C28.5303 18.8967 28.5061 18.979 28.4577 19.0244C28.4093 19.0698 28.3195 19.0925 28.1884 19.0925C28.0556 19.0925 27.9662 19.0706 27.9202 19.0267C27.8741 18.9829 27.8511 18.9038 27.8511 18.7894C27.8511 18.6704 27.8749 18.5877 27.9225 18.5415C27.9701 18.4953 28.0603 18.4722 28.193 18.4722ZM32.7071 18.4722C32.8382 18.4722 32.9272 18.4945 32.974 18.5392C33.0209 18.5838 33.0443 18.6633 33.0443 18.7777C33.0443 18.8967 33.0201 18.979 32.9717 19.0244C32.9233 19.0698 32.8335 19.0925 32.7024 19.0925C32.5697 19.0925 32.4803 19.0706 32.4342 19.0267C32.3881 18.9829 32.3651 18.9038 32.3651 18.7894C32.3651 18.6704 32.3889 18.5877 32.4365 18.5415C32.4842 18.4953 32.5743 18.4722 32.7071 18.4722ZM35.8914 18.4722C36.0225 18.4722 36.1115 18.4945 36.1584 18.5392C36.2052 18.5838 36.2286 18.6633 36.2286 18.7777C36.2286 18.8967 36.2044 18.979 36.156 19.0244C36.1076 19.0698 36.0178 19.0925 35.8867 19.0925C35.754 19.0925 35.6646 19.0706 35.6185 19.0267C35.5725 18.9829 35.5494 18.9038 35.5494 18.7894C35.5494 18.6704 35.5732 18.5877 35.6209 18.5415C35.6685 18.4953 35.7587 18.4722 35.8914 18.4722ZM7.46983 0.299988C9.43727 0.299988 11.5386 0.804184 13.5455 1.76064L13.597 1.78363L13.6208 1.83592C14.5509 3.80444 15.0415 5.91797 15.0415 7.95217C15.0415 9.93419 14.5907 11.9157 13.6992 13.8426L13.6146 14.0227L13.5628 14.0467C11.7101 14.9264 9.62083 15.3922 7.52134 15.3922C5.53957 15.3922 3.50305 14.9026 1.46922 13.9341L1.41928 13.9095L1.39545 13.8585C0.482735 11.9256 0 9.81154 0 7.74317C0 5.67789 0.462893 3.65426 1.37626 1.72392L1.40136 1.67263L1.45219 1.64709C3.33371 0.752888 5.35761 0.299988 7.46983 0.299988ZM7.46983 0.619137C5.42489 0.619137 3.46487 1.05423 1.64033 1.91271C0.764523 3.78361 0.318735 5.74411 0.318735 7.74317C0.318735 9.7459 0.781934 11.7947 1.65744 13.669C3.63322 14.6015 5.6038 15.0724 7.52134 15.0724C9.55448 15.0724 11.5765 14.6264 13.3765 13.7813C14.2707 11.875 14.7238 9.91294 14.7238 7.95217C14.7238 5.98327 14.2508 3.93542 13.356 2.02471C11.4085 1.10617 9.37437 0.619137 7.46983 0.619137ZM6.95765 13.0488L7.42458 13.0691C7.64529 13.08 7.70299 13.2607 7.69615 13.4333C7.68964 13.5381 7.65708 13.6553 7.56598 13.7188C7.4912 13.7729 7.39509 13.7856 7.30614 13.7813L7.15394 13.7729L7.12358 14.2839L6.8845 14.2682L6.95765 13.0488ZM37.2589 1.49471L39.8171 2.84926L37.9613 6.22868C37.2608 5.65795 36.4054 5.23802 35.3142 5.23802C32.7317 5.23802 31.6825 7.16928 31.6825 8.52978C31.6825 9.53972 32.3416 11.0296 34.6396 11.0296C35.604 11.0296 36.9753 10.3565 37.3699 10.0501L35.5346 13.9707L35.2887 14.0213L34.7451 14.1383C34.3813 14.2151 34.0953 14.263 33.6316 14.2774C29.5187 14.4006 27.8567 11.8657 27.8579 9.27564C27.8608 5.85141 30.8951 1.68724 35.9255 1.68724C36.2337 1.68724 36.6108 1.7942 36.9331 1.91271L37.2589 1.49471ZM9.17313 13.0286C9.21997 13.0858 9.23797 13.1342 9.24854 13.2035L9.2522 13.2305C9.26742 13.335 9.23728 13.4556 9.12015 13.5157V13.5194C9.25093 13.5194 9.33001 13.6137 9.35296 13.7729L9.35814 13.8276C9.36101 13.8655 9.36256 13.9131 9.35634 13.9555C9.32974 14.1166 9.23391 14.1686 9.07206 14.1913L8.6721 14.2457L8.50537 13.0246L8.90806 12.9633C9.00605 12.9499 9.12537 12.967 9.17313 13.0286ZM5.81086 12.9209L6.05582 12.949L5.94726 13.8102L5.94438 13.8402C5.93845 13.9214 5.9508 14.0098 6.07907 14.0227C6.22135 14.0336 6.25361 13.939 6.26972 13.8214L6.37363 12.9888L6.61662 13.0171L6.51187 13.8699C6.461 14.1403 6.35686 14.2584 6.06047 14.2215C5.75881 14.1833 5.68719 14.0454 5.70545 13.7729L5.81086 12.9209ZM4.44244 13.9309L4.70439 12.7179L5.12326 12.8128C5.36845 12.866 5.44254 12.9754 5.40786 13.2009C5.38903 13.3235 5.33101 13.4551 5.19289 13.459L5.17308 13.4584L5.18947 13.4646C5.29255 13.5073 5.30689 13.567 5.29084 13.6626L5.28696 13.6836C5.277 13.7325 5.2088 14.029 5.25593 14.0767L5.25747 14.1132L5.00324 14.0467C4.99739 14.001 5.0059 13.9351 5.01705 13.8716L5.05227 13.6852C5.06263 13.6217 5.06445 13.5523 5.00694 13.5222C4.94962 13.4915 4.92825 13.493 4.86347 13.4781L4.79739 13.4646L4.68824 13.9842L4.44244 13.9309ZM10.2987 12.9902L10.3072 13.0183C10.3159 13.0485 10.3267 13.0784 10.3308 13.1088L10.1101 13.1546L10.0945 13.1068L10.083 13.0745C10.0581 13.0094 10.0207 12.9459 9.9516 12.9539C9.77333 12.9754 9.83227 13.1978 9.85057 13.2909L9.92321 13.6555C9.94535 13.7553 9.9911 13.8847 10.1305 13.8566C10.2558 13.8314 10.2012 13.6358 10.1901 13.5556L10.4163 13.5113C10.4194 13.534 10.4231 13.5592 10.4244 13.582C10.457 13.8047 10.4163 13.9891 10.1668 14.0399C9.809 14.1089 9.73172 13.8949 9.66827 13.5883L9.62767 13.3851L9.61479 13.303L9.60779 13.2505C9.57899 13.0101 9.60958 12.833 9.91473 12.772C10.1078 12.7367 10.2385 12.8084 10.2987 12.9902ZM8.91521 13.6519L8.82714 13.6655L8.88296 14.0339L8.97882 14.0207C9.01011 14.0161 9.04003 14.0096 9.06525 13.9935C9.12327 13.9555 9.11796 13.8743 9.10989 13.814C9.08974 13.6815 9.05534 13.6311 8.91521 13.6519ZM20.2396 1.60073L23.6772 1.59598L25.0016 1.59863C25.1404 1.59922 25.2703 1.59991 25.3889 1.60073C27.3256 1.61161 28.4201 2.66637 28.4201 4.18985C28.4201 5.59451 27.2658 6.83771 25.9987 7.4806C27.3033 7.96178 27.4161 9.14281 27.4161 9.97824C27.4161 11.997 25.3973 13.8831 22.7728 13.8831H17.0494L19.282 5.23463L18.3649 5.2293L20.2396 1.60073ZM47.4745 1.60073L48 13.8831H44.089L44.0867 11.7767H41.4199L40.5422 13.8831H36.3007L40.7351 5.11237L39.7351 5.10589L41.635 1.60073H47.4745ZM10.9905 12.5263L11.6121 13.6254L11.3787 13.6954L11.2314 13.4162L10.9723 13.4943L11.0057 13.8118L10.7704 13.8808L10.6941 12.6171L10.9905 12.5263ZM3.97797 12.5054C4.16742 12.5586 4.2849 12.6423 4.27932 12.8631C4.27841 12.9123 4.26225 12.9624 4.25172 13.0109L4.03133 12.9499L4.0399 12.9123C4.06214 12.8081 4.06266 12.7263 3.92869 12.6849C3.75565 12.6373 3.71356 12.8479 3.68965 12.9388L3.59191 13.2997L3.58409 13.3337C3.5653 13.4274 3.56722 13.5392 3.68965 13.5729C3.81555 13.6068 3.89182 13.483 3.93738 13.302L3.7833 13.261L3.83658 13.0694L4.19902 13.1863L4.02699 13.8249L3.86019 13.7794L3.8977 13.6444H3.89301C3.81613 13.7548 3.72248 13.7664 3.64037 13.7506C3.29993 13.6582 3.31264 13.4428 3.38714 13.1538L3.44815 12.9253L3.4734 12.8462L3.4906 12.7962C3.57224 12.5682 3.67759 12.4228 3.97797 12.5054ZM7.18335 13.2343L7.16078 13.5869L7.28446 13.5938C7.38491 13.5975 7.45153 13.5577 7.46022 13.4096C7.46518 13.2675 7.41155 13.2433 7.28135 13.2376L7.18335 13.2343ZM8.88645 13.1344L8.76079 13.1546L8.80238 13.4675L8.84702 13.4628L8.88467 13.4568C8.93032 13.4491 8.97921 13.4364 9.00259 13.3969L9.01337 13.3747C9.02573 13.3487 9.03561 13.3194 9.02523 13.2607C9.00985 13.177 8.983 13.123 8.88645 13.1344ZM4.9081 12.949L4.83921 13.2768L5.00478 13.3216C5.10524 13.3362 5.16106 13.284 5.18093 13.1621C5.19888 13.0503 5.17563 13.0068 5.08544 12.9851L4.9081 12.949ZM10.8891 12.7244L10.9505 13.2902L11.1378 13.2357L10.8891 12.7244ZM7.37299 1.67237L7.43749 1.67097L7.45355 1.67117C8.73542 1.69217 9.83313 2.55166 9.82828 4.02563C9.82604 5.28068 8.82099 5.95253 8.45881 6.43247C7.916 7.15559 7.61187 7.97894 7.59231 9.28898L7.58761 9.70901L7.58568 10.091C7.58446 10.5635 7.58743 11.0091 7.59065 11.3396L7.59543 11.7577H7.30771L7.29717 10.3989L7.29367 10.1023C7.29033 9.84993 7.2859 9.58606 7.27984 9.32135C7.24944 8.01157 6.9558 7.15559 6.41326 6.43247C6.05424 5.95253 5.04822 5.28064 5.04412 4.02563C5.04025 2.57032 6.11089 1.71403 7.37299 1.67237ZM10.5917 5.39607L10.6247 5.39947C11.3828 5.46542 12.0173 5.77554 12.3593 6.66759C12.6752 7.49897 12.391 8.60471 11.3412 8.86412L11.1718 8.90664L11.0006 8.95092C10.0804 9.19277 9.51108 9.40909 9.08513 9.70175C8.50376 10.1021 8.062 10.8672 8.04835 11.7565L7.80063 11.7555L7.80011 9.87896L7.80395 9.47983C7.80515 9.41775 7.80661 9.37236 7.80839 9.34811C7.7958 6.9795 9.49397 5.30174 10.5917 5.39607ZM12.2852 8.60941C12.5717 8.89775 12.6235 9.54589 12.5733 9.92478C12.5137 10.363 12.0043 11.0855 11.237 11.1138C10.8457 11.1297 10.3658 11.0486 10.0528 10.9861L9.88743 10.9518C9.3982 10.8454 8.61912 11.1539 8.49483 11.7555L8.26993 11.7565C8.26599 10.9854 8.69474 10.3036 9.25377 9.9372C9.75319 9.61338 10.4216 9.40064 11.4977 9.12662C11.8313 9.04111 12.1792 8.85136 12.2852 8.60941ZM7.06434 9.34811L7.06584 9.37455L7.06895 9.48336C7.07374 9.72979 7.0744 10.2328 7.07402 10.7233L7.07271 11.7555L6.85593 11.7565C6.84333 10.8672 6.36832 10.1021 5.78637 9.70175C5.31144 9.37457 4.65507 9.14281 3.53127 8.86412C2.4802 8.60471 2.19752 7.49897 2.51371 6.66759C2.84778 5.79375 3.46417 5.47832 4.20174 5.40382L4.24799 5.39947C5.34335 5.26791 7.07733 6.95558 7.06434 9.34811ZM2.58595 8.60941C2.69382 8.85136 3.04204 9.04111 3.37496 9.12662L3.64304 9.19584L3.81752 9.24225C4.6417 9.46454 5.19177 9.66024 5.61711 9.9372C6.16434 10.2949 6.58621 10.9531 6.60257 11.7015L6.60304 11.7565L6.37639 11.7555C6.25526 11.1665 5.50784 10.8584 5.0157 10.9457L4.86959 10.9759L4.75921 10.9979C4.44736 11.0583 4.00414 11.1287 3.63695 11.1138C2.86805 11.0855 2.35745 10.363 2.29916 9.92478C2.24896 9.54589 2.30074 8.89775 2.58595 8.60941ZM23.264 8.75092H21.88L21.3561 10.7695H22.696C23.223 10.7695 23.9414 10.507 24.1174 9.85008C24.2913 9.19133 23.7891 8.75092 23.264 8.75092ZM44.0614 5.35812L42.5535 8.93069H44.107L44.0614 5.35812ZM22.8472 4.8287L22.4504 6.58046H23.4887C23.8893 6.58046 24.5967 6.47876 24.7736 5.70088C24.9674 4.85639 24.3035 4.83367 23.9851 4.83367L22.8472 4.8287Z" fill="#0066AE"/>
</g>
<defs>
<clipPath id="clip0_847_2780">
<rect width="48" height="15.36" fill="white" transform="translate(0 0.299988)"/>
</clipPath>
</defs>
</svg>
